<svg width="26" height="27" viewBox="0 0 26 27" fill="none" xmlns="http://www.w3.org/2000/svg">
<path fill-rule="evenodd" clip-rule="evenodd" d="M15.0961 25.7813C14.9878 25.816 14.8791 25.848 14.77 25.8773C14.8791 25.848 14.9878 25.816 15.0961 25.7813Z" fill="#00DD00"/>
<path fill-rule="evenodd" clip-rule="evenodd" d="M15.3562 25.7474C15.3045 25.7661 15.2527 25.7833 15.2009 25.8009C15.2527 25.7833 15.3045 25.7661 15.3562 25.7474Z" fill="#00DD00"/>
<path fill-rule="evenodd" clip-rule="evenodd" d="M14.4797 25.8718C14.3529 25.8999 14.2254 25.9249 14.0974 25.946C14.2254 25.9249 14.3529 25.8999 14.4797 25.8718Z" fill="#00DD00"/>
<path fill-rule="evenodd" clip-rule="evenodd" d="M14.7294 25.8483C14.6685 25.8644 14.6072 25.8792 14.5461 25.8933C14.6072 25.8792 14.6685 25.8644 14.7294 25.8483Z" fill="#00DD00"/>
<path fill-rule="evenodd" clip-rule="evenodd" d="M15.71 25.6765C15.6644 25.6956 15.6186 25.7147 15.5728 25.7331C15.6186 25.7147 15.6644 25.6956 15.71 25.6765Z" fill="#00DD00"/>
<path fill-rule="evenodd" clip-rule="evenodd" d="M16.5885 25.4582C16.5516 25.4789 16.5147 25.4984 16.4778 25.5188C16.5147 25.4984 16.5516 25.4789 16.5885 25.4582Z" fill="#00DD00"/>
<path fill-rule="evenodd" clip-rule="evenodd" d="M16.3228 25.5304C16.2827 25.5511 16.2424 25.5722 16.2021 25.5921C16.2424 25.5722 16.2827 25.5515 16.3228 25.5304Z" fill="#00DD00"/>
<path fill-rule="evenodd" clip-rule="evenodd" d="M15.9753 25.6179C15.9329 25.6374 15.89 25.6558 15.8472 25.6745C15.89 25.6558 15.9329 25.6374 15.9753 25.6179Z" fill="#00DD00"/>
<path fill-rule="evenodd" clip-rule="evenodd" d="M14.0932 25.9205C14.0248 25.9318 13.9563 25.942 13.8877 25.951C13.9563 25.942 14.0248 25.9318 14.0932 25.9205Z" fill="#00DD00"/>
<path fill-rule="evenodd" clip-rule="evenodd" d="M26 12.9747C26 5.81005 20.1786 0 13 0C5.8214 0 0 5.81005 0 12.9747C0 20.1393 5.8214 25.9493 13 25.9493C13.0764 25.9493 13.1523 25.9477 13.2285 25.9463V15.8461H10.4355V12.5975H13.2285V10.2069C13.2285 7.43445 14.9243 5.92547 17.4023 5.92547C18.5889 5.92547 19.6089 6.01377 19.9062 6.05316V8.95076H18.1975C16.8495 8.95076 16.5884 9.59023 16.5884 10.5284V12.5975H19.8118L19.3917 15.8461H16.5884V25.448C22.0222 23.8933 26 18.897 26 12.9747Z" fill="white"/>
<path fill-rule="evenodd" clip-rule="evenodd" d="M13.8589 25.9354C13.7236 25.9525 13.5877 25.9662 13.4514 25.9752C13.5877 25.9662 13.7236 25.9525 13.8589 25.9354Z" fill="#00DD00"/>
<path fill-rule="evenodd" clip-rule="evenodd" d="M13.4446 25.9632C13.3728 25.9679 13.3008 25.9714 13.2288 25.9737C13.3008 25.9714 13.3728 25.9679 13.4446 25.9632Z" fill="#00DD00"/>
</svg>
