<svg width="27" height="27" viewBox="0 0 27 27" fill="none" xmlns="http://www.w3.org/2000/svg">
<path d="M13.8 0.799805C6.61755 0.799805 0.800049 6.6173 0.800049 13.7998C0.800049 16.6598 1.71005 19.2923 3.27005 21.4373L1.48255 26.1498L6.65005 24.6548C8.69755 26.0198 11.1675 26.7998 13.8 26.7998C20.9825 26.7998 26.8001 20.9823 26.8001 13.7998C26.8001 6.6173 20.9825 0.799805 13.8 0.799805ZM20.7226 19.1948L19.3251 20.5598C17.8625 22.0223 13.995 20.4298 10.5825 16.9848C7.17005 13.5723 5.64255 9.7048 7.00755 8.2748L8.40505 6.8773C8.92505 6.3573 9.80255 6.3573 10.3551 6.8773L12.4025 8.9248C13.1175 9.6398 12.825 10.8748 11.8825 11.1673C11.2325 11.3948 10.7775 12.1098 11.005 12.7598C11.3625 14.2873 13.345 16.1723 14.8075 16.5298C15.4575 16.6923 16.205 16.3023 16.4 15.6523C16.6925 14.7098 17.9275 14.4173 18.6425 15.1323L20.69 17.1798C21.21 17.7323 21.2101 18.6098 20.7226 19.1948Z" fill="white"/>
</svg>
