<svg width="10" height="16" viewBox="0 0 10 16" fill="none" xmlns="http://www.w3.org/2000/svg">
<path d="M1.24543 0.384418C1.02031 0.379466 0.799244 0.444726 0.612959 0.571224C0.426674 0.697721 0.28443 0.879206 0.206005 1.09028C0.127579 1.30136 0.116868 1.53159 0.175361 1.74904C0.233853 1.96648 0.358643 2.16021 0.53238 2.30346L7.16145 7.98249L0.53238 13.6595C0.412198 13.7478 0.311547 13.86 0.236733 13.989C0.161918 14.118 0.114551 14.2612 0.0975979 14.4094C0.0806445 14.5575 0.0944702 14.7076 0.138209 14.8502C0.181948 14.9928 0.254657 15.1249 0.351784 15.2381C0.448911 15.3512 0.568363 15.4431 0.70266 15.508C0.836957 15.5728 0.983206 15.6093 1.13225 15.615C1.28129 15.6208 1.42991 15.5958 1.56881 15.5414C1.7077 15.4871 1.83388 15.4047 1.93944 15.2993L9.52913 8.80556C9.64831 8.70385 9.74402 8.5776 9.80965 8.43532C9.87527 8.29304 9.90926 8.13817 9.90926 7.98149C9.90926 7.8248 9.87527 7.66994 9.80965 7.52765C9.74402 7.38537 9.64831 7.259 9.52913 7.15729L1.93944 0.657317C1.74772 0.487019 1.5018 0.390201 1.24543 0.384168V0.384418Z" fill="white"/>
</svg>
