<svg width="48" height="48" viewBox="0 0 48 48" fill="none" xmlns="http://www.w3.org/2000/svg">
<path d="M39 48H9C4.029 48 0 43.971 0 39V9C0 4.029 4.029 0 9 0H39C43.971 0 48 4.029 48 9V39C48 43.971 43.971 48 39 48Z" fill="#FFE2E8"/>
<g clip-path="url(#clip0)">
<path d="M14.8125 22.5938C14.8125 22.2052 14.4979 21.8906 14.1094 21.8906H12.7031C12.3146 21.8906 12 22.2052 12 22.5938C12 22.9825 12.3146 23.2969 12.7031 23.2969H14.1094C14.4979 23.2969 14.8125 22.9825 14.8125 22.5938Z" fill="#FC859B"/>
<path d="M35.2969 21.8906H33.8906C33.5021 21.8906 33.1875 22.2052 33.1875 22.5938C33.1875 22.9825 33.5021 23.2969 33.8906 23.2969H35.2969C35.6854 23.2969 36 22.9825 36 22.5938C36 22.2052 35.6854 21.8906 35.2969 21.8906Z" fill="#FC859B"/>
<path d="M15.827 17.0629L14.6088 16.3597C14.2724 16.1653 13.8425 16.2806 13.6482 16.6172C13.4539 16.9537 13.5693 17.3835 13.9056 17.5778L15.1238 18.2809C15.458 18.4739 15.8885 18.3614 16.0844 18.0234C16.2787 17.6869 16.1633 17.2571 15.827 17.0629Z" fill="#FC859B"/>
<path d="M34.0944 27.6098L32.8762 26.9067C32.5391 26.7129 32.1094 26.8276 31.9157 27.1641C31.7214 27.5007 31.8367 27.9304 32.1731 28.1247L33.3913 28.8278C33.7255 29.0208 34.156 28.9084 34.3519 28.5704C34.5462 28.2338 34.4308 27.8041 34.0944 27.6098Z" fill="#FC859B"/>
<path d="M18.4691 14.2727C18.6649 14.6107 19.0955 14.7231 19.4297 14.5301C19.7662 14.3357 19.8816 13.9059 19.6871 13.5695L18.984 12.3513C18.7897 12.0157 18.3578 11.9002 18.0234 12.0939C17.6869 12.2882 17.5715 12.7181 17.766 13.0545L18.4691 14.2727Z" fill="#FC859B"/>
<path d="M15.1238 26.9067L13.9056 27.6098C13.5693 27.8041 13.4539 28.2338 13.6482 28.5704C13.8441 28.9086 14.2746 29.021 14.6088 28.8278L15.827 28.1247C16.1633 27.9304 16.2787 27.5007 16.0844 27.1641C15.8894 26.8276 15.4575 26.7129 15.1238 26.9067Z" fill="#FC859B"/>
<path d="M32.8762 18.2809L34.0944 17.5778C34.4308 17.3835 34.5462 16.9537 34.3519 16.6172C34.1569 16.2806 33.7249 16.1653 33.3913 16.3597L32.1731 17.0629C31.8367 17.2571 31.7214 17.6869 31.9157 18.0234C32.1116 18.3616 32.5421 18.4741 32.8762 18.2809Z" fill="#FC859B"/>
<path d="M28.5703 14.5302C28.9045 14.7232 29.3351 14.6108 29.5309 14.2728L30.234 13.0546C30.4285 12.7182 30.3131 12.2883 29.9766 12.094C29.6407 11.9005 29.2103 12.0158 29.016 12.3514L28.3129 13.5696C28.1184 13.906 28.2338 14.3359 28.5703 14.5302Z" fill="#FC859B"/>
<path d="M28.8759 16.5897C27.0597 15.1128 24.6799 14.545 22.3431 15.0324C19.3075 15.6648 16.9125 18.1538 16.3837 21.2247C15.9408 23.7967 16.7889 26.397 18.6517 28.1818C19.6426 29.1299 20.245 30.3986 20.4113 31.7344H23.2969V28.4317L20.6409 24.4477L19.2841 23.0909C19.0094 22.8162 19.0094 22.3713 19.2841 22.0966C19.5588 21.822 20.0037 21.822 20.2784 22.0966L21.1875 23.0057L22.0966 22.0966C22.3713 21.822 22.8162 21.822 23.0909 22.0966L24 23.0057L24.9091 22.0966C25.1838 21.822 25.6287 21.822 25.9034 22.0966L26.8125 23.0057L27.7216 22.0966C27.9963 21.822 28.4412 21.822 28.7159 22.0966C28.9905 22.3713 28.9905 22.8162 28.7159 23.0909L27.3591 24.4477L24.7031 28.4317V31.7344H27.5484C27.6304 30.4711 28.2301 29.2339 29.3009 28.2262C30.8472 26.77 31.7344 24.7168 31.7344 22.5937C31.7344 20.2549 30.6927 18.0666 28.8759 16.5897Z" fill="#EB264A"/>
<path d="M25.4062 23.588L24.4971 24.4971C24.2224 24.7718 23.7775 24.7718 23.5028 24.4971L22.5937 23.588L22.0922 24.0895L23.9999 26.9513L25.9077 24.0895L25.4062 23.588Z" fill="#EB264A"/>
<path d="M20.4844 33.8906C20.4844 35.0537 21.4307 36 22.5938 36H25.4062C26.5693 36 27.5156 35.0537 27.5156 33.8906V33.1406H20.4844V33.8906Z" fill="#FC859B"/>
</g>
<defs>
<clipPath id="clip0">
<rect width="24" height="24" fill="white" transform="translate(12 12)"/>
</clipPath>
</defs>
</svg>
