<svg width="8" height="14" viewBox="0 0 8 14" fill="none" xmlns="http://www.w3.org/2000/svg">
<path d="M7.16658 7.44001L1.83325 13.44C1.71647 13.5725 1.5519 13.6532 1.37566 13.6644C1.19943 13.6757 1.02593 13.6165 0.893254 13.5C0.760796 13.3832 0.680084 13.2187 0.668836 13.0424C0.657587 12.8662 0.716719 12.6927 0.833254 12.56L5.77325 7.00001L0.833254 1.44C0.725501 1.30622 0.673546 1.13601 0.688223 0.964856C0.7029 0.793704 0.783076 0.634823 0.912033 0.52134C1.04099 0.407857 1.20877 0.348532 1.3804 0.355735C1.55203 0.362938 1.71426 0.436112 1.83325 0.56L7.16658 6.56001C7.27346 6.68166 7.3324 6.83807 7.3324 7.00001C7.3324 7.16194 7.27346 7.31835 7.16658 7.44001Z" fill="white"/>
</svg>
