<svg width="26" height="26" viewBox="0 0 26 26" fill="none" xmlns="http://www.w3.org/2000/svg">
<path fill-rule="evenodd" clip-rule="evenodd" d="M26 12.9747C26 5.81005 20.1786 0 13 0C5.8214 0 0 5.81005 0 12.9747C0 20.1393 5.8214 25.9493 13 25.9493C13.0764 25.9493 13.1523 25.9477 13.2285 25.9463V15.8461H10.4355V12.5975H13.2285V10.2069C13.2285 7.43445 14.9243 5.92547 17.4023 5.92547C18.5889 5.92547 19.6089 6.01377 19.9062 6.05316V8.95076H18.1975C16.8495 8.95076 16.5884 9.59023 16.5884 10.5284V12.5975H19.8118L19.3917 15.8461H16.5884V25.448C22.0222 23.8933 26 18.897 26 12.9747Z" fill="white"/>
</svg>
