<svg width="48" height="48" viewBox="0 0 48 48" fill="none" xmlns="http://www.w3.org/2000/svg">
<path d="M39 48H9C4.029 48 0 43.971 0 39V9C0 4.029 4.029 0 9 0H39C43.971 0 48 4.029 48 9V39C48 43.971 43.971 48 39 48Z" fill="#FFE2E8"/>
<g clip-path="url(#clip0)">
<path d="M23.2969 14.1562H24.7031V16.9688H23.2969V14.1562Z" fill="#FC859B"/>
<path d="M26.7253 17.467L28.7136 15.4788L29.7077 16.4729L27.7195 18.4612L26.7253 17.467Z" fill="#FC859B"/>
<path d="M18.2887 16.4719L19.2828 15.4778L21.2711 17.466L20.2769 18.4602L18.2887 16.4719Z" fill="#FC859B"/>
<path d="M29.9625 22.5937C28.8117 21.1719 27.0509 20.1279 25.0829 19.8656L20.8219 24.1266L21.3281 24.6187C22.1438 25.4485 23.4798 25.4485 24.3094 24.6187L25.8001 23.1281L27.1641 24.7453C27.9798 25.5609 29.3157 25.5609 30.1454 24.7453L31.1439 25.7297C30.4548 26.4187 29.5548 26.7563 28.6548 26.7563C28.4719 26.7563 28.3032 26.7422 28.1204 26.714L30.9188 31.0312H36V22.5937H29.9625Z" fill="#EB264A"/>
<path d="M24 33.8438C26.0953 33.8438 28.0921 32.986 29.5406 31.4954L25.5609 25.364L25.3078 25.6173C23.8899 27.0055 21.6703 26.9724 20.3297 25.6032L18.825 24.1406L23.1282 19.8235C21.1453 20.0625 19.3171 21.0469 18.0375 22.5938H12V31.0313H18.0375C19.5 32.8031 21.6938 33.8438 24 33.8438Z" fill="#EB264A"/>
</g>
<defs>
<clipPath id="clip0">
<rect width="24" height="24" fill="white" transform="translate(12 12)"/>
</clipPath>
</defs>
</svg>
