<svg width="48" height="48" viewBox="0 0 48 48" fill="none" xmlns="http://www.w3.org/2000/svg">
<path d="M39 48H9C4.029 48 0 43.971 0 39V9C0 4.029 4.029 0 9 0H39C43.971 0 48 4.029 48 9V39C48 43.971 43.971 48 39 48Z" fill="#FFE2E8"/>
<path d="M24 14.8125C24.3885 14.8125 24.7031 14.4979 24.7031 14.1094V12.7031C24.7031 12.3146 24.3885 12 24 12C23.6115 12 23.2969 12.3146 23.2969 12.7031V14.1094C23.2969 14.4979 23.6115 14.8125 24 14.8125Z" fill="#FC859B"/>
<path d="M27.3096 16.0128L28.7159 14.6065C28.9905 14.3318 28.9905 13.8869 28.7159 13.6122C28.4412 13.3376 27.9963 13.3376 27.7216 13.6122L26.3154 15.0185C26.0407 15.2932 26.0407 15.7381 26.3154 16.0128C26.59 16.2874 27.035 16.2874 27.3096 16.0128Z" fill="#FC859B"/>
<path d="M20.6904 16.0128C20.965 16.2874 21.41 16.2874 21.6846 16.0128C21.9593 15.7381 21.9593 15.2932 21.6846 15.0185L20.2784 13.6122C20.0037 13.3376 19.5588 13.3376 19.2841 13.6122C19.0095 13.8869 19.0095 14.3318 19.2841 14.6065L20.6904 16.0128Z" fill="#FC859B"/>
<path d="M18.3281 21.9375C18.3281 20.3864 17.0667 19.125 15.5156 19.125C13.9645 19.125 12.7031 20.3864 12.7031 21.9375C12.7031 23.4886 13.9645 24.75 15.5156 24.75C17.0667 24.75 18.3281 23.4886 18.3281 21.9375Z" fill="#EB264A"/>
<path d="M24 17.6719C22.8369 17.6719 21.8906 18.6182 21.8906 19.7812C21.8906 22.4949 19.6355 24.75 16.9219 24.75H15.5156C13.5773 24.75 12 26.3273 12 28.2656V35.2969C12 35.6854 12.3146 36 12.7031 36H18.3281C18.7161 36 19.0219 35.6854 19.0219 35.2976L19.0259 28.7223C23.1321 27.7548 26.1094 24.0577 26.1094 19.7812C26.1094 18.6182 25.1631 17.6719 24 17.6719Z" fill="#EB264A"/>
<path d="M35.2969 21.9375C35.2969 20.3864 34.0355 19.125 32.4844 19.125C30.9333 19.125 29.6719 20.3864 29.6719 21.9375C29.6719 23.4886 30.9333 24.75 32.4844 24.75C34.0355 24.75 35.2969 23.4886 35.2969 21.9375Z" fill="#FC859B"/>
<path d="M32.4844 24.75H31.0782C29.4614 24.75 27.9896 23.909 27.0918 22.7012C26.6804 24.1529 25.9637 25.4703 25.0066 26.5984C26.1277 27.5881 27.5131 28.3737 28.9739 28.7216L28.9781 35.2976C28.9781 35.6854 29.2839 36 29.6719 36H35.2969C35.6855 36 36.0001 35.6854 36.0001 35.2969V28.2656C36.0001 26.3273 34.4228 24.75 32.4844 24.75Z" fill="#FC859B"/>
</svg>
