<svg width="202" height="155" viewBox="0 0 202 155" fill="none" xmlns="http://www.w3.org/2000/svg">
<path d="M66.97 29.0945C68.6901 25.402 70.8636 21.9382 73.4403 18.7832C94.4127 -6.87223 135.622 -4.71054 159.786 15.9719C186.583 38.9051 184.107 77.5061 183.558 84.1014C181.654 107.045 169.744 144.393 142.345 152.001C129.616 155.536 117.47 151.562 106.874 144.189C98.5055 138.366 87.471 138.91 79.4835 145.735C76.4622 148.317 73.0938 150.5 69.3526 152.045C60.8851 155.543 53.3469 154.606 50.0818 154.157C24.6302 150.672 -0.232396 121.694 0.00163935 94.5993C0.268211 63.5085 33.5424 39.6609 66.97 29.0945Z" fill="#ECF3FE" fill-opacity="0.1"/>
<path d="M161.191 70.1174V131.246C161.191 131.32 161.188 131.394 161.185 131.474C161.185 131.509 161.181 131.545 161.177 131.58C161.174 131.616 161.174 131.647 161.17 131.683C161.17 131.697 161.167 131.711 161.167 131.725L161.156 131.793C161.153 131.846 161.142 131.899 161.135 131.952C161.128 132.005 161.117 132.055 161.106 132.104C161.102 132.129 161.097 132.154 161.089 132.178C161.089 132.198 161.085 132.217 161.078 132.236C161.074 132.261 161.068 132.286 161.06 132.31C161.05 132.356 161.036 132.402 161.025 132.444C161.025 132.453 161.022 132.462 161.018 132.47C160.993 132.547 160.972 132.625 160.944 132.698C160.944 132.7 160.944 132.702 160.943 132.704C160.943 132.706 160.942 132.707 160.94 132.709C160.926 132.748 160.912 132.786 160.898 132.823C160.883 132.859 160.87 132.89 160.859 132.922C160.854 132.931 160.851 132.941 160.848 132.95C160.806 133.046 160.763 133.145 160.714 133.236C160.699 133.264 160.682 133.3 160.664 133.332C160.646 133.364 160.629 133.391 160.611 133.423C160.593 133.455 160.579 133.483 160.558 133.512C160.523 133.569 160.483 133.632 160.444 133.689C160.419 133.728 160.394 133.76 160.373 133.795C160.313 133.873 160.256 133.951 160.193 134.023C160.146 134.08 160.1 134.134 160.054 134.183C160.009 134.233 159.959 134.286 159.909 134.335C159.888 134.36 159.863 134.381 159.838 134.406C159.818 134.428 159.795 134.448 159.771 134.466C159.746 134.491 159.718 134.516 159.69 134.541C159.682 134.548 159.672 134.555 159.665 134.562C159.597 134.622 159.526 134.676 159.456 134.733C159.448 134.738 159.441 134.744 159.435 134.751C159.377 134.789 159.32 134.832 159.263 134.871C159.242 134.885 159.224 134.9 159.206 134.91C159.174 134.932 159.142 134.953 159.11 134.97C159.086 134.988 159.06 135.003 159.033 135.016C159.005 135.034 158.977 135.051 158.948 135.066C158.748 135.179 158.54 135.274 158.324 135.351C158.31 135.355 158.3 135.361 158.285 135.365C158.271 135.369 158.253 135.376 158.239 135.38C158.19 135.397 158.14 135.414 158.087 135.429C157.998 135.457 157.91 135.478 157.821 135.5L157.683 135.531C157.654 135.538 157.625 135.543 157.595 135.546L157.485 135.567C157.478 135.567 157.474 135.567 157.471 135.57L157.382 135.581C157.368 135.581 157.354 135.585 157.34 135.585L157.262 135.595C157.248 135.595 157.233 135.599 157.216 135.599L157.053 135.61C156.975 135.613 156.897 135.617 156.819 135.617H48.8231C48.7449 135.617 48.6672 135.613 48.589 135.61L48.4264 135.599C48.3657 135.595 48.3053 135.588 48.2454 135.578C48.2109 135.575 48.1766 135.57 48.1426 135.563C48.0582 135.553 47.9714 135.535 47.8915 135.517C47.8675 135.513 47.8438 135.507 47.8207 135.5C47.7322 135.478 47.6438 135.457 47.5553 135.429C47.5022 135.411 47.4525 135.397 47.4029 135.38C47.167 135.297 46.9379 135.197 46.7179 135.078L46.5586 134.983C46.4987 134.948 46.4382 134.908 46.3817 134.869C46.0323 134.633 45.7185 134.348 45.4501 134.022C45.3861 133.948 45.3259 133.87 45.2697 133.789C45.0739 133.519 44.911 133.226 44.7845 132.918C44.756 132.847 44.7274 132.769 44.6995 132.695C44.6715 132.62 44.6498 132.542 44.6253 132.466C44.6007 132.39 44.583 132.31 44.5682 132.232C44.5533 132.154 44.5362 132.087 44.522 132.013C44.5185 132.002 44.5185 131.988 44.5145 131.978C44.5043 131.907 44.4934 131.832 44.4866 131.761C44.4834 131.756 44.4822 131.75 44.4831 131.744C44.4757 131.686 44.4723 131.634 44.4689 131.577C44.458 131.467 44.4546 131.358 44.4546 131.245V70.1174C44.4538 69.472 44.5963 68.8345 44.872 68.2509C45.1476 67.6672 45.5494 67.1521 46.0483 66.7427C46.0571 66.7351 46.0665 66.728 46.0763 66.7216L46.3046 66.5504C47.0419 66.0256 47.9249 65.7446 48.8299 65.7467H156.818C156.922 65.7459 157.026 65.7507 157.13 65.7609C157.149 65.7587 157.168 65.7598 157.187 65.7644C157.285 65.7712 157.388 65.7821 157.484 65.7963L157.551 65.8066C157.636 65.8209 157.723 65.8386 157.803 65.8597C157.824 65.8631 157.845 65.8678 157.866 65.874C157.969 65.8991 158.068 65.927 158.167 65.959C158.267 65.991 158.355 66.0229 158.444 66.0583C158.571 66.1082 158.695 66.1654 158.815 66.2296C158.883 66.2616 158.949 66.297 159.014 66.3357C159.127 66.3992 159.236 66.4701 159.339 66.5481C159.343 66.5447 159.343 66.5481 159.343 66.5481L159.572 66.7193C159.581 66.7257 159.591 66.7328 159.599 66.7405C159.657 66.7861 159.713 66.8347 159.766 66.886C159.808 66.9214 159.848 66.9602 159.887 67.0002C160.008 67.1177 160.121 67.2432 160.226 67.3758C160.276 67.4329 160.322 67.4962 160.364 67.5562C160.55 67.809 160.705 68.0823 160.828 68.3707C160.864 68.4489 160.896 68.53 160.928 68.6116C160.928 68.615 160.931 68.6184 160.931 68.6224C160.979 68.7534 161.021 68.8867 161.055 69.022C161.073 69.0894 161.087 69.1533 161.101 69.2207C161.112 69.2737 161.122 69.3234 161.129 69.3765C161.136 69.4296 161.147 69.4827 161.154 69.5358C161.165 69.5991 161.172 69.6629 161.176 69.727C161.183 69.7809 161.186 69.8353 161.186 69.8897C161.188 69.9656 161.191 70.0432 161.191 70.1174Z" fill="#DFE5EA"/>
<path d="M160.93 68.6235H44.7111C44.9784 67.8878 45.4383 67.2373 46.0428 66.7398C46.0516 66.7321 46.061 66.7251 46.0708 66.7187L46.2991 66.5475L100.143 25.6769C100.913 25.0911 101.854 24.7739 102.822 24.7739C103.79 24.7739 104.731 25.0911 105.501 25.6769L159.34 66.5475C159.344 66.544 159.344 66.5475 159.344 66.5475L159.573 66.7187C159.583 66.7251 159.592 66.7321 159.601 66.7398C159.659 66.7855 159.714 66.8341 159.767 66.8854C159.81 66.9208 159.849 66.9596 159.888 66.9995C160.009 67.1171 160.123 67.2425 160.228 67.3751C160.277 67.4322 160.323 67.4956 160.366 67.5555C160.551 67.8084 160.707 68.0817 160.83 68.3701C160.865 68.4483 160.897 68.5293 160.929 68.611C160.926 68.6161 160.93 68.6195 160.93 68.6235Z" fill="#5B97EF"/>
<path d="M59.2189 32.583H144.981C147.057 32.583 149.049 33.4078 150.517 34.876C151.985 36.3442 152.81 38.3355 152.81 40.4118V132.437H51.3901V40.4135C51.3899 39.3853 51.5922 38.3671 51.9856 37.417C52.3789 36.467 52.9555 35.6038 53.6825 34.8766C54.4095 34.1495 55.2726 33.5726 56.2226 33.1791C57.1725 32.7856 58.1907 32.583 59.2189 32.583Z" fill="white"/>
<path d="M64.8386 50.0757H139.361C139.865 50.0757 140.348 50.2757 140.704 50.6318C141.06 50.9878 141.26 51.4707 141.26 51.9742V52.7814C141.26 53.2849 141.06 53.7678 140.704 54.1238C140.348 54.4799 139.865 54.6799 139.361 54.6799H64.8386C64.3353 54.6799 63.8525 54.4799 63.4966 54.124C63.1406 53.7681 62.9407 53.2853 62.9407 52.7819V51.9748C62.9405 51.7255 62.9895 51.4785 63.0848 51.2481C63.1801 51.0177 63.3199 50.8084 63.4962 50.632C63.6724 50.4556 63.8817 50.3157 64.1121 50.2203C64.3424 50.1248 64.5893 50.0757 64.8386 50.0757Z" fill="#E4ECF9"/>
<path d="M64.8386 59.9106H139.361C139.611 59.9106 139.857 59.9596 140.088 60.0549C140.318 60.1503 140.528 60.2901 140.704 60.4663C140.88 60.6426 141.02 60.8518 141.116 61.0821C141.211 61.3124 141.26 61.5593 141.26 61.8086V62.6158C141.26 62.8651 141.211 63.112 141.116 63.3423C141.02 63.5726 140.881 63.7819 140.704 63.9582C140.528 64.1345 140.319 64.2744 140.088 64.3698C139.858 64.4652 139.611 64.5143 139.362 64.5143H64.8386C64.3353 64.5143 63.8525 64.3143 63.4966 63.9584C63.1406 63.6024 62.9407 63.1197 62.9407 62.6163V61.8086C62.9407 61.3052 63.1406 60.8225 63.4966 60.4665C63.8525 60.1106 64.3353 59.9106 64.8386 59.9106Z" fill="#E4ECF9"/>
<path d="M64.8386 69.7427H139.361C139.611 69.7426 139.858 69.7917 140.089 69.8872C140.319 69.9828 140.529 70.1228 140.705 70.2993C140.881 70.4759 141.021 70.6855 141.116 70.9161C141.212 71.1468 141.261 71.3939 141.26 71.6435V72.4506C141.26 72.954 141.06 73.4368 140.704 73.7927C140.349 74.1486 139.866 74.3486 139.362 74.3486H64.8386C64.3353 74.3486 63.8525 74.1486 63.4966 73.7927C63.1406 73.4368 62.9407 72.954 62.9407 72.4506V71.6435C62.9403 71.394 62.9891 71.1469 63.0843 70.9163C63.1795 70.6857 63.3193 70.4761 63.4956 70.2996C63.6719 70.123 63.8812 69.983 64.1117 69.8874C64.3421 69.7919 64.5892 69.7427 64.8386 69.7427Z" fill="#E4ECF9"/>
<path d="M64.8386 79.5806H139.361C139.611 79.5806 139.857 79.6297 140.088 79.7251C140.318 79.8205 140.527 79.9603 140.704 80.1366C140.88 80.3129 141.02 80.5222 141.115 80.7526C141.211 80.9829 141.26 81.2298 141.26 81.4791V82.2862C141.26 82.7896 141.06 83.2724 140.704 83.6283C140.348 83.9842 139.865 84.1842 139.362 84.1842H64.8386C64.3353 84.1842 63.8525 83.9842 63.4966 83.6283C63.1406 83.2724 62.9407 82.7896 62.9407 82.2862V81.4791C62.9407 80.9757 63.1406 80.4929 63.4965 80.1368C63.8525 79.7808 64.3352 79.5807 64.8386 79.5806Z" fill="#E4ECF9"/>
<path d="M64.8386 89.4155H139.361C139.611 89.4155 139.857 89.4646 140.088 89.5601C140.318 89.6555 140.527 89.7953 140.704 89.9716C140.88 90.1479 141.02 90.3572 141.115 90.5875C141.211 90.8179 141.26 91.0647 141.26 91.3141V92.1195C141.26 92.6229 141.06 93.1056 140.704 93.4616C140.348 93.8175 139.865 94.0175 139.362 94.0175H64.8386C64.3353 94.0175 63.8525 93.8175 63.4966 93.4616C63.1406 93.1056 62.9407 92.6229 62.9407 92.1195V91.3124C62.941 90.8092 63.1411 90.3267 63.497 89.971C63.8529 89.6153 64.3355 89.4155 64.8386 89.4155Z" fill="#E4ECF9"/>
<path d="M102.822 102.321V102.325C102.645 102.517 102.443 102.683 102.22 102.821L49.0634 135.619H48.8231C48.3934 135.62 47.966 135.557 47.5553 135.431C47.4982 135.413 47.4411 135.396 47.3886 135.378C46.6966 135.139 46.0764 134.728 45.586 134.185C45.5403 134.135 45.4941 134.082 45.4478 134.025C45.3135 133.863 45.1915 133.691 45.0831 133.511C45.0443 133.451 45.0123 133.391 44.9769 133.331C44.9415 133.271 44.9095 133.203 44.8816 133.139C44.5965 132.548 44.4488 131.901 44.4495 131.245V70.1174C44.4487 69.4719 44.5912 68.8344 44.8668 68.2508C45.1424 67.6672 45.5442 67.1521 46.0432 66.7427C46.052 66.735 46.0614 66.7279 46.0712 66.7215L46.2995 66.5503C47.0368 66.0256 47.9198 65.7445 48.8248 65.7466H49.8232L54.4907 68.6258L97.5156 95.174L99.1339 96.1718L102.222 98.0772C102.444 98.2142 102.647 98.3809 102.824 98.5726V98.5761C103.287 99.0901 103.543 99.7573 103.543 100.449C103.542 101.141 103.286 101.808 102.822 102.321Z" fill="#3B82F4"/>
<path d="M161.192 70.1175V131.246C161.192 131.32 161.188 131.394 161.185 131.474C161.185 131.51 161.181 131.545 161.177 131.58C161.174 131.616 161.174 131.647 161.17 131.683C161.17 131.697 161.167 131.711 161.167 131.725L161.156 131.793C161.153 131.846 161.142 131.899 161.135 131.952C161.128 132.005 161.117 132.055 161.107 132.104C161.107 132.111 161.103 132.122 161.103 132.129C161.1 132.146 161.095 132.162 161.089 132.179C161.089 132.198 161.085 132.217 161.078 132.236C161.074 132.261 161.068 132.286 161.06 132.31C161.05 132.356 161.039 132.399 161.025 132.445C161.025 132.453 161.022 132.462 161.018 132.47C160.997 132.547 160.972 132.626 160.944 132.698C160.944 132.7 160.944 132.702 160.943 132.704C160.943 132.706 160.942 132.707 160.94 132.709C160.926 132.748 160.915 132.783 160.898 132.823C160.88 132.863 160.873 132.887 160.859 132.922C160.855 132.931 160.851 132.941 160.848 132.95C160.806 133.046 160.763 133.146 160.714 133.236C160.7 133.264 160.682 133.3 160.664 133.332C160.646 133.364 160.629 133.392 160.611 133.424C160.593 133.455 160.579 133.483 160.558 133.512C160.523 133.569 160.483 133.632 160.444 133.689C160.419 133.728 160.394 133.76 160.373 133.795C160.313 133.877 160.253 133.951 160.193 134.023C160.146 134.081 160.1 134.134 160.054 134.183C160.009 134.233 159.959 134.286 159.909 134.335C159.888 134.36 159.863 134.381 159.838 134.406C159.818 134.428 159.795 134.448 159.771 134.466C159.746 134.491 159.718 134.516 159.69 134.541C159.682 134.548 159.672 134.555 159.665 134.562C159.597 134.622 159.526 134.676 159.456 134.733C159.448 134.738 159.441 134.744 159.435 134.751C159.377 134.789 159.32 134.832 159.263 134.871C159.242 134.885 159.225 134.9 159.206 134.91C159.174 134.932 159.142 134.953 159.11 134.97C159.086 134.988 159.06 135.003 159.033 135.016C159.005 135.034 158.977 135.051 158.948 135.066C158.749 135.179 158.54 135.274 158.324 135.351C158.311 135.355 158.298 135.36 158.286 135.365C158.271 135.369 158.254 135.376 158.239 135.38C158.19 135.397 158.14 135.415 158.087 135.429C157.998 135.457 157.91 135.478 157.821 135.5L157.683 135.532C157.654 135.538 157.625 135.543 157.595 135.546L157.485 135.567H157.472C157.44 135.57 157.408 135.578 157.38 135.581C157.365 135.581 157.351 135.585 157.337 135.585L157.259 135.595C157.245 135.595 157.231 135.599 157.213 135.599L157.05 135.61C156.972 135.613 156.894 135.617 156.816 135.617H156.576L103.421 102.821C103.199 102.685 102.998 102.518 102.823 102.325V102.321C102.357 101.808 102.1 101.14 102.1 100.448C102.1 99.7554 102.357 99.0876 102.823 98.5745V98.5694C102.998 98.3768 103.199 98.21 103.421 98.0739L106.503 96.1685L108.122 95.1701L151.151 68.622L155.818 65.7428H156.816C156.92 65.742 157.024 65.7468 157.128 65.757C157.147 65.7548 157.166 65.7559 157.185 65.7604C157.284 65.7673 157.386 65.7781 157.482 65.7924L157.55 65.8027C157.634 65.817 157.721 65.8347 157.801 65.8558C157.822 65.8592 157.844 65.8639 157.865 65.87C157.968 65.8952 158.066 65.9231 158.166 65.9551C158.265 65.9871 158.353 66.019 158.442 66.0544C158.569 66.1043 158.693 66.1615 158.814 66.2257C158.882 66.2577 158.948 66.2931 159.012 66.3318C159.125 66.3953 159.234 66.4662 159.338 66.5442C159.342 66.5408 159.342 66.5442 159.342 66.5442L159.57 66.7154C159.58 66.7218 159.589 66.7289 159.598 66.7365C159.656 66.7822 159.711 66.8308 159.765 66.8821C159.807 66.9175 159.846 66.9563 159.885 66.9963C160.006 67.1138 160.12 67.2393 160.225 67.3719C160.274 67.4289 160.32 67.4923 160.363 67.5522C160.548 67.8051 160.704 68.0784 160.827 68.3668C160.862 68.445 160.894 68.5261 160.926 68.6077C160.926 68.6111 160.93 68.6145 160.93 68.6185C160.978 68.7495 161.019 68.8828 161.053 69.0181C161.071 69.0855 161.085 69.1494 161.1 69.2168C161.11 69.2698 161.121 69.3195 161.128 69.3726C161.134 69.4257 161.145 69.4788 161.153 69.5318C161.163 69.5952 161.17 69.659 161.174 69.7231C161.181 69.777 161.185 69.8313 161.185 69.8858C161.188 69.9657 161.192 70.0433 161.192 70.1175Z" fill="#3B82F4"/>
<path opacity="0.29" d="M161.192 130.421V131.057C161.192 133.578 159.233 135.624 156.818 135.624H48.8231C46.4079 135.624 44.4495 133.579 44.4495 131.057V130.421L99.9964 93.875C100.833 93.32 101.815 93.0239 102.819 93.0239C103.823 93.0239 104.805 93.32 105.641 93.875L161.192 130.421Z" fill="#474747"/>
<path d="M161.192 130.637V131.246C161.191 132.406 160.731 133.518 159.91 134.338C159.09 135.158 157.978 135.619 156.818 135.619H48.8231C47.6632 135.619 46.5509 135.158 45.7307 134.338C44.9105 133.518 44.4496 132.406 44.4495 131.246V130.637L99.9964 95.6251C100.841 95.0923 101.82 94.8096 102.819 94.8096C103.818 94.8096 104.796 95.0923 105.641 95.6251L161.192 130.637Z" fill="#5B97EF"/>
<path d="M64.8386 40.2417H97.3393C97.8429 40.2417 98.3258 40.4417 98.6818 40.7978C99.0378 41.1538 99.2379 41.6367 99.2379 42.1402V42.9474C99.2379 43.4509 99.0378 43.9338 98.6818 44.2898C98.3258 44.6459 97.8429 44.8459 97.3393 44.8459H64.8386C64.3353 44.8459 63.8525 44.646 63.4966 44.29C63.1406 43.9341 62.9407 43.4513 62.9407 42.9479V42.1408C62.9405 41.8915 62.9895 41.6445 63.0848 41.4141C63.1801 41.1837 63.3199 40.9744 63.4962 40.798C63.6724 40.6216 63.8817 40.4817 64.1121 40.3863C64.3424 40.2908 64.5893 40.2417 64.8386 40.2417Z" fill="#3B82F4"/>
<path d="M59.5147 127.205H59.4855C58.1904 127.154 56.8872 127.042 55.612 126.873C55.5187 126.861 55.4287 126.83 55.3473 126.783C55.2658 126.736 55.1944 126.673 55.1372 126.598C55.0799 126.524 55.0379 126.439 55.0136 126.348C54.9893 126.257 54.9832 126.162 54.9955 126.069C55.0078 125.975 55.0384 125.885 55.0855 125.804C55.1326 125.722 55.1953 125.651 55.27 125.594C55.3446 125.537 55.4299 125.495 55.5208 125.47C55.6117 125.446 55.7065 125.44 55.7998 125.452C57.0322 125.615 58.2914 125.723 59.5426 125.773C59.7301 125.78 59.9072 125.861 60.0358 125.998C60.1645 126.134 60.2345 126.316 60.2308 126.503C60.2272 126.691 60.1501 126.87 60.0162 127.001C59.8824 127.132 59.7023 127.206 59.5147 127.206V127.205ZM63.3346 127.187C63.1484 127.185 62.9701 127.112 62.8374 126.981C62.7047 126.85 62.6281 126.673 62.6236 126.487C62.6192 126.301 62.6873 126.12 62.8136 125.984C62.9399 125.847 63.1144 125.765 63.3003 125.754C64.5361 125.697 65.7965 125.579 67.046 125.412C67.2319 125.392 67.4183 125.445 67.5654 125.56C67.7125 125.676 67.8087 125.844 67.8335 126.029C67.8583 126.215 67.8097 126.402 67.6981 126.552C67.5865 126.702 67.4207 126.803 67.2361 126.832C65.9461 127.004 64.6457 127.124 63.37 127.186L63.3346 127.187ZM51.9456 126.197C51.8914 126.197 51.8374 126.191 51.7846 126.179C50.5288 125.89 49.2673 125.537 48.0389 125.13C47.8585 125.07 47.7093 124.941 47.6241 124.771C47.5389 124.601 47.5247 124.404 47.5846 124.224C47.6444 124.043 47.7735 123.894 47.9434 123.809C48.1133 123.724 48.3101 123.71 48.4904 123.769C49.676 124.163 50.8924 124.503 52.1054 124.782C52.2774 124.821 52.429 124.922 52.5312 125.066C52.6333 125.209 52.6789 125.386 52.6591 125.561C52.6393 125.736 52.5555 125.898 52.4239 126.015C52.2922 126.133 52.122 126.197 51.9456 126.197ZM70.9059 126.183C70.7286 126.183 70.5575 126.118 70.4256 125.999C70.2936 125.881 70.2103 125.718 70.1917 125.542C70.1731 125.365 70.2205 125.188 70.3248 125.045C70.4291 124.902 70.5829 124.802 70.7564 124.765C71.9716 124.505 73.2006 124.191 74.4096 123.835C74.5005 123.806 74.5963 123.796 74.6913 123.804C74.7864 123.813 74.8787 123.84 74.963 123.885C75.0472 123.93 75.1217 123.991 75.182 124.065C75.2424 124.139 75.2873 124.224 75.3143 124.316C75.3413 124.407 75.3497 124.503 75.3391 124.598C75.3285 124.693 75.2991 124.785 75.2526 124.868C75.2061 124.951 75.1434 125.024 75.0682 125.083C74.9931 125.142 74.9069 125.185 74.8149 125.21C73.5722 125.577 72.3084 125.898 71.0577 126.167C71.0079 126.178 70.957 126.183 70.9059 126.183V126.183ZM78.2392 124.031C78.0714 124.031 77.9089 123.971 77.7802 123.864C77.6515 123.756 77.5647 123.606 77.5349 123.441C77.505 123.276 77.5341 123.106 77.6171 122.96C77.7 122.814 77.8315 122.702 77.9886 122.643C79.1594 122.206 80.3335 121.722 81.4786 121.203C81.5643 121.164 81.6568 121.143 81.7509 121.14C81.8449 121.136 81.9387 121.152 82.0268 121.185C82.1148 121.218 82.1955 121.268 82.2642 121.333C82.3328 121.397 82.3882 121.474 82.427 121.56C82.4658 121.646 82.4874 121.738 82.4905 121.832C82.4936 121.926 82.4781 122.02 82.4449 122.108C82.4118 122.196 82.3616 122.277 82.2973 122.346C82.2329 122.414 82.1557 122.47 82.07 122.508C80.8958 123.04 79.6908 123.536 78.4892 123.986C78.4101 124.015 78.3265 124.031 78.2421 124.031L78.2392 124.031ZM44.6917 123.802C44.5948 123.803 44.4988 123.783 44.4097 123.745C43.2498 123.248 42.0693 122.691 40.9054 122.09C40.7366 122.003 40.6094 121.852 40.5517 121.671C40.4941 121.49 40.5108 121.293 40.598 121.124C40.6853 120.956 40.8361 120.828 41.0171 120.771C41.1982 120.713 41.3948 120.73 41.5636 120.817C42.6983 121.403 43.8468 121.946 44.9742 122.43C45.1261 122.495 45.2507 122.611 45.3271 122.757C45.4034 122.904 45.4268 123.072 45.3932 123.234C45.3596 123.396 45.2712 123.541 45.1428 123.645C45.0145 123.749 44.8541 123.806 44.6888 123.805L44.6917 123.802ZM85.2015 120.873C85.0418 120.873 84.8865 120.82 84.7603 120.723C84.6342 120.625 84.5443 120.487 84.505 120.333C84.4656 120.178 84.4791 120.014 84.5432 119.868C84.6074 119.722 84.7185 119.601 84.859 119.525C85.8665 118.981 86.8255 118.418 87.7091 117.853C87.8693 117.753 88.0626 117.72 88.247 117.761C88.4313 117.803 88.5918 117.915 88.6935 118.075C88.7953 118.234 88.83 118.427 88.7901 118.612C88.7503 118.797 88.6392 118.958 88.4808 119.061C87.5675 119.645 86.5789 120.225 85.5406 120.786C85.4367 120.844 85.3201 120.874 85.2015 120.875V120.873ZM37.8983 120.297C37.7672 120.297 37.6387 120.26 37.5267 120.192C36.4165 119.519 35.3262 118.804 34.2856 118.071C34.1347 117.96 34.0333 117.794 34.0034 117.608C33.9734 117.423 34.0172 117.234 34.1253 117.08C34.2335 116.927 34.3973 116.822 34.5818 116.789C34.7663 116.755 34.9567 116.795 35.1122 116.9C36.126 117.615 37.1882 118.31 38.2705 118.967C38.4044 119.048 38.508 119.17 38.5655 119.316C38.6231 119.462 38.6314 119.622 38.5892 119.773C38.547 119.924 38.4567 120.056 38.3319 120.151C38.2072 120.245 38.0549 120.297 37.8983 120.297ZM31.6547 115.882C31.4881 115.882 31.3265 115.824 31.1981 115.718C30.2277 114.919 29.2955 114.087 28.4285 113.247C28.3582 113.197 28.2974 113.136 28.2487 113.065C28.1428 112.934 28.0866 112.769 28.0899 112.601C28.0933 112.432 28.1559 112.27 28.2669 112.143C28.3778 112.016 28.53 111.932 28.6966 111.906C28.8633 111.88 29.0337 111.914 29.178 112.001C30.335 112.261 31.5054 112.456 32.6839 112.587C32.8732 112.608 33.0463 112.703 33.1654 112.852C33.2844 113 33.3396 113.19 33.3187 113.379C33.2978 113.569 33.2026 113.742 33.054 113.861C32.9054 113.98 32.7156 114.035 32.5264 114.014C32.0834 113.965 31.6393 113.907 31.1941 113.839C31.4943 114.1 31.7988 114.359 32.1074 114.614C32.2213 114.708 32.3035 114.835 32.3426 114.977C32.3817 115.12 32.3759 115.271 32.3259 115.41C32.2759 115.549 32.1843 115.669 32.0634 115.754C31.9426 115.839 31.7984 115.884 31.6507 115.884L31.6547 115.882ZM36.4211 114.212C36.2309 114.212 36.0482 114.138 35.9132 114.004C35.7781 113.87 35.7018 113.688 35.701 113.498C35.7001 113.308 35.7749 113.125 35.9087 112.99C36.0426 112.855 36.2246 112.779 36.4148 112.778C37.4131 112.769 38.4212 112.711 39.4122 112.606C39.6154 112.585 39.8545 112.559 40.1542 112.524C40.3429 112.501 40.5329 112.554 40.6824 112.672C40.8319 112.789 40.9287 112.961 40.9514 113.15C40.9741 113.338 40.9209 113.528 40.8035 113.678C40.6861 113.827 40.5142 113.924 40.3255 113.947C40.0218 113.983 39.7763 114.01 39.5977 114.029C38.5321 114.143 37.4767 114.204 36.4313 114.212L36.4211 114.212ZM44.0129 113.326C43.8354 113.326 43.6641 113.261 43.5321 113.142C43.4002 113.023 43.317 112.86 43.2987 112.683C43.2805 112.506 43.3284 112.329 43.4333 112.186C43.5381 112.043 43.6924 111.944 43.8662 111.908C45.1146 111.645 46.3402 111.329 47.5086 110.968C47.5992 110.938 47.6948 110.927 47.7899 110.934C47.8849 110.942 47.9776 110.968 48.0623 111.012C48.147 111.056 48.2222 111.116 48.2834 111.189C48.3446 111.262 48.3906 111.347 48.4187 111.438C48.4468 111.529 48.4564 111.625 48.4471 111.72C48.4377 111.814 48.4094 111.907 48.364 111.99C48.3186 112.074 48.2569 112.148 48.1826 112.208C48.1082 112.268 48.0227 112.312 47.931 112.338C46.7209 112.711 45.4525 113.039 44.1636 113.309C44.115 113.32 44.0652 113.326 44.0152 113.327L44.0129 113.326ZM25.1697 112.312C25.0887 112.312 25.0084 112.298 24.9322 112.271C23.7054 111.839 22.503 111.341 21.3303 110.778C21.1631 110.693 21.0357 110.547 20.9755 110.369C20.9152 110.191 20.9269 109.997 21.0081 109.828C21.0892 109.659 21.2334 109.529 21.4096 109.465C21.5858 109.401 21.7801 109.408 21.9508 109.486C23.0761 110.026 24.2302 110.504 25.4077 110.919C25.5674 110.975 25.7021 111.085 25.788 111.231C25.8738 111.377 25.9053 111.549 25.8768 111.716C25.8483 111.883 25.7616 112.034 25.6322 112.143C25.5028 112.252 25.3389 112.312 25.1697 112.312ZM51.3131 111.056C51.1479 111.057 50.9875 111 50.8591 110.896C50.7308 110.792 50.6423 110.647 50.6087 110.485C50.5752 110.323 50.5985 110.155 50.6749 110.008C50.7512 109.861 50.8759 109.746 51.0277 109.68C52.1721 109.192 53.2835 108.629 54.355 107.996C54.436 107.946 54.5263 107.912 54.6205 107.897C54.7147 107.881 54.811 107.885 54.9037 107.908C54.9964 107.93 55.0837 107.971 55.1604 108.028C55.2371 108.085 55.3017 108.156 55.3505 108.238C55.3992 108.32 55.4311 108.411 55.4442 108.506C55.4574 108.6 55.4515 108.696 55.427 108.789C55.4025 108.881 55.3599 108.967 55.3016 109.043C55.2432 109.118 55.1704 109.181 55.0874 109.228C53.9625 109.893 52.7956 110.484 51.594 110.998C51.5061 111.036 51.4114 111.057 51.3154 111.058L51.3131 111.056ZM26.204 110.534C26.0993 110.534 25.9959 110.511 25.9011 110.467C25.8062 110.423 25.7222 110.358 25.6549 110.278C24.8151 109.282 24.035 108.237 23.3185 107.148C23.264 107.07 23.2259 106.981 23.2062 106.887C23.1866 106.794 23.1859 106.697 23.2042 106.603C23.2225 106.509 23.2594 106.42 23.3128 106.34C23.3661 106.261 23.4348 106.193 23.5148 106.141C23.5948 106.088 23.6845 106.052 23.7786 106.035C23.8727 106.018 23.9693 106.019 24.0627 106.04C24.1562 106.061 24.2445 106.1 24.3226 106.155C24.4006 106.211 24.4668 106.281 24.5172 106.362C25.2034 107.404 25.9504 108.404 26.7543 109.358C26.8421 109.462 26.8983 109.59 26.9163 109.725C26.9342 109.86 26.9132 109.998 26.8556 110.121C26.798 110.245 26.7064 110.35 26.5913 110.423C26.4763 110.497 26.3427 110.535 26.2063 110.536L26.204 110.534ZM18.2907 109.015C18.1579 109.016 18.0276 108.979 17.9146 108.909C16.8094 108.223 15.7411 107.48 14.714 106.683C14.5639 106.566 14.4662 106.395 14.4425 106.206C14.4188 106.017 14.471 105.827 14.5876 105.677C14.7041 105.527 14.8755 105.429 15.0641 105.406C15.2527 105.382 15.4429 105.434 15.593 105.551C16.5802 106.316 17.6068 107.029 18.6686 107.687C18.8014 107.769 18.9038 107.892 18.9603 108.037C19.0167 108.183 19.0241 108.342 18.9813 108.493C18.9386 108.643 18.848 108.775 18.7233 108.868C18.5987 108.962 18.4468 109.013 18.2907 109.013V109.015ZM57.8484 107.132C57.7014 107.132 57.558 107.086 57.4376 107.002C57.3172 106.918 57.2256 106.798 57.1752 106.66C57.1249 106.522 57.1182 106.372 57.1562 106.23C57.1941 106.088 57.2747 105.961 57.3872 105.866C58.3296 105.079 59.1928 104.202 59.9645 103.247C60.0235 103.173 60.0963 103.112 60.1789 103.067C60.2615 103.022 60.3522 102.993 60.4458 102.983C60.5394 102.973 60.6341 102.981 60.7245 103.008C60.8149 103.034 60.8991 103.078 60.9725 103.137C61.0459 103.196 61.107 103.269 61.1522 103.352C61.1974 103.434 61.2259 103.525 61.2361 103.618C61.2463 103.712 61.2379 103.807 61.2115 103.897C61.1851 103.988 61.1411 104.072 61.0821 104.145C60.2515 105.173 59.3228 106.117 58.3091 106.964C58.1795 107.073 58.0151 107.133 57.8456 107.132H57.8484ZM12.2635 104.335C12.078 104.335 11.8996 104.263 11.7663 104.134C10.8293 103.233 9.94171 102.282 9.10741 101.284C9.04707 101.212 9.00153 101.129 8.97341 101.039C8.94528 100.949 8.93512 100.855 8.94349 100.761C8.95187 100.667 8.97862 100.576 9.02222 100.493C9.06582 100.409 9.12541 100.335 9.1976 100.275C9.26979 100.215 9.35316 100.169 9.44294 100.141C9.53273 100.113 9.62717 100.103 9.72088 100.111C9.8146 100.12 9.90574 100.146 9.98912 100.19C10.0725 100.233 10.1465 100.293 10.2068 100.365C11.0083 101.322 11.8606 102.236 12.7601 103.102C12.8631 103.201 12.9342 103.328 12.9642 103.468C12.9942 103.608 12.9817 103.753 12.9283 103.886C12.8749 104.019 12.783 104.132 12.6646 104.212C12.5461 104.292 12.4064 104.335 12.2635 104.335ZM22.0559 104.14C21.9192 104.14 21.7854 104.101 21.6701 104.027C21.5548 103.954 21.4629 103.849 21.4051 103.725C20.848 102.533 20.3944 101.296 20.0494 100.026C20.0027 99.8434 20.0299 99.6495 20.1251 99.4866C20.2203 99.3237 20.3759 99.205 20.5582 99.1561C20.7404 99.1072 20.9346 99.1321 21.0986 99.2254C21.2626 99.3187 21.3832 99.4729 21.4342 99.6546C21.7572 100.844 22.1823 102.004 22.7049 103.12C22.7559 103.229 22.7785 103.349 22.7706 103.47C22.7628 103.59 22.7248 103.706 22.6601 103.808C22.5954 103.909 22.5061 103.993 22.4005 104.051C22.2949 104.109 22.1763 104.14 22.0559 104.14ZM62.5731 101.199C62.4512 101.199 62.3313 101.168 62.2248 101.108C62.1182 101.049 62.0286 100.964 61.9643 100.86C61.9 100.757 61.8632 100.638 61.8573 100.517C61.8515 100.395 61.8768 100.274 61.9309 100.164C62.4391 99.1299 62.8407 98.0464 63.1297 96.9307L63.181 96.728C63.2271 96.5436 63.3446 96.3851 63.5076 96.2873C63.6706 96.1895 63.8657 96.1605 64.0501 96.2066C64.2345 96.2527 64.393 96.3701 64.4908 96.5331C64.5886 96.6961 64.6176 96.8913 64.5715 97.0756L64.5145 97.292C64.2001 98.5023 63.7633 99.6774 63.2107 100.799C63.1522 100.919 63.0616 101.02 62.949 101.091C62.8364 101.162 62.7062 101.2 62.5731 101.201V101.199ZM7.37498 98.4804C7.25653 98.4806 7.1399 98.4513 7.03558 98.3952C6.93126 98.3391 6.84252 98.258 6.77733 98.1591C6.05826 97.0748 5.4017 95.9504 4.81086 94.7912C4.72465 94.6219 4.70923 94.4252 4.768 94.2445C4.82677 94.0639 4.95491 93.9139 5.12424 93.8277C5.29357 93.7415 5.49022 93.726 5.67092 93.7848C5.85162 93.8436 6.00157 93.9717 6.08778 94.1411C6.6542 95.2521 7.28311 96.3302 7.97148 97.3702C8.04292 97.4782 8.08379 97.6035 8.08974 97.7328C8.09568 97.8622 8.06649 97.9907 8.00526 98.1048C7.94403 98.2189 7.85305 98.3143 7.74198 98.3808C7.63091 98.4473 7.50389 98.4826 7.37441 98.4827L7.37498 98.4804ZM20.1156 96.7999C19.9337 96.7997 19.7587 96.7304 19.626 96.606C19.4933 96.4815 19.4129 96.3113 19.401 96.1298C19.3747 95.7217 19.3616 95.3067 19.3616 94.8968C19.3621 93.9844 19.4271 93.0732 19.5562 92.17C19.5679 92.0754 19.5983 91.984 19.6458 91.9013C19.6932 91.8186 19.7566 91.7461 19.8324 91.6882C19.9081 91.6303 19.9946 91.5881 20.0869 91.564C20.1792 91.54 20.2753 91.5346 20.3697 91.5481C20.4641 91.5617 20.5548 91.5939 20.6366 91.643C20.7184 91.692 20.7895 91.7569 20.8459 91.8338C20.9023 91.9107 20.9428 91.998 20.965 92.0908C20.9872 92.1835 20.9907 92.2797 20.9753 92.3738C20.8555 93.2095 20.7952 94.0526 20.7949 94.8968C20.7949 95.2764 20.8069 95.66 20.8314 96.0385C20.8376 96.1324 20.8251 96.2266 20.7948 96.3157C20.7645 96.4049 20.7169 96.4871 20.6548 96.5579C20.5926 96.6286 20.5172 96.6863 20.4327 96.7279C20.3482 96.7694 20.2564 96.7939 20.1625 96.7999C20.147 96.7999 20.1328 96.7999 20.1156 96.7999ZM64.4203 93.8419H64.3883C64.2943 93.8379 64.2019 93.8154 64.1166 93.7756C64.0312 93.7359 63.9546 93.6797 63.8909 93.6103C63.8273 93.5409 63.778 93.4597 63.7458 93.3712C63.7136 93.2828 63.6992 93.1888 63.7033 93.0948C63.7153 92.8179 63.7216 92.5416 63.721 92.2642C63.7201 91.3111 63.6519 90.3593 63.5167 89.4158C63.5006 89.3214 63.5036 89.2247 63.5255 89.1315C63.5475 89.0382 63.5879 88.9503 63.6443 88.8729C63.7008 88.7956 63.7722 88.7303 63.8543 88.681C63.9364 88.6316 64.0276 88.5993 64.1224 88.5858C64.2172 88.5723 64.3138 88.5779 64.4064 88.6024C64.499 88.6268 64.5858 88.6695 64.6616 88.7281C64.7374 88.7866 64.8007 88.8598 64.8478 88.9432C64.8949 89.0266 64.9248 89.1186 64.9357 89.2138C65.0805 90.224 65.1535 91.2431 65.1543 92.2636C65.1543 92.5616 65.1481 92.8594 65.1355 93.157C65.1276 93.3414 65.0488 93.5156 64.9155 93.6433C64.7822 93.771 64.6048 93.8424 64.4203 93.8425V93.8419ZM3.91354 91.6848C3.76745 91.6848 3.62484 91.6402 3.50479 91.557C3.38473 91.4737 3.29294 91.3558 3.24169 91.219C2.78663 90.0002 2.39921 88.7572 2.08121 87.4956C2.05824 87.4043 2.05346 87.3094 2.06716 87.2163C2.08086 87.1232 2.11276 87.0337 2.16105 86.9529C2.20934 86.8722 2.27306 86.8017 2.34859 86.7455C2.42412 86.6894 2.50996 86.6486 2.60123 86.6257C2.69249 86.6027 2.78739 86.5979 2.8805 86.6116C2.97361 86.6253 3.06311 86.6572 3.14389 86.7055C3.22467 86.7538 3.29515 86.8175 3.3513 86.893C3.40745 86.9686 3.44818 87.0544 3.47115 87.1457C3.77527 88.3562 4.14611 89.5489 4.58197 90.7184C4.62313 90.827 4.6373 90.9439 4.62324 91.0592C4.60919 91.1744 4.56733 91.2845 4.50128 91.38C4.43523 91.4755 4.34697 91.5535 4.24408 91.6073C4.1412 91.6611 4.02678 91.6891 3.91068 91.6888L3.91354 91.6848ZM21.1699 89.2788C21.0923 89.2787 21.0151 89.2658 20.9416 89.2406C20.7616 89.1794 20.6133 89.0492 20.5293 88.8787C20.4453 88.7082 20.4324 88.5113 20.4935 88.3313C20.9186 87.0906 21.4368 85.8839 22.0439 84.7214C22.0857 84.6352 22.1445 84.5582 22.2166 84.4951C22.2887 84.432 22.3728 84.3839 22.4638 84.3539C22.5548 84.3238 22.6509 84.3122 22.7464 84.3199C22.842 84.3277 22.935 84.3544 23.02 84.3987C23.105 84.443 23.1803 84.5039 23.2414 84.5778C23.3024 84.6516 23.3481 84.737 23.3756 84.8288C23.4031 84.9206 23.4119 85.017 23.4015 85.1123C23.3911 85.2076 23.3617 85.2998 23.3151 85.3836C22.7418 86.4813 22.2523 87.6209 21.8509 88.7925C21.8026 88.9352 21.7105 89.0591 21.5877 89.1465C21.465 89.2339 21.3178 89.2804 21.1671 89.2794L21.1699 89.2788ZM63.3671 86.3106C63.2155 86.3106 63.0678 86.2624 62.9453 86.1731C62.8228 86.0837 62.7319 85.9578 62.6856 85.8134C62.3052 84.637 61.831 83.493 61.2676 82.3925C61.2229 82.3085 61.1954 82.2165 61.1866 82.1217C61.1778 82.027 61.1879 81.9315 61.2164 81.8407C61.2449 81.7499 61.2912 81.6657 61.3526 81.593C61.414 81.5203 61.4892 81.4605 61.5739 81.4172C61.6586 81.3739 61.7511 81.3478 61.8459 81.3406C61.9408 81.3334 62.0362 81.3451 62.1265 81.3751C62.2168 81.4051 62.3002 81.4527 62.3719 81.5153C62.4435 81.5779 62.5021 81.6541 62.544 81.7395C63.1424 82.9087 63.646 84.124 64.0498 85.3739C64.0848 85.4816 64.0937 85.5961 64.0757 85.708C64.0578 85.8199 64.0136 85.9259 63.9467 86.0173C63.8799 86.1088 63.7923 86.183 63.6911 86.234C63.5899 86.285 63.4781 86.3112 63.3648 86.3106H63.3671ZM2.04182 84.287C1.86936 84.2869 1.70273 84.2246 1.57257 84.1114C1.44242 83.9982 1.3575 83.8419 1.33344 83.6711C1.15363 82.4016 1.03604 81.0967 0.983528 79.793C0.976473 79.6033 1.04493 79.4185 1.17388 79.2793C1.30284 79.14 1.48177 79.0575 1.67144 79.05C1.8611 79.0424 2.04603 79.1104 2.18566 79.2389C2.32529 79.3675 2.40822 79.5462 2.41628 79.7359C2.46588 80.9853 2.57809 82.2314 2.75249 83.4696C2.77904 83.6578 2.7298 83.8488 2.6156 84.0007C2.5014 84.1526 2.33157 84.2529 2.14343 84.2796C2.10979 84.2846 2.07583 84.2871 2.04182 84.287ZM24.6634 82.5072C24.5322 82.5071 24.4035 82.471 24.2914 82.4028C24.1793 82.3346 24.0881 82.2369 24.0278 82.1204C23.9674 82.004 23.9402 81.8731 23.9491 81.7422C23.958 81.6113 24.0027 81.4854 24.0783 81.3781C24.83 80.3109 25.6487 79.2924 26.5294 78.3288C26.6588 78.1934 26.8361 78.114 27.0234 78.1077C27.2106 78.1013 27.3929 78.1686 27.5312 78.2949C27.6695 78.4213 27.7529 78.5968 27.7634 78.7839C27.774 78.9709 27.7109 79.1547 27.5877 79.2958C26.7482 80.2148 25.9675 81.1858 25.2502 82.203C25.184 82.2971 25.0962 82.374 24.994 82.427C24.8918 82.4799 24.7784 82.5075 24.6634 82.5072ZM59.9005 79.5321C59.7877 79.5322 59.6764 79.5056 59.5758 79.4547C59.4751 79.4037 59.3879 79.3297 59.3212 79.2387C58.5917 78.2415 57.7814 77.306 56.8986 76.4417C56.7623 76.3087 56.6845 76.127 56.6822 75.9366C56.6799 75.7463 56.7533 75.5628 56.8863 75.4265C57.0193 75.2902 57.201 75.2124 57.3914 75.2101C57.5818 75.2078 57.7653 75.2812 57.9015 75.4142C58.8402 76.3346 59.7019 77.3302 60.4782 78.391C60.5565 78.4979 60.6037 78.6244 60.6146 78.7564C60.6254 78.8884 60.5995 79.0209 60.5397 79.1391C60.4799 79.2573 60.3885 79.3567 60.2757 79.4261C60.1629 79.4956 60.033 79.5325 59.9005 79.5327V79.5321ZM29.8099 76.8784C29.663 76.8786 29.5196 76.8338 29.3991 76.7498C29.2786 76.6659 29.1868 76.5469 29.1361 76.409C29.0855 76.2712 29.0784 76.1211 29.1159 75.9791C29.1534 75.8371 29.2337 75.71 29.3458 75.6152C30.3424 74.7691 31.3953 73.9918 32.4973 73.2885C32.5766 73.2349 32.6659 73.1978 32.7599 73.1793C32.8538 73.1609 32.9505 73.1614 33.0443 73.1809C33.138 73.2004 33.2269 73.2384 33.3057 73.2929C33.3845 73.3473 33.4515 73.4169 33.503 73.4977C33.5544 73.5784 33.5892 73.6687 33.6052 73.7631C33.6211 73.8575 33.6181 73.9541 33.5961 74.0473C33.5741 74.1405 33.5337 74.2283 33.4772 74.3057C33.4208 74.383 33.3494 74.4482 33.2673 74.4975C32.22 75.1657 31.2196 75.9045 30.2728 76.7088C30.1435 76.8185 29.9794 76.8786 29.8099 76.8784ZM1.73415 76.6626H1.69248C1.50269 76.6516 1.32504 76.5657 1.19853 76.4237C1.07203 76.2818 1.00702 76.0955 1.01778 75.9057C1.09164 74.6089 1.23052 73.3167 1.4339 72.0338C1.46418 71.8462 1.56776 71.6783 1.72186 71.567C1.87595 71.4557 2.06795 71.4102 2.2556 71.4405C2.44324 71.4708 2.61118 71.5743 2.72245 71.7284C2.83373 71.8825 2.87924 72.0745 2.84896 72.2622C2.65342 73.4974 2.52006 74.7416 2.44939 75.9902C2.43723 76.1717 2.35662 76.3417 2.22384 76.466C2.09106 76.5903 1.91603 76.6596 1.73415 76.6598V76.6626ZM54.4458 74.2269C54.3032 74.2266 54.164 74.1835 54.0462 74.1031C53.0313 73.4126 51.9506 72.8241 50.82 72.3461C50.6446 72.2724 50.5058 72.1322 50.4339 71.9561C50.362 71.7801 50.363 71.5827 50.4367 71.4074C50.5103 71.2321 50.6506 71.0932 50.8266 71.0213C51.0027 70.9494 51.2001 70.9504 51.3754 71.0241C52.5934 71.5391 53.7576 72.1731 54.8511 72.9169C54.9792 73.0026 55.0763 73.1273 55.128 73.2726C55.1797 73.4178 55.1831 73.5759 55.1379 73.7232C55.0927 73.8706 55.0011 73.9995 54.8769 74.0907C54.7526 74.182 54.6022 74.2307 54.4481 74.2298L54.4458 74.2269ZM36.2475 72.8062C36.0843 72.8046 35.9265 72.7473 35.8002 72.6438C35.6739 72.5404 35.5867 72.3969 35.553 72.2371C35.5194 72.0774 35.5412 71.911 35.615 71.7653C35.6887 71.6197 35.81 71.5036 35.9587 71.4362C37.1626 70.9043 38.4108 70.4789 39.689 70.165C39.7815 70.1398 39.878 70.1333 39.973 70.1461C40.068 70.1588 40.1595 70.1905 40.242 70.2392C40.3245 70.2879 40.3965 70.3526 40.4535 70.4296C40.5106 70.5066 40.5517 70.5942 40.5743 70.6874C40.5969 70.7805 40.6007 70.8772 40.5853 70.9718C40.5699 71.0664 40.5357 71.1569 40.4847 71.2381C40.4338 71.3192 40.367 71.3893 40.2885 71.4442C40.21 71.4991 40.1212 71.5378 40.0275 71.5578C38.831 71.8522 37.6625 72.2504 36.5352 72.7479C36.4442 72.7863 36.3463 72.8051 36.2475 72.8033V72.8062ZM47.4413 71.3106C47.3978 71.3106 47.3544 71.3066 47.3117 71.2986C46.3252 71.1193 45.3245 71.0291 44.3218 71.0292C44.1185 71.0258 43.8817 71.0332 43.6619 71.0418C43.472 71.0493 43.2868 70.9811 43.1472 70.8522C43.0075 70.7233 42.9248 70.5441 42.9173 70.3542C42.9097 70.1643 42.9779 69.9791 43.1068 69.8395C43.2358 69.6999 43.4149 69.6171 43.6048 69.6096C43.8428 69.6004 44.098 69.6044 44.32 69.5959C45.4091 69.5956 46.496 69.6936 47.5674 69.8887C47.743 69.9212 47.9002 70.0181 48.0081 70.1604C48.116 70.3026 48.167 70.48 48.151 70.6579C48.135 70.8357 48.0532 71.0012 47.9216 71.1219C47.79 71.2427 47.6181 71.3099 47.4396 71.3106H47.4413ZM2.96541 69.1312C2.85439 69.1314 2.74485 69.1058 2.64542 69.0564C2.54599 69.0071 2.45937 68.9353 2.39241 68.8467C2.32545 68.7582 2.27996 68.6553 2.25954 68.5462C2.23912 68.4371 2.24431 68.3247 2.27472 68.2179C2.62716 66.9672 3.04636 65.7363 3.53052 64.5304C3.56564 64.4431 3.61762 64.3635 3.6835 64.2962C3.74938 64.2289 3.82787 64.1753 3.91448 64.1383C4.00109 64.1014 4.09413 64.0819 4.18828 64.0809C4.28244 64.0799 4.37587 64.0975 4.46323 64.1326C4.5506 64.1677 4.6302 64.2197 4.69747 64.2856C4.76475 64.3514 4.81839 64.4299 4.85534 64.5165C4.89228 64.6032 4.9118 64.6962 4.91279 64.7903C4.91378 64.8845 4.89622 64.9779 4.8611 65.0653C4.39568 66.2224 3.99305 67.4038 3.65496 68.6044C3.6128 68.7549 3.52263 68.8876 3.39816 68.9821C3.27369 69.0767 3.12174 69.1281 2.96541 69.1284V69.1312ZM5.8058 62.0531C5.68231 62.0527 5.56101 62.0205 5.45361 61.9596C5.34622 61.8986 5.25638 61.811 5.19278 61.7051C5.12918 61.5993 5.09397 61.4788 5.09056 61.3554C5.08716 61.2319 5.11566 61.1097 5.17333 61.0005C5.78313 59.8526 6.45129 58.7368 7.17519 57.6572C7.22766 57.579 7.29502 57.5119 7.37342 57.4598C7.45182 57.4076 7.53972 57.3714 7.63211 57.3533C7.7245 57.3351 7.81956 57.3353 7.91188 57.3538C8.00419 57.3724 8.09194 57.409 8.17013 57.4614C8.24831 57.5139 8.3154 57.5813 8.36755 57.6597C8.4197 57.7381 8.4559 57.826 8.47408 57.9183C8.49226 58.0107 8.49207 58.1058 8.47351 58.1981C8.45495 58.2904 8.41839 58.3782 8.36592 58.4564C7.66954 59.4939 7.02691 60.5666 6.44055 61.6701C6.37957 61.7856 6.28811 61.8822 6.17611 61.9494C6.06412 62.0166 5.93585 62.0519 5.80523 62.0514L5.8058 62.0531ZM10.0538 55.7113C9.91788 55.7113 9.78474 55.6726 9.66996 55.5998C9.55518 55.5269 9.46349 55.4229 9.40561 55.2999C9.34773 55.1769 9.32604 55.04 9.34308 54.9051C9.36012 54.7703 9.41519 54.643 9.50185 54.5383C10.3215 53.5462 11.2035 52.5781 12.123 51.6619C12.2585 51.5314 12.4397 51.4593 12.6278 51.4612C12.8158 51.4631 12.9956 51.5388 13.1284 51.672C13.2611 51.8052 13.3362 51.9853 13.3375 52.1733C13.3388 52.3614 13.2661 52.5424 13.1351 52.6774C12.2481 53.561 11.3975 54.4943 10.607 55.4516C10.5395 55.5327 10.4549 55.5979 10.3593 55.6425C10.2637 55.6871 10.1593 55.71 10.0538 55.7096V55.7113ZM15.4606 50.3182C15.3131 50.3182 15.1691 50.2726 15.0484 50.1877C14.9277 50.1028 14.8361 49.9828 14.7862 49.8439C14.7362 49.7051 14.7303 49.5542 14.7693 49.4119C14.8083 49.2696 14.8902 49.1427 15.004 49.0487C15.9955 48.2301 17.0412 47.4441 18.1121 46.7118C18.1898 46.6586 18.2772 46.6213 18.3694 46.602C18.4616 46.5826 18.5566 46.5816 18.6492 46.599C18.7417 46.6164 18.8299 46.6518 18.9088 46.7033C18.9876 46.7548 19.0556 46.8213 19.1087 46.899C19.1619 46.9767 19.1992 47.0642 19.2185 47.1563C19.2379 47.2485 19.2389 47.3436 19.2215 47.4361C19.2041 47.5287 19.1687 47.6169 19.1172 47.6957C19.0657 47.7746 18.9992 47.8425 18.9215 47.8957C17.8855 48.6029 16.8745 49.3627 15.9167 50.1538C15.7884 50.2597 15.627 50.3173 15.4606 50.3165V50.3182ZM21.767 46.0057C21.6085 46.0056 21.4544 45.9531 21.329 45.8562C21.2035 45.7593 21.1137 45.6235 21.0735 45.4702C21.0334 45.3168 21.0453 45.1545 21.1072 45.0085C21.1692 44.8626 21.2778 44.7413 21.416 44.6637C22.5371 44.0358 23.7044 43.4461 24.8854 42.9124C24.9712 42.8737 25.0637 42.8522 25.1578 42.8492C25.2518 42.8462 25.3455 42.8618 25.4336 42.895C25.5216 42.9282 25.6023 42.9785 25.6709 43.0429C25.7395 43.1073 25.7948 43.1846 25.8335 43.2703C25.8723 43.3561 25.8938 43.4486 25.8968 43.5427C25.8997 43.6367 25.8842 43.7305 25.8509 43.8185C25.8177 43.9065 25.7675 43.9872 25.7031 44.0558C25.6387 44.1244 25.5614 44.1797 25.4756 44.2184C24.334 44.7356 23.2021 45.303 22.1169 45.9143C22.0099 45.9738 21.8894 46.0046 21.767 46.004V46.0057ZM28.731 42.857C28.5618 42.8573 28.398 42.7977 28.2686 42.6887C28.1391 42.5797 28.0524 42.4284 28.0239 42.2617C27.9953 42.0949 28.0266 41.9234 28.1124 41.7776C28.1982 41.6317 28.3328 41.5209 28.4924 41.4648C29.7042 41.0367 30.9526 40.6537 32.2027 40.3232C32.2938 40.2993 32.3886 40.2937 32.4818 40.3065C32.5751 40.3193 32.6649 40.3504 32.7461 40.3979C32.8273 40.4454 32.8984 40.5085 32.9553 40.5834C33.0121 40.6584 33.0537 40.7439 33.0775 40.8349C33.1013 40.926 33.107 41.0208 33.0942 41.114C33.0814 41.2073 33.0503 41.2971 33.0028 41.3783C32.9553 41.4595 32.8922 41.5306 32.8172 41.5875C32.7422 41.6443 32.6568 41.6859 32.5658 41.7097C31.3539 42.0271 30.1444 42.3987 28.9696 42.8137C28.8925 42.8417 28.8113 42.8565 28.7293 42.8576L28.731 42.857Z" fill="#F4B545"/>
<path opacity="0.1" d="M64.4749 23.0649L10.3973 30.2807L23.5079 40.2249L23.7134 58.5276L35.0116 48.9316L41.3602 53.7185L64.4749 23.0649Z" fill="#232323"/>
<path d="M24.8933 57.4177L24.5936 30.6823L65.6549 21.9551L24.8933 57.4177Z" fill="#46C1AA"/>
<path d="M24.7769 39.1824C24.9846 39.0779 65.6554 21.9551 65.6554 21.9551L11.5773 29.1702L24.7769 39.1824Z" fill="#52D1BD"/>
<path d="M29.2596 42.595L24.8934 57.4181L43.6197 41.5122L29.2596 42.595Z" fill="#3CAF99"/>
<path d="M29.2596 42.5947L42.5403 52.608L65.655 21.9551L29.2596 42.5947Z" fill="#52D1BD"/>
<path opacity="0.1" d="M171.387 72.3398C171.365 72.0082 171.213 71.6986 170.964 71.4789C170.714 71.2593 170.388 71.1474 170.056 71.1679L121.733 74.2401C121.401 74.2618 121.092 74.414 120.872 74.6634C120.653 74.9128 120.541 75.239 120.561 75.5706L121.809 95.2017C121.831 95.5333 121.983 95.8429 122.232 96.0625C122.482 96.2822 122.808 96.394 123.14 96.3735L171.463 93.3014C171.795 93.2798 172.104 93.1277 172.324 92.8783C172.543 92.6289 172.655 92.3025 172.635 91.9708L171.387 72.3398Z" fill="#232323"/>
<path d="M172.685 91.495L124.364 94.5666C124.032 94.5871 123.706 94.4752 123.457 94.2556C123.207 94.0359 123.055 93.7263 123.034 93.3947L121.786 73.7654C121.765 73.4338 121.877 73.1075 122.097 72.8581C122.316 72.6088 122.625 72.4565 122.957 72.4348L171.281 69.3632C171.612 69.3427 171.939 69.4545 172.188 69.674C172.437 69.8936 172.59 70.203 172.611 70.5346L173.859 90.1644C173.88 90.4965 173.768 90.8231 173.547 91.0726C173.327 91.3221 173.017 91.474 172.685 91.495Z" fill="white"/>
<path d="M167.575 75.2653L146.487 76.6062C146.225 76.6218 145.967 76.5331 145.77 76.3595C145.573 76.1858 145.453 75.9413 145.435 75.6792L145.432 75.6301C145.416 75.3678 145.504 75.11 145.678 74.9128C145.852 74.7156 146.096 74.5951 146.358 74.5775L167.446 73.2372C167.708 73.2212 167.966 73.3097 168.163 73.4833C168.36 73.6569 168.481 73.9015 168.498 74.1636L168.501 74.2133C168.517 74.4755 168.429 74.7332 168.255 74.9303C168.081 75.1274 167.837 75.2478 167.575 75.2653Z" fill="#3B82F4"/>
<path d="M167.853 79.6892L146.766 81.0295C146.504 81.0457 146.245 80.9574 146.048 80.7838C145.851 80.6101 145.73 80.3653 145.713 80.103L145.709 80.0534C145.693 79.7912 145.782 79.5333 145.955 79.3362C146.129 79.1391 146.374 79.0187 146.636 79.0013L167.723 77.6605C167.985 77.6447 168.243 77.7332 168.44 77.9068C168.637 78.0803 168.758 78.3248 168.776 78.5869V78.6366C168.792 78.8982 168.704 79.1557 168.531 79.3528C168.358 79.55 168.115 79.6709 167.853 79.6892Z" fill="#ECF3FE"/>
<path d="M168.134 84.1134L147.047 85.4543C146.785 85.4701 146.527 85.3816 146.33 85.208C146.133 85.0344 146.012 84.7899 145.995 84.5278L145.992 84.4782C145.976 84.2159 146.064 83.958 146.238 83.7608C146.412 83.5636 146.656 83.443 146.918 83.4256L168.005 82.0853C168.268 82.0695 168.525 82.158 168.723 82.3316C168.92 82.5051 169.04 82.7496 169.058 83.0117L169.061 83.0614C169.077 83.3236 168.988 83.5814 168.815 83.7786C168.641 83.9757 168.397 84.0961 168.134 84.1134Z" fill="#ECF3FE"/>
<path d="M168.416 88.5378L147.328 89.8781C147.066 89.8939 146.808 89.8053 146.611 89.6318C146.414 89.4582 146.294 89.2137 146.276 88.9516L146.273 88.902C146.257 88.6397 146.345 88.3819 146.519 88.1848C146.693 87.9877 146.938 87.8673 147.2 87.85L168.287 86.5097C168.549 86.4936 168.808 86.5823 169.005 86.7565C169.202 86.9306 169.322 87.1758 169.339 87.4384L169.342 87.4881C169.357 87.7498 169.269 88.007 169.095 88.2036C168.922 88.4002 168.677 88.5203 168.416 88.5378Z" fill="#ECF3FE"/>
<path d="M140.407 89.4362C144.042 85.8015 144.042 79.9085 140.407 76.2738C136.773 72.6391 130.88 72.6391 127.245 76.2738C123.61 79.9085 123.61 85.8015 127.245 89.4362C130.88 93.0708 136.773 93.0708 140.407 89.4362Z" fill="#ECF3FE"/>
<path d="M137.95 79.39L138.266 84.3698C138.282 84.6305 138.248 84.892 138.163 85.1393C138.079 85.3866 137.946 85.6148 137.774 85.8109C137.601 86.0071 137.391 86.1672 137.157 86.2824C136.922 86.3975 136.667 86.4653 136.407 86.4818L131.726 86.7792C131.199 86.8125 130.681 86.6352 130.285 86.2864C129.889 85.9375 129.647 85.4457 129.614 84.9189L129.298 79.9391C129.016 75.5164 133.355 75.441 133.355 75.441C133.355 75.441 134.478 75.3177 135.615 75.7835C136.633 76.1997 137.663 77.0907 137.908 78.967C137.925 79.1046 137.939 79.2456 137.95 79.39Z" fill="#302F2F"/>
<path d="M135.356 85.8143L135.449 87.279C135.488 87.8995 134.92 88.4463 134.184 88.4931C133.448 88.5399 132.814 88.0696 132.776 87.4491L132.683 85.9844C132.669 85.7301 132.752 85.4802 132.914 85.284C132.952 85.2362 132.993 85.1916 133.038 85.1504C133.125 85.0681 133.224 84.9982 133.33 84.9426C133.522 84.8427 133.732 84.784 133.948 84.7702C134.163 84.7565 134.379 84.788 134.582 84.8627C134.694 84.9054 134.801 84.9629 134.898 85.034L134.913 85.0442C134.957 85.0769 134.998 85.1126 135.037 85.151C135.223 85.3244 135.336 85.5611 135.356 85.8143Z" fill="#F4B698"/>
<path opacity="0.28" d="M137.322 80.5631L137.457 82.6957C137.5 83.4102 137.324 84.1208 136.951 84.732C136.579 85.3433 136.028 85.8259 135.373 86.1149L135.409 86.6771C135.036 86.842 134.636 86.9396 134.229 86.9654L133.944 86.9837C133.536 87.0097 133.128 86.9635 132.736 86.8472L132.7 86.285C132.014 86.0811 131.407 85.6721 130.96 85.1129C130.513 84.5537 130.248 83.8711 130.201 83.1569L130.065 81.0243C130.014 80.1033 130.328 79.1993 130.94 78.5084C131.551 77.8174 132.41 77.3953 133.33 77.3334L133.615 77.3157C134.403 77.2652 135.184 77.4846 135.831 77.9379C136.26 78.2362 136.616 78.6269 136.874 79.0812C137.132 79.5355 137.285 80.0419 137.322 80.5631Z" fill="black"/>
<path d="M137.289 80.0175L137.46 82.6964C137.505 83.4025 137.333 84.1055 136.967 84.7114C136.885 84.8472 136.794 84.9774 136.694 85.1013C136.344 85.5387 135.894 85.8857 135.382 86.1133C135.008 86.2775 134.608 86.3741 134.201 86.3987L133.916 86.417C133.509 86.4433 133.1 86.3973 132.71 86.2811C132.023 86.0775 131.416 85.6686 130.968 85.1094C130.521 84.5502 130.256 83.8674 130.209 83.153L130.038 80.4885C130.038 80.4514 130.034 80.4143 130.033 80.3772C130.016 79.89 130.101 79.4045 130.282 78.9523C130.464 78.5 130.739 78.0909 131.089 77.7514C131.197 77.6458 131.311 77.5471 131.431 77.4557C131.973 77.0474 132.623 76.8071 133.3 76.7644L133.585 76.7462C134.346 76.6981 135.102 76.9019 135.735 77.3261C136.199 77.6349 136.582 78.0485 136.855 78.5334C137.111 78.9887 137.259 79.4963 137.289 80.0175Z" fill="#F4B698"/>
<path d="M138.774 81.3381C138.797 81.7083 138.673 82.0725 138.428 82.3508C138.182 82.6291 137.837 82.7986 137.467 82.8223L137.289 80.0298C137.477 80.0176 137.665 80.0434 137.842 80.1057C138.101 80.1968 138.328 80.3623 138.494 80.5815C138.66 80.8007 138.757 81.0638 138.774 81.3381Z" fill="#F4B698"/>
<path d="M138.242 81.3717C138.257 81.601 138.18 81.8266 138.028 81.9991C137.876 82.1715 137.662 82.2766 137.433 82.2913L137.323 80.5623C137.552 80.5477 137.778 80.6248 137.95 80.7766C138.123 80.9284 138.228 81.1424 138.242 81.3717Z" fill="#E29586"/>
<path d="M136.005 86.6699L135.188 90.2997C134.605 90.408 134.011 90.4463 133.419 90.4139L132.148 86.9165L132.886 86.8691L132.914 86.8948L134.155 88.0245L135.245 86.7464L135.269 86.7179L136.005 86.6699Z" fill="#565656"/>
<path d="M130.032 80.4932L130.21 83.2856C129.867 83.3075 129.528 83.2023 129.257 82.9902C128.987 82.778 128.804 82.4737 128.743 82.1352C128.683 81.7968 128.749 81.448 128.93 81.1553C129.11 80.8627 129.392 80.6467 129.721 80.5485C129.743 80.5417 129.764 80.536 129.786 80.5314L129.821 80.524C129.89 80.5082 129.961 80.4979 130.032 80.4932Z" fill="#F4B698"/>
<path d="M129.257 81.944C129.272 82.1733 129.377 82.3873 129.549 82.5391C129.722 82.6909 129.947 82.768 130.177 82.7534L130.067 81.0244C129.837 81.0391 129.623 81.1442 129.471 81.3167C129.32 81.4891 129.243 81.7147 129.257 81.944Z" fill="#E29586"/>
<path d="M137.132 89.6538C136.836 89.8011 136.531 89.9278 136.218 90.0328L136.198 89.7132L137.132 89.6538Z" fill="#565656"/>
<path opacity="0.2" d="M134.154 88.0234L135.238 88.693L136.005 86.6694L134.154 88.0234Z" fill="#363636"/>
<path d="M136.005 86.6691L135.215 88.6253L134.154 88.0231L135.267 86.7159L135.413 86.5464L136.005 86.6691Z" fill="#EEEEEE"/>
<path opacity="0.2" d="M132.147 86.915L133.154 88.8256L134.154 88.0236L132.147 86.915Z" fill="#363636"/>
<path d="M134.154 88.0237L133.178 88.7555L132.147 86.9152L132.719 86.7183L132.885 86.8684L134.154 88.0237Z" fill="#EEEEEE"/>
<path d="M137.942 79.2977C135.354 79.6505 135.451 77.2816 135.649 76.1143C136.667 76.531 137.697 77.422 137.942 79.2977Z" fill="#302F2F"/>
<path d="M136.484 77.3353C136.404 77.4842 135.61 79.155 133.996 79.2578C132.382 79.3605 129.882 80.4925 129.905 82.1044C129.928 83.7164 127.572 77.3255 132.441 76.5059C137.31 75.6862 136.484 77.3353 136.484 77.3353Z" fill="#302F2F"/>
<path opacity="0.1" d="M175.72 68.5714L171.082 49.457C171.003 49.1341 170.8 48.8557 170.516 48.6828C170.232 48.5099 169.891 48.4566 169.568 48.5345L122.512 59.9509C122.19 60.0298 121.911 60.2333 121.738 60.5171C121.565 60.8008 121.512 61.1416 121.589 61.4647L126.228 80.5791C126.307 80.902 126.51 81.1804 126.794 81.3534C127.078 81.5264 127.419 81.5799 127.742 81.5022L174.797 70.0858C175.12 70.007 175.399 69.8033 175.572 69.5194C175.745 69.2355 175.798 68.8946 175.72 68.5714Z" fill="#232323"/>
<path d="M170.627 46.7988L123.572 58.2176C122.899 58.3808 122.486 59.0586 122.649 59.7313L127.287 78.8459C127.451 79.5186 128.128 79.9317 128.801 79.7684L175.857 68.3497C176.53 68.1864 176.943 67.5087 176.779 66.8359L172.141 47.7214C171.978 47.0486 171.3 46.6356 170.627 46.7988Z" fill="#F4B545"/>
<path d="M142.524 73.1354C146.125 69.5341 146.125 63.6954 142.524 60.0941C138.923 56.4929 133.084 56.4929 129.483 60.0941C125.882 63.6954 125.882 69.5341 129.483 73.1354C133.084 76.7366 138.923 76.7366 142.524 73.1354Z" fill="#FFDCA4"/>
<path d="M137.857 74.7418C137.807 74.7549 137.757 74.7652 137.706 74.7727H137.703C136.204 75.0889 134.645 74.9606 133.219 74.4033C133.353 73.8189 133.607 73.2687 133.965 72.7873C134.322 72.3059 134.776 71.9038 135.296 71.6063H135.299C135.475 71.5054 135.658 71.4184 135.848 71.346C136.025 71.2768 136.207 71.2196 136.392 71.1748L137.909 70.8066C138.094 70.7626 138.281 70.7308 138.469 70.7113H138.472C138.673 70.6888 138.876 70.6819 139.079 70.6907C139.927 70.7251 140.747 71.009 141.435 71.507C141.694 71.6952 141.933 71.9113 142.145 72.1515C141.17 73.2971 139.888 74.1408 138.45 74.5832C138.383 74.6048 138.316 74.6242 138.245 74.6402C138.235 74.645 138.224 74.6486 138.213 74.6511C138.199 74.657 138.185 74.6605 138.17 74.6614C138.158 74.6674 138.145 74.6708 138.132 74.6711C138.081 74.6887 138.026 74.7019 137.972 74.715L137.934 74.7247L137.888 74.7356L137.874 74.739L137.857 74.7418Z" fill="#F4B545"/>
<path d="M131.728 66.0329C131.728 66.0329 130.006 61.0136 132.789 60.2316C135.571 59.4496 136.545 58.4621 137.275 58.5334C138.004 58.6048 139.651 63.1474 139.693 64.1001C139.736 65.0528 131.728 66.0329 131.728 66.0329Z" fill="#E09F36"/>
<path d="M138.287 69.9563L138.635 71.3925C138.783 72.0016 138.314 72.6432 137.593 72.8196C136.871 72.996 136.161 72.6392 136.013 72.0307L135.665 70.5939C135.607 70.3441 135.645 70.0817 135.772 69.8587C135.801 69.8048 135.834 69.7533 135.871 69.7046C135.943 69.6078 136.029 69.5212 136.125 69.4472C136.297 69.3148 136.495 69.2199 136.707 69.1686C136.918 69.1173 137.138 69.1107 137.352 69.1492C137.471 69.1716 137.586 69.21 137.694 69.2634L137.711 69.2708C137.76 69.2955 137.808 69.3235 137.853 69.3547C138.068 69.4942 138.222 69.7088 138.287 69.9563Z" fill="#F4CB95"/>
<path d="M139.32 64.4027L139.827 66.4947C139.995 67.1958 139.944 67.9316 139.682 68.6031C139.419 69.2745 138.957 69.8495 138.358 70.2507L138.492 70.8027C138.15 71.0314 137.771 71.198 137.372 71.2947L137.092 71.3627C136.692 71.4601 136.279 71.4858 135.87 71.4386L135.736 70.8872C135.02 70.8047 134.346 70.505 133.805 70.0285C133.265 69.552 132.883 68.9214 132.711 68.2214L132.203 66.13C131.991 65.2251 132.144 64.2732 132.63 63.4807C133.115 62.6883 133.894 62.1193 134.796 61.8974L135.077 61.8294C135.849 61.6412 136.663 61.7217 137.383 62.0577C137.861 62.279 138.283 62.6045 138.618 63.0103C138.953 63.4161 139.193 63.8919 139.32 64.4027Z" fill="#D8A471"/>
<path d="M139.188 63.8671L139.826 66.4928C139.981 67.1274 139.955 67.7928 139.75 68.4131C139.719 68.5078 139.681 68.6009 139.643 68.6905C139.597 68.8009 139.545 68.9086 139.487 69.013C139.253 69.4419 138.932 69.8172 138.545 70.1148C138.157 70.4123 137.712 70.6256 137.237 70.7409L136.959 70.8082C136.052 71.0263 135.096 70.8762 134.3 70.391C133.503 69.9057 132.932 69.1247 132.71 68.219L132.049 65.4928C131.948 65.0131 131.948 64.5175 132.049 64.0379C132.151 63.5582 132.352 63.1052 132.639 62.7077C132.727 62.5838 132.824 62.4663 132.929 62.3561C133.394 61.8556 133.997 61.5032 134.662 61.3429L134.94 61.275C135.459 61.1475 136.001 61.1434 136.521 61.263C136.623 61.2835 136.723 61.3097 136.822 61.3412C136.942 61.3784 137.06 61.4224 137.175 61.4731C137.673 61.6894 138.114 62.0181 138.463 62.4335C138.812 62.8489 139.06 63.3396 139.188 63.8671Z" fill="#F4CB95"/>
<path d="M140.895 64.9184C140.983 65.2815 140.923 65.6648 140.729 65.9839C140.534 66.303 140.221 66.5318 139.858 66.62L139.193 63.88C139.377 63.8351 139.568 63.8278 139.755 63.8584H139.757C140.03 63.9041 140.283 64.029 140.485 64.2174C140.688 64.4059 140.83 64.6496 140.895 64.9184Z" fill="#EDC28E"/>
<path d="M140.373 65.0447C140.428 65.2696 140.391 65.5069 140.27 65.7045C140.15 65.9021 139.956 66.0438 139.731 66.0984L139.32 64.4025C139.544 64.348 139.782 64.385 139.979 64.5054C140.177 64.6259 140.319 64.8198 140.373 65.0447Z" fill="#D8A471"/>
<path d="M132.075 65.6079L132.74 68.3478C132.403 68.4295 132.048 68.3845 131.743 68.2213C131.438 68.0582 131.203 67.7883 131.084 67.4631C130.965 67.138 130.969 66.7804 131.097 66.4585C131.225 66.1367 131.467 65.8731 131.776 65.7181C131.796 65.7078 131.816 65.6981 131.837 65.6895L131.87 65.6764C131.937 65.6484 132.005 65.6255 132.075 65.6079Z" fill="#EDC28E"/>
<path d="M131.56 67.1836C131.614 67.4085 131.756 67.6024 131.954 67.7229C132.151 67.8433 132.389 67.8803 132.613 67.8258L132.202 66.1299C132.091 66.1569 131.986 66.2055 131.893 66.2731C131.8 66.3407 131.722 66.4258 131.662 66.5237C131.603 66.6215 131.563 66.7302 131.545 66.8434C131.528 66.9567 131.533 67.0723 131.56 67.1836Z" fill="#D8A471"/>
<path d="M139.188 63.8677L139.826 66.4934C139.981 67.128 139.955 67.7934 139.75 68.4137C139.719 68.5084 139.681 68.6015 139.643 68.6911C139.12 63.5703 138.115 63.0543 136.94 63.3488C135.677 63.6622 135.011 62.1763 135.011 62.1763L136.822 61.3418C136.942 61.379 137.06 61.423 137.175 61.4737C137.673 61.69 138.114 62.0187 138.463 62.4341C138.812 62.8495 139.06 63.3402 139.188 63.8677Z" fill="#E5B67F"/>
<path d="M138.872 72.3608L139.342 72.85L138.45 74.5842C138.383 74.6059 138.316 74.6253 138.245 74.6412C138.235 74.646 138.224 74.6496 138.213 74.6521C138.2 74.658 138.185 74.6615 138.17 74.6624L138.589 72.0018V71.9955L138.659 71.5571V71.5537L138.665 71.5092L138.494 70.8008L139.521 71.8557L138.907 72.3334L138.872 72.3608Z" fill="#CC8E2B"/>
<path d="M137.931 74.7274L137.969 74.7177C138.027 74.7046 138.078 74.6915 138.129 74.6738C138.142 74.6735 138.155 74.6702 138.167 74.6641C138.182 74.6632 138.197 74.6598 138.21 74.6538L138.313 74.3399L138.856 72.6531L138.75 72.2147L138.992 71.8328L138.689 71.2769C138.676 71.3258 138.66 71.3741 138.641 71.4213L138.637 71.4281V71.4338C138.544 71.693 138.312 72.225 137.889 72.596C137.795 72.6777 137.692 72.7491 137.582 72.8089C137.411 72.8026 137.241 72.7718 137.078 72.7176C136.588 72.5629 136.197 72.2364 136.02 72.0629L136.016 72.0583C135.942 71.9921 135.906 71.9521 135.906 71.9521L135.892 72.5846L136.282 72.8129L136.389 73.2513L137.469 74.3284L137.878 74.7372H137.881L137.931 74.7274Z" fill="white"/>
<path d="M138.906 72.3347L139.342 72.8484L138.245 74.6408C138.235 74.6455 138.224 74.6491 138.213 74.6516C138.199 74.6576 138.185 74.6611 138.17 74.6619C138.158 74.668 138.145 74.6713 138.132 74.6716L138.536 72.1178V72.1149L138.644 71.4299V71.4242L138.648 71.4174L138.477 70.709L139.525 71.854L138.855 72.2679L138.906 72.3347Z" fill="#E09F36"/>
<path d="M137.857 74.742C137.807 74.7551 137.757 74.7654 137.706 74.7728H137.703L136.053 73.6466L136.247 72.9964L136.206 72.989L135.441 72.8457L135.869 71.4375L136.02 72.0563L136.041 72.1459L136.045 72.151L136.059 72.1704L136.063 72.1756L136.334 72.5455L137.932 74.7237L137.886 74.7345L137.872 74.738L137.857 74.742Z" fill="#CC8E2B"/>
<path d="M137.857 74.7421L136.053 73.6479L136.206 72.9903L136.226 72.9075L135.441 72.847L135.848 71.3486L135.869 71.4388L136.02 72.0576L136.024 72.0622L136.437 72.6256L136.438 72.6284L137.969 74.7176L137.931 74.7273L137.884 74.7382L137.871 74.7416L137.857 74.7421Z" fill="#E09F36"/>
<path d="M136.945 60.7909C136.945 60.7909 135.11 60.6899 134.776 60.7704C134.442 60.8509 134.028 60.9936 133.41 61.3109C132.792 61.6283 131.977 62.5804 131.977 62.5804L131.876 62.98C131.799 63.1124 131.723 63.2603 131.726 63.2963C131.729 63.3322 131.732 63.443 131.734 63.5457L131.651 63.8745C131.671 63.8614 131.718 63.8334 131.775 63.7946L131.93 64.0526C132.099 63.6579 132.349 63.3032 132.664 63.012C133.347 62.5633 134.335 62.2517 135.176 62.601C136.701 63.2357 138.977 62.0941 138.977 62.0941L136.945 60.7909Z" fill="#E09F36"/>
<path d="M167.954 53.0661L147.419 58.0482C147.164 58.11 146.894 58.0679 146.669 57.9312C146.445 57.7944 146.283 57.5742 146.221 57.3187L146.209 57.2702C146.148 57.0145 146.19 56.7447 146.326 56.52C146.463 56.2954 146.683 56.134 146.939 56.0714L167.473 51.0893C167.729 51.0275 167.998 51.0696 168.223 51.2064C168.448 51.3431 168.609 51.5634 168.672 51.8188L168.684 51.8674C168.745 52.1231 168.703 52.3928 168.566 52.6175C168.429 52.8422 168.209 53.0035 167.954 53.0661Z" fill="#E29D2D"/>
<path d="M168.52 55.3933L147.987 60.376C147.455 60.5052 147.128 61.0413 147.257 61.5734L147.269 61.6217C147.398 62.1538 147.934 62.4805 148.466 62.3514L169 57.3686C169.532 57.2395 169.859 56.7034 169.73 56.1713L169.718 56.123C169.589 55.5909 169.053 55.2642 168.52 55.3933Z" fill="#FFDCA4"/>
<path d="M169.566 59.7014L149.032 64.6841C148.5 64.8133 148.173 65.3494 148.302 65.8815L148.314 65.9298C148.443 66.4619 148.979 66.7886 149.512 66.6595L170.045 61.6768C170.577 61.5476 170.904 61.0115 170.775 60.4794L170.763 60.4311C170.634 59.899 170.098 59.5723 169.566 59.7014Z" fill="#FFDCA4"/>
<path d="M170.611 64.009L150.078 68.9918C149.546 69.1209 149.219 69.657 149.348 70.1891L149.36 70.2374C149.489 70.7695 150.025 71.0963 150.557 70.9671L171.091 65.9844C171.623 65.8552 171.95 65.3192 171.82 64.787L171.809 64.7387C171.68 64.2066 171.144 63.8799 170.611 64.009Z" fill="#FFDCA4"/>
<path d="M138.024 129.047C137.681 129.047 137.341 129.04 137.002 129.026C136.816 129.013 136.642 128.928 136.517 128.789C136.393 128.651 136.327 128.468 136.334 128.282C136.342 128.096 136.422 127.919 136.557 127.791C136.692 127.662 136.872 127.591 137.059 127.594C138.296 127.643 139.534 127.597 140.764 127.456C140.857 127.445 140.952 127.453 141.042 127.479C141.133 127.504 141.217 127.548 141.291 127.606C141.365 127.665 141.426 127.737 141.472 127.82C141.517 127.902 141.546 127.993 141.557 128.086C141.568 128.179 141.56 128.274 141.534 128.365C141.508 128.455 141.464 128.539 141.406 128.613C141.347 128.687 141.275 128.748 141.193 128.794C141.11 128.839 141.02 128.868 140.926 128.879C139.963 128.99 138.994 129.046 138.024 129.047ZM133.243 128.554C133.193 128.554 133.143 128.549 133.094 128.538C131.809 128.266 130.549 127.887 129.327 127.404C129.15 127.334 129.008 127.197 128.933 127.022C128.857 126.848 128.854 126.651 128.924 126.474C128.994 126.297 129.131 126.155 129.306 126.08C129.48 126.004 129.677 126.001 129.854 126.071C131.002 126.525 132.186 126.881 133.393 127.135C133.567 127.172 133.72 127.271 133.825 127.415C133.929 127.558 133.977 127.735 133.959 127.911C133.94 128.087 133.857 128.25 133.726 128.369C133.594 128.488 133.423 128.554 133.246 128.554H133.243ZM144.598 128.177C144.425 128.176 144.257 128.112 144.127 127.997C143.996 127.882 143.912 127.724 143.89 127.551C143.868 127.379 143.909 127.204 144.006 127.06C144.103 126.916 144.25 126.812 144.418 126.767C145.62 126.451 146.801 126.056 147.953 125.587C148.04 125.549 148.135 125.529 148.23 125.528C148.325 125.527 148.42 125.545 148.509 125.581C148.597 125.617 148.677 125.67 148.745 125.738C148.812 125.805 148.866 125.886 148.902 125.974C148.938 126.063 148.956 126.157 148.954 126.253C148.953 126.348 148.933 126.443 148.895 126.53C148.857 126.618 148.802 126.697 148.733 126.763C148.664 126.829 148.582 126.88 148.493 126.914C147.285 127.407 146.045 127.821 144.783 128.154C144.723 128.169 144.661 128.177 144.598 128.177ZM126.165 125.768C126.036 125.768 125.91 125.733 125.8 125.667C124.676 124.995 123.601 124.244 122.584 123.419C122.438 123.299 122.345 123.125 122.326 122.937C122.307 122.749 122.363 122.56 122.482 122.413C122.601 122.266 122.774 122.172 122.962 122.152C123.15 122.131 123.339 122.186 123.487 122.304C124.45 123.086 125.467 123.798 126.532 124.435C126.667 124.515 126.772 124.637 126.83 124.783C126.889 124.929 126.898 125.09 126.856 125.241C126.815 125.392 126.724 125.526 126.6 125.621C126.475 125.716 126.322 125.768 126.165 125.768ZM151.67 125.316C151.511 125.316 151.357 125.263 151.231 125.166C151.105 125.068 151.016 124.932 150.976 124.778C150.936 124.625 150.948 124.462 151.011 124.316C151.073 124.17 151.183 124.049 151.322 123.972C152.412 123.366 153.467 122.699 154.482 121.974C154.558 121.917 154.645 121.876 154.737 121.854C154.83 121.831 154.926 121.827 155.02 121.842C155.114 121.857 155.204 121.89 155.285 121.94C155.366 121.99 155.436 122.056 155.492 122.133C155.547 122.21 155.586 122.298 155.607 122.391C155.629 122.484 155.631 122.58 155.615 122.673C155.598 122.767 155.563 122.857 155.512 122.937C155.461 123.017 155.394 123.086 155.316 123.14C154.257 123.897 153.155 124.594 152.017 125.225C151.911 125.284 151.791 125.315 151.67 125.316ZM120.226 120.988C120.13 120.988 120.034 120.969 119.945 120.931C119.856 120.893 119.776 120.838 119.709 120.768C118.809 119.827 117.961 118.838 117.168 117.805C117.053 117.655 117.001 117.464 117.026 117.276C117.051 117.087 117.149 116.916 117.3 116.8C117.451 116.685 117.641 116.633 117.83 116.658C118.018 116.683 118.189 116.781 118.305 116.932C119.065 117.923 119.879 118.872 120.743 119.775C120.841 119.877 120.906 120.004 120.931 120.142C120.956 120.281 120.94 120.423 120.885 120.552C120.83 120.682 120.738 120.792 120.621 120.869C120.504 120.947 120.367 120.988 120.226 120.988ZM157.877 120.881C157.732 120.882 157.59 120.838 157.471 120.756C157.351 120.674 157.259 120.557 157.207 120.422C157.155 120.287 157.145 120.139 157.179 119.998C157.213 119.857 157.289 119.729 157.397 119.632C158.323 118.798 159.199 117.91 160.023 116.973C160.084 116.9 160.159 116.839 160.244 116.795C160.329 116.752 160.422 116.725 160.518 116.718C160.613 116.711 160.709 116.722 160.799 116.753C160.89 116.783 160.974 116.831 161.046 116.894C161.118 116.957 161.176 117.034 161.218 117.12C161.259 117.206 161.284 117.3 161.289 117.395C161.294 117.491 161.279 117.586 161.247 117.676C161.215 117.766 161.165 117.849 161.1 117.919C160.239 118.897 159.323 119.825 158.355 120.697C158.224 120.815 158.054 120.881 157.877 120.881ZM160.341 116.623C160.157 116.621 159.982 116.55 159.85 116.423C159.718 116.296 159.639 116.124 159.631 115.941C159.622 115.758 159.683 115.579 159.802 115.44C159.922 115.301 160.089 115.212 160.271 115.193C160.965 115.125 161.654 115.015 162.335 114.864C162.242 114.745 162.188 114.599 162.183 114.448C162.177 114.296 162.22 114.147 162.305 114.021C162.999 112.994 163.618 111.918 164.156 110.801C164.195 110.713 164.251 110.634 164.321 110.569C164.391 110.503 164.473 110.453 164.563 110.419C164.653 110.386 164.749 110.372 164.844 110.376C164.94 110.38 165.034 110.404 165.12 110.445C165.207 110.487 165.284 110.545 165.348 110.617C165.411 110.689 165.46 110.772 165.49 110.863C165.521 110.954 165.533 111.05 165.526 111.146C165.519 111.241 165.493 111.334 165.449 111.42C164.936 112.486 164.353 113.518 163.703 114.507C163.76 114.491 163.811 114.474 163.865 114.457C164.047 114.4 164.244 114.418 164.412 114.506C164.581 114.594 164.708 114.746 164.764 114.928C164.821 115.109 164.803 115.306 164.715 115.475C164.627 115.643 164.475 115.77 164.293 115.827C163.03 116.223 161.729 116.489 160.412 116.621C160.387 116.622 160.363 116.623 160.341 116.623ZM156.529 116.566C156.498 116.566 156.467 116.564 156.437 116.56C155.125 116.385 153.834 116.083 152.581 115.659C152.401 115.598 152.252 115.469 152.168 115.298C152.083 115.128 152.069 114.931 152.13 114.751C152.19 114.571 152.32 114.422 152.49 114.337C152.661 114.252 152.858 114.239 153.038 114.299C154.202 114.695 155.402 114.976 156.62 115.138C156.8 115.163 156.963 115.255 157.077 115.395C157.192 115.535 157.249 115.713 157.237 115.894C157.226 116.074 157.147 116.244 157.016 116.368C156.885 116.493 156.711 116.563 156.53 116.565L156.529 116.566ZM115.559 114.939C115.437 114.939 115.317 114.908 115.211 114.849C115.104 114.79 115.015 114.705 114.95 114.601C114.255 113.487 113.614 112.343 113.046 111.201C112.962 111.031 112.948 110.834 113.009 110.653C113.069 110.473 113.199 110.324 113.369 110.24C113.539 110.155 113.736 110.141 113.916 110.202C114.097 110.262 114.246 110.392 114.33 110.562C114.878 111.664 115.495 112.767 116.166 113.842C116.234 113.951 116.271 114.075 116.275 114.203C116.278 114.331 116.247 114.457 116.185 114.569C116.123 114.681 116.032 114.774 115.922 114.839C115.812 114.904 115.687 114.938 115.559 114.939ZM167.6 114.379C167.44 114.379 167.284 114.325 167.158 114.227C167.032 114.129 166.942 113.991 166.903 113.836C166.864 113.68 166.879 113.516 166.944 113.37C167.009 113.224 167.121 113.104 167.262 113.029C168.352 112.448 169.39 111.776 170.367 111.021C170.518 110.911 170.707 110.864 170.892 110.89C171.077 110.916 171.245 111.014 171.359 111.162C171.473 111.31 171.525 111.497 171.503 111.683C171.481 111.869 171.388 112.039 171.243 112.156C170.202 112.961 169.096 113.676 167.935 114.295C167.832 114.351 167.717 114.381 167.6 114.381V114.379ZM149.304 114.174C149.185 114.175 149.067 114.145 148.962 114.088C147.799 113.461 146.698 112.724 145.674 111.889C145.541 111.764 145.46 111.593 145.448 111.411C145.437 111.229 145.495 111.049 145.611 110.908C145.727 110.767 145.893 110.676 146.074 110.653C146.255 110.631 146.438 110.678 146.586 110.785C147.539 111.563 148.564 112.248 149.647 112.832C149.787 112.908 149.898 113.029 149.962 113.175C150.026 113.321 150.04 113.484 150 113.639C149.961 113.794 149.871 113.931 149.745 114.029C149.619 114.126 149.464 114.179 149.304 114.179V114.174ZM173.638 109.746C173.498 109.746 173.36 109.705 173.243 109.627C173.126 109.55 173.035 109.44 172.979 109.312C172.924 109.183 172.908 109.041 172.932 108.903C172.957 108.765 173.022 108.637 173.118 108.535C173.971 107.635 174.758 106.675 175.472 105.662C175.582 105.506 175.749 105.401 175.936 105.369C176.123 105.336 176.315 105.38 176.471 105.489C176.626 105.599 176.731 105.766 176.764 105.953C176.796 106.14 176.753 106.332 176.643 106.488C175.889 107.558 175.058 108.572 174.157 109.522C174.091 109.593 174.01 109.65 173.921 109.689C173.832 109.728 173.735 109.748 173.638 109.748V109.746ZM143.475 109.315C143.364 109.315 143.255 109.289 143.156 109.239C143.057 109.19 142.971 109.118 142.904 109.029C142.087 107.961 141.428 106.781 140.948 105.525C140.886 105.349 140.895 105.155 140.974 104.985C141.053 104.816 141.196 104.684 141.371 104.618C141.546 104.551 141.74 104.556 141.911 104.631C142.083 104.706 142.218 104.845 142.288 105.018C142.72 106.145 143.312 107.204 144.047 108.162C144.127 108.269 144.177 108.395 144.189 108.528C144.202 108.661 144.177 108.795 144.117 108.914C144.058 109.034 143.967 109.135 143.853 109.205C143.74 109.275 143.609 109.313 143.476 109.313L143.475 109.315ZM166.149 108.253C166.084 108.253 166.02 108.245 165.958 108.227C165.775 108.177 165.619 108.056 165.525 107.891C165.431 107.726 165.407 107.53 165.457 107.347C165.785 106.17 165.982 104.96 166.045 103.74C166.048 103.645 166.07 103.551 166.109 103.465C166.149 103.378 166.205 103.301 166.275 103.236C166.344 103.172 166.426 103.122 166.516 103.089C166.605 103.056 166.7 103.042 166.795 103.046C166.89 103.051 166.983 103.074 167.069 103.115C167.154 103.156 167.231 103.213 167.295 103.284C167.358 103.354 167.407 103.437 167.438 103.527C167.47 103.617 167.483 103.712 167.477 103.807C167.409 105.132 167.195 106.447 166.839 107.726C166.798 107.878 166.708 108.012 166.583 108.108C166.458 108.203 166.305 108.255 166.148 108.255L166.149 108.253ZM178.038 103.526C177.915 103.526 177.794 103.494 177.687 103.434C177.58 103.373 177.49 103.287 177.426 103.181C177.362 103.076 177.327 102.957 177.322 102.834C177.318 102.711 177.346 102.589 177.402 102.48C177.972 101.375 178.469 100.234 178.89 99.0647C178.92 98.9745 178.969 98.8913 179.032 98.8199C179.095 98.7486 179.172 98.6906 179.258 98.6492C179.343 98.6078 179.437 98.584 179.532 98.5791C179.627 98.5742 179.722 98.5883 179.812 98.6206C179.901 98.6528 179.984 98.7026 180.054 98.7671C180.124 98.8316 180.181 98.9093 180.22 98.9959C180.26 99.0825 180.282 99.1761 180.285 99.2714C180.288 99.3666 180.273 99.4615 180.239 99.5505C179.796 100.779 179.274 101.978 178.675 103.138C178.615 103.255 178.524 103.354 178.412 103.423C178.299 103.491 178.17 103.528 178.038 103.528V103.526ZM140.844 102.267C140.66 102.267 140.483 102.196 140.349 102.069C140.216 101.942 140.137 101.769 140.128 101.585C140.118 101.364 140.112 101.142 140.112 100.922C140.115 99.8013 140.247 98.6851 140.505 97.5949C140.526 97.5032 140.565 97.4167 140.62 97.3402C140.675 97.2637 140.744 97.1988 140.824 97.1492C140.904 97.0995 140.993 97.0661 141.086 97.0508C141.179 97.0355 141.274 97.0386 141.365 97.06C141.457 97.0814 141.544 97.1207 141.62 97.1755C141.696 97.2303 141.761 97.2997 141.811 97.3796C141.861 97.4596 141.894 97.5485 141.909 97.6414C141.925 97.7342 141.922 97.8292 141.9 97.9208C141.668 98.9042 141.549 99.9111 141.546 100.922C141.546 101.12 141.55 101.317 141.56 101.515C141.569 101.705 141.503 101.891 141.375 102.032C141.247 102.173 141.068 102.257 140.878 102.266L140.844 102.267ZM166.457 100.688C166.291 100.688 166.131 100.63 166.003 100.525C165.875 100.42 165.787 100.274 165.755 100.112C165.51 98.9064 165.151 97.7266 164.682 96.5891C164.611 96.4133 164.612 96.2165 164.686 96.0418C164.759 95.8671 164.899 95.7287 165.075 95.6569C165.25 95.5852 165.447 95.5858 165.622 95.6588C165.797 95.7317 165.936 95.8711 166.009 96.0462C166.512 97.2684 166.898 98.5356 167.161 99.8308C167.198 100.017 167.16 100.211 167.054 100.369C166.949 100.527 166.785 100.637 166.598 100.674C166.552 100.684 166.504 100.69 166.457 100.69V100.688ZM142.516 94.8966C142.394 94.8965 142.273 94.865 142.166 94.8051C142.059 94.7452 141.969 94.6589 141.905 94.5544C141.841 94.4499 141.805 94.3308 141.8 94.2083C141.795 94.0858 141.822 93.9641 141.877 93.8549C142.481 92.668 143.219 91.5544 144.077 90.5361C144.138 90.4642 144.212 90.4049 144.296 90.3616C144.379 90.3184 144.471 90.2921 144.564 90.2842C144.658 90.2762 144.753 90.2869 144.842 90.3155C144.932 90.344 145.015 90.39 145.087 90.4508C145.159 90.5115 145.219 90.5859 145.262 90.6696C145.305 90.7532 145.331 90.8446 145.339 90.9384C145.347 91.0323 145.337 91.1268 145.308 91.2165C145.279 91.3062 145.233 91.3895 145.173 91.4614C144.385 92.3948 143.709 93.4159 143.155 94.5045C143.095 94.6225 143.004 94.7216 142.891 94.7908C142.778 94.86 142.649 94.8966 142.516 94.8966ZM163.587 93.6448C163.467 93.645 163.348 93.6148 163.243 93.5571C163.137 93.4993 163.048 93.4158 162.983 93.3143C162.326 92.2797 161.564 91.3165 160.708 90.4402C160.577 90.3042 160.506 90.1225 160.509 89.9343C160.511 89.7461 160.588 89.5665 160.722 89.4343C160.856 89.3021 161.037 89.2279 161.225 89.2277C161.413 89.2275 161.594 89.3014 161.728 89.4333C162.655 90.381 163.48 91.4229 164.19 92.542C164.259 92.6502 164.298 92.7751 164.303 92.9035C164.307 93.032 164.277 93.1592 164.216 93.272C164.154 93.3848 164.063 93.4789 163.952 93.5445C163.842 93.6101 163.716 93.6447 163.587 93.6448ZM147.425 89.1279C147.273 89.128 147.125 89.0796 147.002 88.9897C146.879 88.8998 146.788 88.7732 146.742 88.6281C146.695 88.4829 146.697 88.3269 146.745 88.1826C146.794 88.0383 146.887 87.9131 147.011 87.8253C148.168 87.009 149.386 86.4068 150.63 86.0358C150.812 85.9814 151.008 86.0017 151.175 86.092C151.343 86.1824 151.467 86.3354 151.521 86.5176C151.576 86.6997 151.555 86.8959 151.465 87.0632C151.375 87.2304 151.222 87.3548 151.04 87.4092C149.893 87.7615 148.812 88.2977 147.837 88.9966C147.717 89.0821 147.573 89.128 147.425 89.1279ZM158.206 88.3191C158.083 88.319 157.963 88.2874 157.856 88.2272C156.772 87.6192 155.649 87.2397 154.522 87.0998C154.337 87.0721 154.17 86.9731 154.057 86.8242C153.944 86.6752 153.894 86.4879 153.917 86.3023C153.94 86.1167 154.035 85.9475 154.181 85.8307C154.327 85.7139 154.513 85.6589 154.699 85.6773C156.012 85.84 157.308 86.2778 158.557 86.9771C158.695 87.0547 158.803 87.176 158.865 87.3219C158.927 87.4679 158.939 87.6302 158.899 87.7836C158.859 87.9369 158.769 88.0727 158.644 88.1696C158.518 88.2665 158.364 88.319 158.206 88.3191Z" fill="#52D1BD"/>
<path opacity="0.1" d="M191.306 100.453C196.76 94.9994 196.76 86.1568 191.306 80.7029C185.852 75.249 177.009 75.249 171.555 80.7029C166.101 86.1569 166.101 94.9994 171.555 100.453C177.009 105.907 185.852 105.907 191.306 100.453Z" fill="#232323"/>
<path d="M184.399 102.876C192.112 102.876 198.364 96.623 198.364 88.91C198.364 81.197 192.112 74.9443 184.399 74.9443C176.686 74.9443 170.433 81.197 170.433 88.91C170.433 96.623 176.686 102.876 184.399 102.876Z" fill="#F4B545"/>
<path d="M186.887 84.8639L187.217 83.7673L189.868 83.9557L187.83 91.047C187.703 91.4956 187.635 91.7936 187.624 91.9409C187.607 92.0709 187.64 92.2026 187.714 92.3102C187.745 92.3535 187.785 92.3895 187.831 92.4155C187.877 92.4414 187.928 92.4568 187.981 92.4603C188.343 92.4866 188.827 92.284 189.432 91.8524C190.038 91.4209 190.582 90.8137 191.066 90.0309C191.506 89.298 191.782 88.4781 191.873 87.6281C191.965 86.7781 191.871 85.9182 191.598 85.1082C191.347 84.3827 190.941 83.7205 190.408 83.1674C189.87 82.6046 189.188 82.1456 188.362 81.7906C187.537 81.4356 186.588 81.22 185.517 81.1439C184.425 81.0677 183.415 81.1387 182.484 81.3568C181.599 81.5574 180.757 81.9146 179.997 82.4116C179.262 82.9028 178.627 83.5309 178.129 84.2617C177.66 84.9396 177.292 85.6815 177.034 86.4645C176.761 87.279 176.592 88.1248 176.532 88.9818C176.45 90.1337 176.604 91.2028 176.995 92.1892C177.385 93.1744 178.012 94.0477 178.822 94.731C179.649 95.4396 180.672 95.9733 181.892 96.3322C183.111 96.6911 184.507 96.8459 186.077 96.7968C187.326 96.7375 188.395 96.5308 189.285 96.1769C190.165 95.8292 190.955 95.2849 191.593 94.5855L193.732 94.7373C193.338 95.4233 192.832 96.0387 192.235 96.5582C191.619 97.0917 190.922 97.5242 190.171 97.8397C189.344 98.1848 188.476 98.4199 187.588 98.539C186.572 98.6757 185.545 98.704 184.524 98.6235C182.877 98.5066 181.41 98.1853 180.122 97.6593C178.834 97.1334 177.768 96.4319 176.925 95.5547C176.089 94.6882 175.462 93.6427 175.09 92.4974C174.709 91.3372 174.567 90.0739 174.663 88.7078C174.764 87.2826 175.096 85.9675 175.66 84.7623C176.201 83.5885 176.978 82.5391 177.943 81.6799C178.901 80.8301 180.043 80.1933 181.368 79.7693C182.693 79.3454 184.132 79.1888 185.686 79.2995C186.958 79.3897 188.111 79.6584 189.146 80.1055C190.18 80.5527 191.051 81.1513 191.758 81.9013C192.462 82.6425 192.995 83.5294 193.319 84.4991C193.649 85.4809 193.774 86.5478 193.692 87.6997C193.555 89.5208 192.769 91.2322 191.477 92.5226C190.84 93.1586 190.081 93.6605 189.247 93.9987C188.403 94.3403 187.492 94.481 186.584 94.4097C186.042 94.3716 185.626 94.2495 185.338 94.0432C185.05 93.837 184.87 93.5299 184.799 93.1219C184.175 93.6547 183.48 93.9701 182.712 94.0683C181.964 94.1683 181.203 94.0404 180.528 93.7013C179.839 93.3588 179.3 92.8276 178.911 92.1076C178.522 91.3876 178.364 90.5218 178.435 89.5103C178.515 88.4402 178.821 87.3992 179.333 86.4559C179.827 85.5048 180.551 84.6925 181.439 84.0927C182.288 83.5112 183.31 83.2384 184.335 83.3198C185.538 83.4054 186.389 83.9201 186.887 84.8639ZM181.024 89.6747C180.967 90.4777 181.09 91.1056 181.394 91.5584C181.532 91.7737 181.719 91.953 181.94 92.0811C182.161 92.2092 182.409 92.2825 182.664 92.2948C183.294 92.3393 183.865 92.1277 184.38 91.66C184.894 91.1924 185.303 90.5835 185.605 89.8334C185.895 89.133 186.074 88.3915 186.134 87.6358C186.162 87.3112 186.143 86.9845 186.077 86.6654C186.02 86.3898 185.912 86.1271 185.759 85.8908C185.618 85.6726 185.427 85.4913 185.201 85.3622C184.962 85.2306 184.697 85.1546 184.425 85.1402C183.835 85.0987 183.289 85.2903 182.784 85.715C182.28 86.1397 181.875 86.7105 181.568 87.4274C181.261 88.1406 181.077 88.9003 181.024 89.6747Z" fill="white"/>
<path d="M143.351 11.486L144.86 10.6926C144.937 10.6522 145.024 10.6341 145.11 10.6404C145.197 10.6467 145.28 10.6771 145.351 10.7282C145.421 10.7794 145.476 10.8491 145.509 10.9297C145.541 11.0102 145.551 11.0983 145.536 11.1841L145.251 12.8651C145.238 12.9395 145.244 13.0159 145.267 13.0877C145.291 13.1595 145.331 13.2245 145.385 13.2772L146.606 14.468C146.668 14.5287 146.712 14.6056 146.733 14.69C146.754 14.7744 146.751 14.8629 146.724 14.9456C146.697 15.0283 146.648 15.1019 146.581 15.158C146.515 15.2141 146.434 15.2505 146.348 15.2631L144.66 15.508C144.585 15.5189 144.514 15.5479 144.453 15.5923C144.392 15.6368 144.343 15.6954 144.309 15.7632L143.554 17.2924C143.516 17.3704 143.457 17.4361 143.383 17.482C143.309 17.528 143.224 17.5523 143.137 17.5523C143.05 17.5523 142.964 17.528 142.891 17.482C142.817 17.4361 142.757 17.3704 142.719 17.2924L141.964 15.7632C141.93 15.6954 141.881 15.6367 141.82 15.5923C141.759 15.5478 141.688 15.5189 141.613 15.508L139.925 15.2631C139.839 15.2505 139.758 15.2141 139.692 15.158C139.626 15.1019 139.576 15.0283 139.549 14.9456C139.523 14.8629 139.519 14.7744 139.54 14.69C139.561 14.6056 139.605 14.5287 139.667 14.468L140.888 13.2772C140.942 13.2245 140.983 13.1595 141.006 13.0877C141.029 13.0159 141.035 12.9395 141.022 12.8651L140.734 11.1841C140.719 11.0983 140.729 11.0102 140.762 10.9297C140.795 10.8491 140.849 10.7794 140.92 10.7282C140.99 10.6771 141.073 10.6467 141.16 10.6404C141.247 10.6341 141.333 10.6522 141.41 10.6926L142.92 11.486C142.986 11.521 143.06 11.5392 143.135 11.5392C143.21 11.5392 143.284 11.521 143.351 11.486Z" fill="#4786D1"/>
<path d="M20.5807 132.882C19.7871 132.882 19.0112 132.647 18.3513 132.206C17.6914 131.765 17.1771 131.138 16.8733 130.405C16.5696 129.672 16.4901 128.865 16.645 128.086C16.7998 127.308 17.182 126.593 17.7432 126.032C18.3044 125.471 19.0194 125.088 19.7979 124.934C20.5763 124.779 21.3831 124.858 22.1164 125.162C22.8496 125.466 23.4764 125.98 23.9173 126.64C24.3582 127.3 24.5936 128.076 24.5936 128.869C24.5925 129.933 24.1694 130.953 23.4171 131.706C22.6648 132.458 21.6447 132.881 20.5807 132.882ZM20.5807 125.96C20.005 125.96 19.4421 126.131 18.9634 126.451C18.4846 126.771 18.1115 127.226 17.8912 127.758C17.6708 128.289 17.6132 128.875 17.7255 129.44C17.8378 130.004 18.1151 130.523 18.5222 130.93C18.9294 131.337 19.4481 131.614 20.0128 131.727C20.5775 131.839 21.1628 131.781 21.6948 131.561C22.2267 131.341 22.6814 130.968 23.0013 130.489C23.3212 130.01 23.4919 129.447 23.4919 128.872C23.4919 128.099 23.1852 127.359 22.6392 126.813C22.0933 126.267 21.3528 125.96 20.5807 125.96Z" fill="#4786D1"/>
<path d="M22.0259 130.314C22.8239 129.516 22.8239 128.222 22.0259 127.424C21.2279 126.626 19.934 126.626 19.1359 127.424C18.3379 128.222 18.3379 129.516 19.1359 130.314C19.934 131.112 21.2279 131.112 22.0259 130.314Z" fill="#4786D1"/>
<path d="M103.542 152.841C104.561 152.841 105.387 152.016 105.387 150.997C105.387 149.979 104.561 149.153 103.542 149.153C102.524 149.153 101.698 149.979 101.698 150.997C101.698 152.016 102.524 152.841 103.542 152.841Z" fill="#4786D1"/>
<path d="M72.9277 6.34097C73.9463 6.34097 74.772 5.51524 74.772 4.49666C74.772 3.47807 73.9463 2.65234 72.9277 2.65234C71.9091 2.65234 71.0834 3.47807 71.0834 4.49666C71.0834 5.51524 71.9091 6.34097 72.9277 6.34097Z" fill="#4786D1"/>
</svg>
