<svg width="150" height="112" viewBox="0 0 150 112" fill="none" xmlns="http://www.w3.org/2000/svg">
<g clip-path="url(#clip0)">
<path d="M150 98.235H0V98.31H150V98.235Z" fill="#EBEBEB"/>
<path d="M134.97 103.062H125.034V103.137H134.97V103.062Z" fill="#EBEBEB"/>
<path d="M81.966 102.123H78.099V102.198H81.966V102.123Z" fill="#EBEBEB"/>
<path d="M104.901 102.438H96.759V102.513H104.901V102.438Z" fill="#EBEBEB"/>
<path d="M124.734 100.278H107.901V100.353H124.734V100.278Z" fill="#EBEBEB"/>
<path d="M23.697 103.749H15.738V103.824H23.697V103.749Z" fill="#EBEBEB"/>
<path d="M33.2669 103.749H26.3669V103.824H33.2669V103.749Z" fill="#EBEBEB"/>
<path d="M57.5431 102.084H39.3V102.159H57.5431V102.084Z" fill="#EBEBEB"/>
<path d="M71.1 84.855H13.173C12.7192 84.8542 12.2843 84.6734 11.9637 84.3522C11.6431 84.031 11.463 83.5958 11.463 83.142V1.713C11.463 1.2592 11.6431 0.823949 11.9637 0.502785C12.2843 0.181622 12.7192 0.00079474 13.173 0L71.1 0C71.5543 0 71.99 0.180476 72.3113 0.501726C72.6325 0.822976 72.813 1.25868 72.813 1.713V83.142C72.813 83.3669 72.7687 83.5897 72.6826 83.7975C72.5965 84.0054 72.4704 84.1942 72.3113 84.3533C72.1522 84.5123 71.9634 84.6385 71.7556 84.7246C71.5477 84.8107 71.325 84.855 71.1 84.855ZM13.173 0.075C12.7391 0.0757947 12.3232 0.24872 12.0167 0.555818C11.7102 0.862917 11.538 1.27909 11.538 1.713V83.142C11.538 83.5759 11.7102 83.9921 12.0167 84.2992C12.3232 84.6063 12.7391 84.7792 13.173 84.78H71.1C71.5342 84.7792 71.9504 84.6064 72.2574 84.2994C72.5644 83.9923 72.7372 83.5762 72.738 83.142V1.713C72.7372 1.27882 72.5644 0.862648 72.2574 0.555635C71.9504 0.248622 71.5342 0.075793 71.1 0.075H13.173Z" fill="#EBEBEB"/>
<path d="M135.993 84.855H78.063C77.6089 84.8542 77.1737 84.6735 76.8526 84.3524C76.5315 84.0313 76.3508 83.5961 76.35 83.142V1.713C76.3508 1.25893 76.5315 0.82368 76.8526 0.502602C77.1737 0.181524 77.6089 0.000793141 78.063 0L135.993 0C136.446 0.00158766 136.88 0.182765 137.2 0.503842C137.52 0.82492 137.7 1.25972 137.7 1.713V83.142C137.7 83.5953 137.52 84.0301 137.2 84.3511C136.88 84.6722 136.446 84.8534 135.993 84.855ZM78.063 0.075C77.6288 0.075793 77.2126 0.248622 76.9056 0.555635C76.5986 0.862648 76.4258 1.27882 76.425 1.713V83.142C76.4258 83.5762 76.5986 83.9923 76.9056 84.2994C77.2126 84.6064 77.6288 84.7792 78.063 84.78H135.993C136.427 84.7792 136.843 84.6064 137.15 84.2994C137.457 83.9923 137.63 83.5762 137.631 83.142V1.713C137.63 1.27882 137.457 0.862648 137.15 0.555635C136.843 0.248622 136.427 0.075793 135.993 0.075H78.063Z" fill="#EBEBEB"/>
<path d="M79.47 72.432C78.87 70.707 74.133 73.053 72.21 75.912C70.929 77.814 70.146 79.848 69.783 82.578C69.825 79.461 69.876 76.116 69.924 72.957C70.314 72.171 71.202 70.353 71.838 68.916C73.971 64.116 79.038 62.316 80.787 59.298C83.082 55.326 83.067 49.371 81.117 47.22C79.419 45.354 73.8 57.984 73.167 59.394C71.44 63.1703 70.3522 67.2073 69.948 71.34C69.996 68.373 70.041 65.64 70.077 63.54C70.197 56.685 70.344 54.48 70.413 53.802C70.647 53.472 70.923 53.085 71.085 52.878C72.444 51.126 75.462 49.044 76.968 46.497C79.17 42.783 78.816 38.337 77.268 36.681C75.654 34.947 72.798 39.039 71.283 43.095C69.768 47.151 70.416 51.03 69.99 54.399C69.903 55.059 69.81 57.567 69.726 61.047C69.264 57.303 68.349 54.795 66.651 52.458C64.551 49.581 62.751 46.083 61.044 46.533C59.337 46.983 60.249 51.633 61.611 54.87C62.811 57.765 68.811 60.654 69.681 62.97C69.576 67.689 69.483 73.662 69.417 79.227C68.946 76.353 69.27 76.113 67.338 71.712C66.192 69.096 61.485 65.871 60.924 67.668C60.363 69.465 61.224 72.861 62.991 75.24C64.425 77.16 67.605 77.157 68.34 78.348C68.514 78.627 69.081 79.692 69.405 80.304C69.327 87.096 69.294 93.09 69.333 95.136L69.633 95.157C69.633 94.629 69.657 91.173 69.717 86.601C70.491 84.168 75.69 82.746 77.295 80.217C78.984 77.592 80.193 74.502 79.47 72.432Z" fill="#E6E6E6"/>
<path d="M74.583 98.235H64.605C64.3399 98.2353 64.0829 98.1437 63.8777 97.9758C63.6726 97.8078 63.532 97.574 63.48 97.314L62.772 93.822H76.416L75.705 97.314C75.6536 97.5737 75.5136 97.8075 75.3089 97.9755C75.1043 98.1435 74.8477 98.2352 74.583 98.235Z" fill="#F0F0F0"/>
<path d="M76.7009 95.178H62.487C62.3216 95.1775 62.1622 95.1159 62.0393 95.0052C61.9164 94.8945 61.8387 94.7424 61.821 94.578L61.521 91.995C61.5109 91.9014 61.5206 91.8067 61.5494 91.7171C61.5782 91.6275 61.6256 91.5449 61.6884 91.4748C61.7512 91.4046 61.828 91.3485 61.9139 91.3099C61.9998 91.2713 62.0928 91.2513 62.187 91.251H76.9829C77.077 91.2512 77.1699 91.2713 77.2557 91.3099C77.3414 91.3485 77.4181 91.4047 77.4806 91.4749C77.5432 91.5451 77.5902 91.6277 77.6187 91.7173C77.6472 91.8069 77.6565 91.9015 77.646 91.995L77.346 94.578C77.3293 94.7391 77.2548 94.8888 77.1361 94.9991C77.0175 95.1095 76.8629 95.173 76.7009 95.178Z" fill="#F0F0F0"/>
<path d="M120.231 96.984H129.786V56.211H120.231V96.984Z" fill="#F0F0F0"/>
<path d="M79.635 98.2321H129.141V96.981H79.635V98.2321Z" fill="#F0F0F0"/>
<path d="M120.228 56.2109H78.9929V96.984H120.228V56.2109Z" fill="#F5F5F5"/>
<path d="M116.472 72.282H82.749V80.916H116.472V72.282Z" fill="#F0F0F0"/>
<path d="M116.472 83.394H82.749V92.028H116.472V83.394Z" fill="#F0F0F0"/>
<path d="M95.826 73.77H103.395C103.91 73.77 104.328 73.353 104.328 72.8385C104.328 72.3241 103.91 71.907 103.395 71.907H95.826C95.3107 71.907 94.893 72.3241 94.893 72.8385C94.893 73.353 95.3107 73.77 95.826 73.77Z" fill="#F5F5F5"/>
<path d="M116.472 61.17H82.749V69.804H116.472V61.17Z" fill="#F0F0F0"/>
<path d="M95.8259 62.658H103.395C103.642 62.6573 103.879 62.5587 104.054 62.3839C104.229 62.2091 104.327 61.9722 104.328 61.725C104.326 61.4784 104.227 61.2423 104.053 61.0681C103.878 60.894 103.642 60.7958 103.395 60.795H95.8259C95.5793 60.7958 95.3429 60.894 95.1681 61.0681C94.9934 61.2423 94.8945 61.4784 94.8929 61.725C94.8937 61.9722 94.9923 62.2091 95.1671 62.3839C95.3419 62.5587 95.5787 62.6573 95.8259 62.658Z" fill="#F5F5F5"/>
<path d="M95.8259 84.882H103.395C103.642 84.8813 103.878 84.7831 104.053 84.609C104.227 84.4348 104.326 84.1987 104.328 83.952C104.327 83.7048 104.229 83.468 104.054 83.2932C103.879 83.1184 103.642 83.0198 103.395 83.019H95.8259C95.5787 83.0198 95.3419 83.1184 95.1671 83.2932C94.9923 83.468 94.8937 83.7048 94.8929 83.952C94.8945 84.1987 94.9934 84.4348 95.1681 84.609C95.3429 84.7831 95.5793 84.8813 95.8259 84.882Z" fill="#F5F5F5"/>
<path d="M78.144 56.2109L120.228 56.2109V55.047L78.144 55.047V56.2109Z" fill="#F0F0F0"/>
<path d="M130.692 55.047H120.228V56.211H130.692V55.047Z" fill="#E6E6E6"/>
<path d="M44.2231 98.235H53.6641L53.6641 37.176H44.2231L44.2231 98.235Z" fill="#E0E0E0"/>
<path d="M20.163 98.235H51.774L55.095 23.079H23.484L20.163 98.235Z" fill="#E6E6E6"/>
<path d="M15.552 98.235H50.52L53.838 23.079H18.873L15.552 98.235Z" fill="#F0F0F0"/>
<path d="M47.0971 94.5511L49.8931 26.7631H22.2961L19.4971 94.5511H47.0971Z" fill="white"/>
<path d="M35.238 94.5511L44.619 26.7631H41.676L32.295 94.5511H35.238Z" fill="#FAFAFA"/>
<path d="M31.047 94.5511L40.4279 26.7631H35.409L26.028 94.5511H31.047Z" fill="#FAFAFA"/>
<path d="M88.0411 43.5481L126.3 43.5481V7.7581L88.0411 7.7581V43.5481Z" fill="#E6E6E6"/>
<path d="M86.8499 43.5481L125.742 43.5481V7.7581L86.8499 7.7581V43.5481Z" fill="#F5F5F5"/>
<path d="M88.0411 45.015L126.3 45.015V43.551L88.0411 43.551V45.015Z" fill="#E6E6E6"/>
<path d="M85.788 45.015L122.082 45.015V43.551L85.788 43.551V45.015Z" fill="#F5F5F5"/>
<path d="M124.08 41.331V9.97803L88.5121 9.97803V41.331H124.08Z" fill="#FAFAFA"/>
<path d="M88.752 41.331V9.97803H88.515V41.331H88.752Z" fill="#E6E6E6"/>
<path d="M118.182 41.331L112.032 9.97803H103.971L110.121 41.331H118.182Z" fill="white"/>
<path d="M108.816 41.331L102.666 9.97803H99.027L105.177 41.331H108.816Z" fill="white"/>
<path d="M122.892 39.633V6.53102C122.892 6.42995 122.81 6.34802 122.709 6.34802H122.694C122.593 6.34802 122.511 6.42995 122.511 6.53102V39.633C122.511 39.7341 122.593 39.816 122.694 39.816H122.709C122.81 39.816 122.892 39.7341 122.892 39.633Z" fill="#EBEBEB"/>
<path opacity="0.5" d="M85.9799 11.8259L126.945 11.8259V6.34793L85.9799 6.34793V11.8259Z" fill="#E6E6E6"/>
<path d="M85.9799 7.02893L126.945 7.02893V6.34793L85.9799 6.34793V7.02893Z" fill="#E0E0E0"/>
<path d="M86.049 6.64502L126.879 6.64502C127.023 6.64502 127.14 6.52817 127.14 6.38402V6.30902C127.14 6.16487 127.023 6.04802 126.879 6.04802L86.049 6.04802C85.9049 6.04802 85.788 6.16487 85.788 6.30902V6.38402C85.788 6.52817 85.9049 6.64502 86.049 6.64502Z" fill="#EBEBEB"/>
<path d="M85.929 11.967H126.996C127.034 11.9662 127.07 11.9507 127.096 11.9238C127.122 11.8969 127.137 11.8607 127.137 11.823C127.137 11.7856 127.122 11.7497 127.096 11.7233C127.069 11.6969 127.033 11.682 126.996 11.682H85.929C85.8914 11.682 85.8552 11.6968 85.8283 11.7231C85.8013 11.7495 85.7858 11.7853 85.785 11.823C85.7858 11.861 85.8012 11.8971 85.8281 11.924C85.8549 11.9508 85.8911 11.9662 85.929 11.967Z" fill="white"/>
<path d="M75 111.783C107.125 111.783 133.167 110.263 133.167 108.387C133.167 106.511 107.125 104.991 75 104.991C42.8753 104.991 16.833 106.511 16.833 108.387C16.833 110.263 42.8753 111.783 75 111.783Z" fill="#F5F5F5"/>
<path d="M19.4535 65.1371L19.1495 65.1726L19.6896 69.7911L19.9936 69.7556L19.4535 65.1371Z" fill="#407BFF"/>
<path d="M20.1953 71.4734L19.8914 71.5089L20.1638 73.839L20.4678 73.8035L20.1953 71.4734Z" fill="#407BFF"/>
<path d="M40.377 55.722L40.017 54.711C39.7694 54.0161 39.2932 53.4258 38.6665 53.0367C38.0398 52.6476 37.2996 52.4827 36.567 52.569L22.23 54.246C21.8048 54.2955 21.3936 54.4283 21.0198 54.6368C20.646 54.8453 20.317 55.1254 20.0515 55.4611C19.786 55.7968 19.5892 56.1816 19.4724 56.5934C19.3557 57.0051 19.3212 57.4359 19.371 57.861L23.451 92.754C23.5202 93.343 23.8203 93.8805 24.2855 94.2484C24.7507 94.6163 25.3429 94.7844 25.932 94.716L77.232 88.716C77.5235 88.6818 77.8055 88.5904 78.0617 88.4472C78.318 88.304 78.5435 88.1117 78.7254 87.8813C78.9073 87.6509 79.0421 87.3869 79.122 87.1045C79.2019 86.822 79.2253 86.5265 79.191 86.235L75.66 56.073C75.5916 55.4842 75.292 54.9468 74.8273 54.5788C74.3626 54.2109 73.7708 54.0426 73.182 54.111L43.392 57.6C42.751 57.675 42.1035 57.5301 41.5557 57.1889C41.0079 56.8476 40.5923 56.3304 40.377 55.722Z" fill="#407BFF"/>
<path d="M41.8089 40.5495L25.6006 43.7794L30.0506 66.1103L46.2589 62.8804L41.8089 40.5495Z" fill="#407BFF"/>
<path opacity="0.7" d="M41.8089 40.5495L25.6006 43.7794L30.0506 66.1103L46.2589 62.8804L41.8089 40.5495Z" fill="white"/>
<g opacity="0.4">
<path opacity="0.4" d="M39.645 45.921L29.661 47.91C29.4284 47.9551 29.1874 47.9067 28.9903 47.7753C28.7931 47.6439 28.6558 47.44 28.608 47.208C28.5637 46.9758 28.6125 46.7356 28.7439 46.5391C28.8752 46.3427 29.0785 46.2058 29.31 46.158L39.3 44.169C39.5326 44.1238 39.7736 44.1722 39.9707 44.3036C40.1678 44.435 40.3052 44.6389 40.353 44.871C40.3971 45.104 40.3475 45.3449 40.2149 45.5416C40.0823 45.7382 39.8775 45.8745 39.645 45.921Z" fill="#407BFF"/>
<path opacity="0.4" d="M40.38 49.614L30.396 51.6C30.1639 51.6443 29.9236 51.5955 29.7272 51.4641C29.5307 51.3328 29.3938 51.1295 29.346 50.898C29.3017 50.6659 29.3505 50.4257 29.4819 50.2292C29.6132 50.0327 29.8166 49.8958 30.048 49.848L40.032 47.856C40.2641 47.8118 40.5044 47.8606 40.7008 47.9919C40.8973 48.1232 41.0342 48.3266 41.082 48.558C41.128 48.7911 41.0801 49.0328 40.9486 49.2306C40.8171 49.4285 40.6127 49.5663 40.38 49.614Z" fill="#407BFF"/>
<path opacity="0.4" d="M41.1149 53.307L31.1309 55.296C30.8988 55.3402 30.6586 55.2914 30.4621 55.1601C30.2657 55.0287 30.1288 54.8254 30.0809 54.594C30.0358 54.3614 30.0842 54.1204 30.2156 53.9232C30.347 53.7261 30.5509 53.5887 30.7829 53.541L40.7669 51.5519C40.9991 51.5077 41.2393 51.5565 41.4358 51.6878C41.6322 51.8192 41.7691 52.0225 41.8169 52.2539C41.8621 52.4865 41.8137 52.7275 41.6823 52.9247C41.5509 53.1218 41.347 53.2592 41.1149 53.307Z" fill="#407BFF"/>
<path opacity="0.4" d="M41.8529 57.0001L31.8689 58.992C31.6363 59.0372 31.3953 58.9888 31.1982 58.8574C31.0011 58.726 30.8637 58.5221 30.8159 58.2901C30.7708 58.0575 30.8192 57.8165 30.9506 57.6193C31.082 57.4222 31.2859 57.2848 31.5179 57.2371L41.5019 55.2481C41.7345 55.2029 41.9755 55.2513 42.1726 55.3827C42.3698 55.5141 42.5071 55.718 42.5549 55.9501C42.5992 56.1822 42.5504 56.4224 42.4191 56.6189C42.2877 56.8153 42.0844 56.9522 41.8529 57.0001Z" fill="#407BFF"/>
<path opacity="0.4" d="M39.858 61.233L32.604 62.679C32.3719 62.7233 32.1317 62.6745 31.9352 62.5431C31.7387 62.4118 31.6018 62.2084 31.554 61.977C31.5098 61.7449 31.5586 61.5046 31.6899 61.3082C31.8212 61.1117 32.0246 60.9748 32.256 60.927L39.51 59.481C39.7422 59.4368 39.9824 59.4856 40.1789 59.6169C40.3753 59.7482 40.5122 59.9516 40.56 60.183C40.6043 60.4152 40.5555 60.6554 40.4241 60.8518C40.2928 61.0483 40.0895 61.1852 39.858 61.233Z" fill="#407BFF"/>
</g>
<path d="M64.904 36.2451L48.5295 38.4852L51.6158 61.0451L67.9903 58.805L64.904 36.2451Z" fill="#407BFF"/>
<path opacity="0.7" d="M64.904 36.2451L48.5295 38.4852L51.6158 61.0451L67.9903 58.805L64.904 36.2451Z" fill="white"/>
<g opacity="0.4">
<path opacity="0.4" d="M62.4181 41.475L52.3321 42.855C52.0972 42.8858 51.8596 42.8228 51.6709 42.6796C51.4822 42.5363 51.3576 42.3245 51.3241 42.09C51.2932 41.8551 51.3563 41.6176 51.4995 41.4288C51.6427 41.2401 51.8545 41.1155 52.0891 41.082L62.1751 39.702C62.4099 39.6712 62.6475 39.7342 62.8362 39.8774C63.0249 40.0206 63.1495 40.2325 63.1831 40.467C63.2139 40.7019 63.1508 40.9394 63.0076 41.1281C62.8644 41.3168 62.6526 41.4415 62.4181 41.475Z" fill="#407BFF"/>
<path opacity="0.4" d="M62.928 45.204L52.842 46.584C52.6072 46.6148 52.3696 46.5518 52.1809 46.4085C51.9922 46.2653 51.8676 46.0535 51.834 45.819C51.8041 45.5846 51.8675 45.3478 52.0107 45.1598C52.1538 44.9717 52.3651 44.8475 52.599 44.814L62.7 43.431C62.9349 43.4002 63.1725 43.4632 63.3612 43.6064C63.5499 43.7496 63.6745 43.9615 63.708 44.196C63.7232 44.3134 63.715 44.4327 63.684 44.5469C63.6529 44.6612 63.5997 44.7682 63.5272 44.8618C63.4548 44.9555 63.3645 45.0339 63.2617 45.0926C63.1589 45.1513 63.0455 45.1892 62.928 45.204Z" fill="#407BFF"/>
<path opacity="0.4" d="M56.1301 49.9351L53.3521 50.3131C53.1176 50.3439 52.8805 50.2813 52.6919 50.1387C52.5032 49.9961 52.3783 49.785 52.3441 49.5511C52.3133 49.3162 52.3763 49.0786 52.5195 48.8899C52.6627 48.7012 52.8746 48.5766 53.1091 48.5431L55.8901 48.1621C56.1245 48.1321 56.3613 48.1955 56.5493 48.3387C56.7373 48.4818 56.8615 48.6931 56.8951 48.9271C56.9259 49.1619 56.8629 49.3995 56.7196 49.5882C56.5764 49.7769 56.3646 49.9015 56.1301 49.9351Z" fill="#407BFF"/>
<path opacity="0.4" d="M61.5211 49.2L58.7401 49.581C58.5057 49.6109 58.2689 49.5475 58.0808 49.4044C57.8928 49.2612 57.7686 49.0499 57.7351 48.816C57.7043 48.5811 57.7673 48.3435 57.9105 48.1548C58.0537 47.9661 58.2656 47.8415 58.5001 47.808L61.2781 47.427C61.5129 47.3961 61.7505 47.4592 61.9392 47.6024C62.1279 47.7456 62.2525 47.9575 62.2861 48.192C62.3169 48.4268 62.2538 48.6644 62.1106 48.8531C61.9674 49.0418 61.7556 49.1664 61.5211 49.2Z" fill="#407BFF"/>
<path opacity="0.4" d="M63.9481 52.6649L53.8621 54.0449C53.6272 54.0757 53.3896 54.0127 53.2009 53.8695C53.0122 53.7263 52.8876 53.5144 52.8541 53.2799C52.8233 53.045 52.8863 52.8075 53.0295 52.6188C53.1727 52.4301 53.3846 52.3054 53.6191 52.2719L63.7051 50.8919C63.94 50.8611 64.1775 50.9242 64.3662 51.0674C64.5549 51.2106 64.6796 51.4224 64.7131 51.6569C64.7439 51.8918 64.6809 52.1294 64.5376 52.3181C64.3944 52.5068 64.1826 52.6314 63.9481 52.6649Z" fill="#407BFF"/>
<path opacity="0.4" d="M61.7041 56.7721L54.3721 57.7741C54.1377 57.8041 53.9009 57.7406 53.7128 57.5975C53.5248 57.4544 53.4006 57.243 53.3671 57.0091C53.337 56.7751 53.4001 56.5387 53.5426 56.3508C53.6851 56.1628 53.8957 56.0383 54.1291 56.0041L61.4611 54.9991C61.6955 54.9691 61.9323 55.0326 62.1203 55.1757C62.3083 55.3188 62.4325 55.5302 62.4661 55.7641C62.4969 55.9985 62.4343 56.2357 62.2917 56.4243C62.1491 56.6129 61.938 56.7379 61.7041 56.7721Z" fill="#407BFF"/>
</g>
<path d="M49.4522 39.5398L32.9875 40.9745L34.9642 63.6585L51.4288 62.2239L49.4522 39.5398Z" fill="#407BFF"/>
<path opacity="0.8" d="M49.4522 39.5398L32.9875 40.9745L34.9642 63.6585L51.4288 62.2239L49.4522 39.5398Z" fill="white"/>
<g opacity="0.4">
<path opacity="0.4" d="M46.713 44.64L36.57 45.525C36.334 45.5442 36.1 45.4696 35.9186 45.3174C35.7372 45.1652 35.6231 44.9477 35.601 44.712C35.5818 44.476 35.6564 44.242 35.8086 44.0606C35.9607 43.8792 36.1783 43.7651 36.414 43.743L46.557 42.861C46.793 42.8418 47.027 42.9164 47.2084 43.0686C47.3898 43.2207 47.5039 43.4383 47.526 43.674C47.5443 43.9095 47.4694 44.1428 47.3173 44.3235C47.1652 44.5042 46.9481 44.6179 46.713 44.64Z" fill="#407BFF"/>
<path opacity="0.4" d="M47.0399 48.393L36.8999 49.275C36.664 49.2942 36.4299 49.2196 36.2485 49.0674C36.0672 48.9152 35.9531 48.6977 35.9309 48.462C35.9126 48.2265 35.9875 47.9932 36.1396 47.8125C36.2917 47.6318 36.5088 47.5181 36.7439 47.496L46.8869 46.611C47.1229 46.5918 47.357 46.6664 47.5384 46.8186C47.7197 46.9707 47.8338 47.1883 47.856 47.424C47.8751 47.6605 47.8001 47.8949 47.6473 48.0764C47.4945 48.2578 47.2762 48.3716 47.0399 48.393Z" fill="#407BFF"/>
<path opacity="0.4" d="M47.3669 52.143L37.2239 53.028C36.9879 53.0472 36.7539 52.9726 36.5725 52.8204C36.3911 52.6683 36.277 52.4507 36.2549 52.215C36.2357 51.979 36.3103 51.745 36.4625 51.5636C36.6147 51.3822 36.8322 51.2681 37.0679 51.246L47.2109 50.361C47.4469 50.3418 47.6809 50.4164 47.8623 50.5686C48.0437 50.7207 48.1578 50.9383 48.1799 51.174C48.1991 51.41 48.1245 51.644 47.9724 51.8254C47.8202 52.0068 47.6027 52.1209 47.3669 52.143Z" fill="#407BFF"/>
<path opacity="0.4" d="M47.6999 55.893L37.5569 56.778C37.3209 56.7972 37.0869 56.7226 36.9055 56.5704C36.7241 56.4183 36.61 56.2007 36.5879 55.965C36.5687 55.729 36.6433 55.495 36.7955 55.3136C36.9477 55.1322 37.1652 55.0181 37.4009 54.996L47.5439 54.111C47.7799 54.0918 48.0139 54.1664 48.1953 54.3186C48.3767 54.4707 48.4908 54.6883 48.5129 54.924C48.5321 55.16 48.4575 55.394 48.3054 55.5754C48.1532 55.7568 47.9356 55.8709 47.6999 55.893Z" fill="#407BFF"/>
<path opacity="0.4" d="M45.249 59.8859L37.878 60.5279C37.642 60.5471 37.4079 60.4725 37.2266 60.3203C37.0452 60.1682 36.9311 59.9506 36.909 59.7149C36.8898 59.4789 36.9644 59.2449 37.1165 59.0635C37.2687 58.8821 37.4862 58.768 37.722 58.7459L45.093 58.1039C45.329 58.0847 45.563 58.1593 45.7444 58.3115C45.9258 58.4637 46.0399 58.6812 46.062 58.9169C46.0812 59.1529 46.0066 59.3869 45.8544 59.5683C45.7022 59.7497 45.4847 59.8638 45.249 59.8859Z" fill="#407BFF"/>
</g>
<path d="M69.5158 38.4337L53.0079 39.2295L54.1044 61.9731L70.6122 61.1773L69.5158 38.4337Z" fill="#407BFF"/>
<path opacity="0.8" d="M69.5158 38.4337L53.0079 39.2295L54.1044 61.9731L70.6122 61.1773L69.5158 38.4337Z" fill="white"/>
<g opacity="0.4">
<path opacity="0.4" d="M66.582 43.4251L56.4151 43.9171C56.1783 43.9269 55.9472 43.8429 55.772 43.6834C55.5967 43.5239 55.4915 43.3017 55.479 43.0651C55.4692 42.8288 55.5528 42.5981 55.7117 42.423C55.8705 42.2478 56.0919 42.1423 56.328 42.1291L66.498 41.6401C66.7343 41.6302 66.9649 41.7138 67.1401 41.8727C67.3153 42.0315 67.4208 42.253 67.434 42.4891C67.4438 42.7258 67.3599 42.9569 67.2004 43.1321C67.0409 43.3074 66.8187 43.4126 66.582 43.4251Z" fill="#407BFF"/>
<path opacity="0.4" d="M66.7651 47.1841L56.5951 47.6761C56.3588 47.6859 56.1282 47.6024 55.953 47.4435C55.7779 47.2846 55.6723 47.0632 55.6591 46.8271C55.6493 46.5903 55.7333 46.3593 55.8928 46.184C56.0523 46.0088 56.2745 45.9035 56.5111 45.8911L66.6781 45.3991C66.9144 45.3893 67.145 45.4728 67.3202 45.6317C67.4953 45.7906 67.6009 46.012 67.6141 46.2481C67.6239 46.4844 67.5404 46.715 67.3815 46.8902C67.2226 47.0653 67.0012 47.1709 66.7651 47.1841Z" fill="#407BFF"/>
<path opacity="0.4" d="M59.5801 51.3L56.7781 51.435C56.5413 51.4449 56.3102 51.3609 56.135 51.2014C55.9598 51.0419 55.8545 50.8197 55.8421 50.583C55.8331 50.3458 55.9183 50.1146 56.079 49.9399C56.2397 49.7651 56.4629 49.661 56.7001 49.6501L59.5021 49.5151C59.7388 49.5052 59.9699 49.5892 60.1451 49.7487C60.3204 49.9082 60.4256 50.1304 60.4381 50.3671C60.447 50.6043 60.3619 50.8355 60.2012 51.0102C60.0405 51.185 59.8172 51.2891 59.5801 51.3Z" fill="#407BFF"/>
<path opacity="0.4" d="M65.0131 51.0391L62.2111 51.1741C61.9748 51.1839 61.7442 51.1004 61.569 50.9415C61.3939 50.7826 61.2883 50.5612 61.2751 50.3251C61.2652 50.0888 61.3488 49.8582 61.5077 49.683C61.6665 49.5079 61.888 49.4023 62.1241 49.3891L64.9261 49.2541C65.1623 49.2442 65.393 49.3278 65.5681 49.4867C65.7433 49.6456 65.8489 49.867 65.8621 50.1031C65.8719 50.3393 65.7883 50.57 65.6295 50.7451C65.4706 50.9203 65.2492 51.0259 65.0131 51.0391Z" fill="#407BFF"/>
<path opacity="0.4" d="M67.128 54.705L56.958 55.2C56.7217 55.2098 56.4911 55.1263 56.3159 54.9674C56.1408 54.8085 56.0352 54.5871 56.022 54.351C56.0122 54.1143 56.0962 53.8832 56.2557 53.7079C56.4152 53.5327 56.6374 53.4275 56.874 53.415L67.041 52.923C67.2773 52.9132 67.5079 52.9967 67.6831 53.1556C67.8582 53.3145 67.9638 53.5359 67.977 53.772C67.986 54.0078 67.9021 54.2376 67.7433 54.4121C67.5845 54.5866 67.3636 54.6918 67.128 54.705Z" fill="#407BFF"/>
<path opacity="0.4" d="M64.53 58.602L57.141 58.959C56.9042 58.9688 56.6732 58.8849 56.4979 58.7253C56.3227 58.5658 56.2174 58.3436 56.205 58.107C56.1952 57.8707 56.2787 57.6401 56.4376 57.4649C56.5965 57.2898 56.8179 57.1842 57.054 57.171L64.443 56.814C64.6798 56.8042 64.9108 56.8882 65.0861 57.0477C65.2613 57.2072 65.3666 57.4294 65.379 57.666C65.3888 57.9023 65.3053 58.1329 65.1464 58.3081C64.9875 58.4832 64.7661 58.5888 64.53 58.602Z" fill="#407BFF"/>
</g>
<path d="M44.955 56.367L44.7 55.38C44.5151 54.6969 44.0856 54.1056 43.4933 53.7184C42.9009 53.3312 42.1869 53.1752 41.487 53.28L27.15 54.957C26.2818 55.0634 25.482 55.4823 24.9 56.1354C24.3181 56.7886 23.9939 57.6312 23.988 58.506L24.801 92.658C24.8054 92.9395 24.8701 93.2167 24.9908 93.4711C25.1114 93.7254 25.2853 93.9509 25.5005 94.1323C25.7158 94.3137 25.9675 94.4469 26.2386 94.5227C26.5097 94.5986 26.7939 94.6154 27.072 94.572L78.372 88.572C78.9679 88.5003 79.5172 88.2136 79.9166 87.7656C80.316 87.3176 80.538 86.7392 80.541 86.139L79.8391 56.616C79.8338 56.3345 79.7684 56.0575 79.6472 55.8034C79.526 55.5493 79.3519 55.324 79.1365 55.1428C78.9212 54.9615 78.6695 54.8284 78.3985 54.7523C78.1274 54.6763 77.8433 54.6591 77.565 54.702L47.766 58.2C47.1542 58.2923 46.5299 58.1565 46.0116 57.8186C45.4933 57.4806 45.1173 56.964 44.955 56.367Z" fill="#407BFF"/>
<path opacity="0.3" d="M44.955 56.367L44.7 55.38C44.5151 54.6969 44.0856 54.1056 43.4933 53.7184C42.9009 53.3312 42.1869 53.1752 41.487 53.28L27.15 54.957C26.2818 55.0634 25.482 55.4823 24.9 56.1354C24.3181 56.7886 23.9939 57.6312 23.988 58.506L24.801 92.658C24.8054 92.9395 24.8701 93.2167 24.9908 93.4711C25.1114 93.7254 25.2853 93.9509 25.5005 94.1323C25.7158 94.3137 25.9675 94.4469 26.2386 94.5227C26.5097 94.5986 26.7939 94.6154 27.072 94.572L78.372 88.572C78.9679 88.5003 79.5172 88.2136 79.9166 87.7656C80.316 87.3176 80.538 86.7392 80.541 86.139L79.8391 56.616C79.8338 56.3345 79.7684 56.0575 79.6472 55.8034C79.526 55.5493 79.3519 55.324 79.1365 55.1428C78.9212 54.9615 78.6695 54.8284 78.3985 54.7523C78.1274 54.6763 77.8433 54.6591 77.565 54.702L47.766 58.2C47.1542 58.2923 46.5299 58.1565 46.0116 57.8186C45.4933 57.4806 45.1173 56.964 44.955 56.367Z" fill="black"/>
<path d="M95.1 39.948C94.878 41.061 94.641 42.159 94.374 43.248C94.107 44.3371 93.846 45.438 93.555 46.5271L93.111 48.1561L93.054 48.3661C93.027 48.4531 92.997 48.5461 92.961 48.6391C92.8836 48.843 92.783 49.0373 92.661 49.2181C92.5119 49.4412 92.3215 49.6336 92.1 49.7851C91.8564 49.952 91.5748 50.0552 91.281 50.0851C90.832 50.1118 90.3849 50.0076 89.994 49.7851C89.6953 49.6248 89.4156 49.4316 89.16 49.2091C88.6977 48.8022 88.2875 48.3397 87.939 47.8321L88.8 47.1001C89.2082 47.4166 89.6394 47.7024 90.09 47.9551C90.2851 48.0681 90.4924 48.1587 90.708 48.2251C90.891 48.2851 91.053 48.2761 91.053 48.2461C91.053 48.2161 91.023 48.2461 91.008 48.2461C90.993 48.2461 91.008 48.2461 91.008 48.1951C91.008 48.1441 91.044 48.0901 91.065 48.0091L91.134 47.6791L91.482 46.0411L92.187 42.765C92.415 41.673 92.661 40.578 92.898 39.498L95.1 39.948Z" fill="#FFC3BD"/>
<path d="M94.104 36.5189C91.545 38.4779 91.65 42.1709 91.65 42.1709L96.225 43.2629C96.225 43.2629 97.632 39.5519 97.062 38.1929C96.468 36.7739 95.547 35.4149 94.104 36.5189Z" fill="#263238"/>
<path d="M89.028 47.1599L87.345 45.4769L86.4449 48.1079C86.4449 48.1079 87.867 48.8759 89.226 48.1529L89.028 47.1599Z" fill="#FFC3BD"/>
<path d="M85.014 45.2161L84.705 47.2981L86.436 48.1081L87.345 45.4771L85.014 45.2161Z" fill="#FFC3BD"/>
<path d="M108.936 106.173L106.362 106.422L103.683 100.296L106.257 100.044L108.936 106.173Z" fill="#FFC3BD"/>
<path d="M125.52 97.113L123.585 98.928L119.412 94.341L121.347 92.526L125.52 97.113Z" fill="#FFC3BD"/>
<path d="M122.7 98.0579L124.152 95.4389C124.177 95.3936 124.217 95.3589 124.266 95.3412C124.315 95.3235 124.368 95.3241 124.416 95.3429L126.651 96.1949C126.706 96.2181 126.756 96.2527 126.797 96.2964C126.838 96.3402 126.869 96.392 126.889 96.4486C126.908 96.5053 126.915 96.5654 126.91 96.625C126.905 96.6847 126.887 96.7426 126.858 96.7949C126.336 97.6949 126.039 98.1089 125.4 99.2609C125.007 99.9689 124.242 101.592 123.699 102.561C123.156 103.53 122.16 103.056 122.298 102.6C122.919 100.554 122.802 99.4169 122.628 98.5139C122.598 98.3581 122.624 98.1969 122.7 98.0579Z" fill="#263238"/>
<path d="M106.02 105.627H109.182C109.239 105.628 109.293 105.647 109.338 105.682C109.383 105.716 109.416 105.765 109.431 105.819L110.118 108.321C110.135 108.38 110.138 108.442 110.126 108.502C110.115 108.563 110.089 108.619 110.052 108.668C110.015 108.717 109.967 108.756 109.911 108.783C109.856 108.81 109.795 108.823 109.734 108.822C108.618 108.822 108.09 108.822 106.701 108.822H102.453C101.295 108.822 101.055 107.652 101.532 107.547C103.677 107.073 104.91 106.419 105.573 105.795C105.695 105.684 105.855 105.623 106.02 105.627Z" fill="#263238"/>
<path opacity="0.2" d="M103.686 100.299L105.066 103.455H107.751L106.26 100.047L103.686 100.299Z" fill="black"/>
<path opacity="0.2" d="M121.347 92.526L119.412 94.344L121.566 96.708L123.501 94.89L121.347 92.526Z" fill="black"/>
<path d="M94.878 36.138C94.878 36.138 93.72 36.648 97.602 52.008L108.384 51.075C107.826 46.704 107.586 43.998 108.903 34.809C107.367 34.6273 105.82 34.5581 104.274 34.602C102.634 34.6266 100.998 34.7679 99.378 35.025C97.8603 35.3203 96.3584 35.6917 94.878 36.138Z" fill="#263238"/>
<path d="M104.274 34.527C104.274 34.527 104.874 34.527 105.606 34.527C106.041 35.199 104.631 38.127 102.306 40.047C101.952 38.9812 101.302 38.0384 100.431 37.329L104.274 34.527Z" fill="white"/>
<path d="M99.378 34.986C99.378 34.986 99.105 35.025 98.454 35.175C98.019 35.844 97.284 38.703 98.565 40.161C98.8875 39.0553 99.5344 38.0719 100.422 37.338L99.378 34.986Z" fill="white"/>
<path d="M103.311 29.13C103.14 30.732 103.08 33.645 104.274 34.602C104.274 34.602 102.999 35.901 100.422 37.338C98.5469 36.042 99.3779 35.025 99.3779 35.025C101.097 34.455 100.938 33.153 100.527 31.956L103.311 29.13Z" fill="#FFC3BD"/>
<path d="M100.377 37.347C100.377 37.347 101.958 35.625 102.777 35.955C103.596 36.285 102.963 36.876 102.891 37.431C102.819 37.986 103.209 39.462 102.114 39.078C101.019 38.694 100.377 37.347 100.377 37.347Z" fill="#407BFF"/>
<path d="M100.314 37.3109C100.314 37.3109 99.567 35.9909 98.76 36.1679C97.953 36.3449 98.433 36.8069 98.505 37.3019C98.598 37.9409 97.926 39.162 98.898 38.802C99.87 38.442 100.314 37.3109 100.314 37.3109Z" fill="#407BFF"/>
<g opacity="0.2">
<path opacity="0.2" d="M99.9 37.0259C99.8895 37.292 99.9408 37.557 100.05 37.7999C100.15 37.644 100.237 37.4805 100.311 37.3109C100.199 37.1234 100.072 36.9457 99.93 36.7799C99.9056 36.8595 99.8954 36.9428 99.9 37.0259Z" fill="black"/>
<path opacity="0.2" d="M100.953 36.7889C100.614 37.0889 100.38 37.3439 100.38 37.3439C100.467 37.5248 100.568 37.6993 100.68 37.8659C100.862 37.6834 100.969 37.4394 100.98 37.1819C101.009 37.0511 101 36.9146 100.953 36.7889Z" fill="black"/>
</g>
<path d="M100.359 37.8869C100.134 37.8869 99.996 37.6439 99.981 37.0649C99.966 36.4859 100.41 36.8069 100.41 36.8069C100.41 36.8069 101.01 36.5069 100.902 37.1999C100.824 37.7489 100.59 37.8869 100.359 37.8869Z" fill="#407BFF"/>
<path opacity="0.2" d="M102.177 30.282L100.53 31.956C100.629 32.2341 100.704 32.5201 100.755 32.811C101.418 32.655 102.378 31.968 102.387 31.257C102.376 30.9221 102.304 30.5919 102.177 30.282Z" fill="black"/>
<path d="M100.764 23.718C100.764 23.718 98.964 26.211 98.664 27.318C97.44 28.029 97.194 24.519 97.842 22.353C99.864 23.616 100.764 23.718 100.764 23.718Z" fill="#263238"/>
<path d="M104.721 26.628C104.052 29.187 103.821 30.282 102.255 31.356C99.894 32.97 96.897 31.587 96.786 28.881C96.687 26.445 97.797 22.668 100.536 22.137C101.14 22.0145 101.764 22.0489 102.351 22.2369C102.938 22.4249 103.466 22.7602 103.886 23.2108C104.306 23.6614 104.603 24.2122 104.749 24.8105C104.895 25.4088 104.886 26.0346 104.721 26.628Z" fill="#FFC3BD"/>
<path d="M106.113 25.605C106.113 25.605 104.826 27.705 104.652 28.605C103.719 29.238 103.326 26.46 103.719 24.705C104.148 23.142 106.113 25.605 106.113 25.605Z" fill="#263238"/>
<path d="M105.6 24.156C105.228 24.435 104.835 23.394 105.204 22.599C104.493 22.641 103.638 22.221 103.821 21.534C102.42 22.005 101.901 20.577 102.063 19.593C102.258 18.393 103.302 18.138 103.917 18.453C103.917 17.916 105.273 16.794 105.789 17.673C106.746 17.334 108.288 17.439 108.255 18.615C108.888 18.633 110.757 19.35 110.055 21.015C110.88 21.063 111.327 22.11 110.868 22.902C111.049 22.9978 111.204 23.1357 111.32 23.304C111.437 23.4724 111.511 23.6662 111.536 23.8692C111.562 24.0722 111.538 24.2784 111.467 24.4704C111.396 24.6623 111.28 24.8344 111.129 24.972C111.51 25.764 110.355 26.94 109.74 26.799C109.272 27.519 108.555 28.059 108.087 27.444C107.187 28.11 106.152 27.267 106.383 26.619C105.363 26.463 104.322 24.759 105.6 24.156Z" fill="#263238"/>
<path d="M107.124 21.6359C107.796 22.7579 107.739 24.0359 107.001 24.4709C106.263 24.9059 105.114 24.3659 104.442 23.2439C103.77 22.1219 103.824 20.8439 104.565 20.4089C105.306 19.9739 106.452 20.5139 107.124 21.6359Z" fill="#407BFF"/>
<path d="M100.884 23.4C100.845 23.724 99.96 23.64 99.705 23.073C99.339 23.457 98.478 23.655 98.184 23.238C97.686 24.174 96.684 23.928 96.426 23.478C96.168 23.028 95.997 22.203 96.516 22.038C96.216 21.78 96.306 20.565 97.092 20.718C97.422 20.07 98.325 19.335 98.985 19.905C99.345 19.605 100.785 18.981 101.367 20.127C101.495 20.0398 101.641 19.9828 101.794 19.9602C101.947 19.9376 102.103 19.95 102.251 19.9965C102.398 20.043 102.533 20.1224 102.646 20.2286C102.758 20.3349 102.845 20.4653 102.9 20.61C103.833 20.367 104.238 21.075 104.235 21.456C104.898 21.639 104.943 22.785 104.535 23.028C104.694 23.607 104.61 24.228 104.001 24.177C103.884 24.957 102.84 25.077 102.594 24.651C101.916 25.098 100.533 24.342 100.884 23.4Z" fill="#263238"/>
<path d="M99.3 21.201C100.059 20.151 102.828 19.701 105.225 21.288C107.385 22.707 107.244 26.001 105.525 25.827C103.806 25.653 102.108 23.637 102.108 23.637L99.3 21.201Z" fill="#263238"/>
<path d="M104.931 28.938C104.693 29.3885 104.286 29.7269 103.8 29.88C103.149 30.075 102.813 29.499 102.981 28.878C103.134 28.32 103.653 27.546 104.31 27.624C104.453 27.6435 104.589 27.6984 104.705 27.7837C104.822 27.869 104.915 27.9821 104.977 28.1126C105.039 28.2431 105.067 28.387 105.059 28.5311C105.051 28.6752 105.007 28.8151 104.931 28.938Z" fill="#FFC3BD"/>
<path d="M97.602 52.0079C97.602 52.0079 93.954 68.1479 96.402 79.5269C98.034 87.1469 103.902 102.54 103.902 102.54L108.504 102.423C108.504 102.423 104.049 86.2679 103.128 79.9229C101.553 69.0539 105.498 51.3329 105.498 51.3329L97.602 52.0079Z" fill="#407BFF"/>
<path opacity="0.2" d="M101.808 55.266L104.1 58.893C103.407 63.1945 102.968 67.533 102.783 71.886C99.558 66.096 101.1 58.332 101.808 55.266Z" fill="black"/>
<path d="M103.254 102.78L108.936 102.633L108.609 100.887L102.81 101.163L103.254 102.78Z" fill="#263238"/>
<path d="M99.9601 51.837C99.9601 51.837 102.099 68.952 106.74 78.297C110.487 85.845 120.486 96.597 120.486 96.597L123.042 93.963C123.042 93.963 116.289 82.287 113.505 77.274C106.674 64.974 112.257 55.599 108.384 51.084L99.9601 51.837Z" fill="#407BFF"/>
<path d="M120.228 96.939L123.528 93.723L122.433 92.235L118.932 95.727L120.228 96.939Z" fill="#263238"/>
<path d="M108.492 50.43L109.062 51.351C109.107 51.423 109.023 51.507 108.9 51.519L97.5901 52.5C97.4941 52.5 97.4101 52.467 97.3981 52.407L97.2181 51.45C97.2031 51.384 97.2841 51.321 97.3891 51.312L108.309 50.367C108.342 50.3597 108.377 50.3617 108.409 50.3728C108.442 50.3839 108.47 50.4037 108.492 50.43Z" fill="#407BFF"/>
<path opacity="0.5" d="M108.492 50.43L109.062 51.351C109.107 51.423 109.023 51.507 108.9 51.519L97.5901 52.5C97.4941 52.5 97.4101 52.467 97.3981 52.407L97.2181 51.45C97.2031 51.384 97.2841 51.321 97.3891 51.312L108.309 50.367C108.342 50.3597 108.377 50.3617 108.409 50.3728C108.442 50.3839 108.47 50.4037 108.492 50.43Z" fill="white"/>
<path d="M107.13 51.777L107.43 51.75C107.487 51.75 107.529 51.714 107.523 51.675L107.277 50.433C107.277 50.397 107.217 50.373 107.157 50.376L106.857 50.403C106.797 50.403 106.755 50.442 106.764 50.478L107.01 51.72C107.019 51.756 107.073 51.783 107.13 51.777Z" fill="#407BFF"/>
<path d="M98.421 52.5299L98.721 52.5059C98.778 52.5059 98.82 52.4669 98.814 52.4309L98.568 51.1859C98.568 51.1499 98.508 51.1259 98.448 51.1289L98.148 51.1559C98.088 51.1559 98.046 51.1949 98.055 51.2309L98.301 52.4729C98.31 52.4999 98.364 52.5359 98.421 52.5299Z" fill="#407BFF"/>
<path d="M102.777 52.152L103.077 52.128C103.137 52.128 103.179 52.089 103.17 52.053L102.924 50.811C102.924 50.775 102.864 50.748 102.807 50.754L102.507 50.778C102.45 50.778 102.408 50.817 102.414 50.853L102.66 52.095C102.666 52.134 102.717 52.158 102.777 52.152Z" fill="#407BFF"/>
<path d="M98.823 26.5951C98.5422 27.0401 98.2009 27.444 97.809 27.7951C97.8999 27.8953 98.0119 27.9741 98.1369 28.026C98.2619 28.0779 98.3968 28.1015 98.532 28.0951L98.823 26.5951Z" fill="#ED847E"/>
<path d="M99.5071 29.1001C99.9503 29.1048 100.379 28.9419 100.707 28.6441C100.717 28.634 100.722 28.6206 100.722 28.6066C100.722 28.5926 100.717 28.5792 100.707 28.5691C100.697 28.5594 100.684 28.554 100.67 28.554C100.656 28.554 100.642 28.5594 100.632 28.5691C100.431 28.7478 100.19 28.8764 99.9289 28.9441C99.6682 29.0119 99.3951 29.017 99.1321 28.9591C99.1254 28.9579 99.1185 28.9581 99.1119 28.9595C99.1052 28.961 99.099 28.9638 99.0934 28.9677C99.0878 28.9716 99.0831 28.9765 99.0794 28.9823C99.0758 28.988 99.0733 28.9944 99.0721 29.0011C99.0709 29.0078 99.071 29.0147 99.0725 29.0213C99.074 29.0279 99.0768 29.0342 99.0807 29.0398C99.0846 29.0454 99.0895 29.0501 99.0952 29.0538C99.101 29.0574 99.1074 29.0599 99.1141 29.0611C99.2435 29.0867 99.3751 29.0998 99.5071 29.1001Z" fill="#263238"/>
<path d="M101.82 25.722C101.838 25.7265 101.856 25.7265 101.874 25.722C101.898 25.7077 101.915 25.6845 101.922 25.6575C101.929 25.6305 101.924 25.6019 101.91 25.578C101.811 25.4095 101.673 25.267 101.507 25.1627C101.342 25.0583 101.154 24.995 100.959 24.978C100.931 24.978 100.904 24.9891 100.885 25.0088C100.865 25.0285 100.854 25.0552 100.854 25.083C100.854 25.1109 100.865 25.1376 100.885 25.1573C100.904 25.177 100.931 25.188 100.959 25.188C101.12 25.205 101.275 25.2605 101.41 25.3498C101.545 25.439 101.657 25.5595 101.736 25.701C101.748 25.7103 101.761 25.717 101.776 25.7206C101.79 25.7242 101.805 25.7247 101.82 25.722Z" fill="#263238"/>
<path d="M97.3441 24.8761C97.3608 24.8799 97.3783 24.8799 97.3951 24.8761C97.5343 24.7936 97.691 24.7449 97.8526 24.7339C98.0141 24.723 98.1759 24.7501 98.325 24.8131C98.3494 24.8259 98.3778 24.8287 98.4041 24.8209C98.4305 24.813 98.4527 24.7951 98.466 24.7711C98.4788 24.7459 98.4813 24.7168 98.4729 24.6899C98.4645 24.663 98.4459 24.6404 98.421 24.6271C98.2409 24.5473 98.0443 24.5117 97.8476 24.5232C97.6509 24.5347 97.4597 24.5929 97.2901 24.6931C97.2665 24.7069 97.2492 24.7293 97.242 24.7557C97.2347 24.782 97.2379 24.8101 97.2511 24.8341C97.2613 24.8488 97.2753 24.8606 97.2917 24.868C97.3081 24.8754 97.3262 24.8782 97.3441 24.8761Z" fill="#263238"/>
<path d="M109.362 37.2631C109.566 37.4611 109.707 37.6141 109.866 37.7941C110.025 37.9741 110.166 38.1421 110.31 38.3221C110.595 38.6791 110.868 39.0421 111.123 39.4201C111.629 40.1755 112.079 40.9677 112.467 41.7901C112.853 42.618 113.165 43.4783 113.4 44.3611C113.517 44.8051 113.622 45.2611 113.7 45.7021C113.849 46.3392 113.776 47.0081 113.493 47.5981C113.329 47.9094 113.101 48.1824 112.824 48.3991C112.584 48.5834 112.321 48.7347 112.041 48.8491C111.559 49.0333 111.055 49.1524 110.541 49.2031C109.629 49.2906 108.711 49.2786 107.802 49.1671C106.061 48.9651 104.344 48.5995 102.672 48.0751L102.948 46.9891C103.764 47.1241 104.604 47.2501 105.432 47.3341C106.26 47.4181 107.094 47.4991 107.913 47.5171C108.706 47.5481 109.501 47.5049 110.286 47.3881C110.624 47.3331 110.953 47.2321 111.264 47.0881C111.454 47.016 111.612 46.876 111.705 46.6951C111.73 46.6259 111.742 46.5527 111.741 46.4791C111.745 46.4251 111.745 46.371 111.741 46.3171C111.741 46.2541 111.72 46.2001 111.693 46.0921C111.609 45.7051 111.498 45.3241 111.378 44.9461C111.134 44.1924 110.833 43.4583 110.478 42.7501C110.121 42.0371 109.712 41.3512 109.254 40.6981C109.029 40.3711 108.792 40.0501 108.546 39.7411C108.423 39.5851 108.294 39.4411 108.168 39.2881C108.042 39.1351 107.898 38.9881 107.799 38.8801L109.362 37.2631Z" fill="#FFC3BD"/>
<path d="M103.635 47.1541L101.535 46.0381L101.439 48.8221C101.439 48.8221 102.939 48.9181 103.797 48.2221L103.635 47.1541Z" fill="#FFC3BD"/>
<path d="M99.951 62.1149L101.685 43.2719L97.98 40.4339L86.67 39.3929L84.705 60.7109L99.951 62.1149Z" fill="#407BFF"/>
<path opacity="0.8" d="M99.951 62.1149L101.685 43.2719L97.98 40.4339L86.67 39.3929L84.705 60.7109L99.951 62.1149Z" fill="white"/>
<path d="M101.685 43.272L97.98 40.434L98.952 43.83L101.685 43.272Z" fill="#407BFF"/>
<path d="M86.031 64.005C88.5826 64.005 90.651 61.9366 90.651 59.385C90.651 56.8335 88.5826 54.765 86.031 54.765C83.4795 54.765 81.411 56.8335 81.411 59.385C81.411 61.9366 83.4795 64.005 86.031 64.005Z" fill="#407BFF"/>
<path d="M88.3152 62.2732C89.9117 61.0119 90.1834 58.6952 88.9221 57.0987C87.6608 55.5022 85.3441 55.2305 83.7476 56.4917C82.1512 57.753 81.8794 60.0697 83.1407 61.6662C84.402 63.2627 86.7187 63.5345 88.3152 62.2732Z" fill="white"/>
<path d="M88.308 59.0609L86.682 58.8689L86.871 57.2459L85.707 57.1079L85.518 58.7339L83.892 58.5419L83.754 59.7089L85.38 59.8979L85.188 61.5239L86.355 61.6619L86.544 60.0359L88.17 60.2249L88.308 59.0609Z" fill="#407BFF"/>
<path opacity="0.4" d="M98.919 47.175C98.9043 47.3401 98.8571 47.5006 98.7802 47.6474C98.7032 47.7942 98.598 47.9243 98.4706 48.0302C98.3432 48.1362 98.1961 48.2159 98.0377 48.2648C97.8794 48.3136 97.7129 48.3307 97.548 48.3151L89.298 47.556C89.1331 47.541 88.9727 47.4936 88.8262 47.4165C88.6796 47.3394 88.5496 47.2342 88.4438 47.1069C88.3379 46.9795 88.2581 46.8326 88.2091 46.6744C88.1601 46.5162 88.1427 46.3499 88.158 46.185C88.173 46.0201 88.2205 45.8598 88.2975 45.7132C88.3746 45.5667 88.4798 45.4367 88.6072 45.3308C88.7345 45.225 88.8814 45.1452 89.0396 45.0962C89.1978 45.0472 89.3641 45.0298 89.529 45.045L97.779 45.804C98.1117 45.8352 98.4185 45.9971 98.6322 46.254C98.8459 46.511 98.949 46.8422 98.919 47.175Z" fill="#407BFF"/>
<path opacity="0.4" d="M96.108 50.5801C96.093 50.745 96.0455 50.9053 95.9685 51.0519C95.8914 51.1984 95.7862 51.3284 95.6588 51.4343C95.5315 51.5401 95.3846 51.6199 95.2264 51.6689C95.0682 51.718 94.9019 51.7353 94.737 51.7201L88.971 51.1921C88.6383 51.1609 88.3315 50.9991 88.1178 50.7421C87.9041 50.4851 87.801 50.1539 87.831 49.8211C87.8615 49.4878 88.023 49.1802 88.28 48.9659C88.5371 48.7516 88.8687 48.6481 89.202 48.6781L94.968 49.2001C95.1338 49.2151 95.2949 49.2628 95.4421 49.3405C95.5893 49.4181 95.7197 49.5241 95.8257 49.6524C95.9317 49.7808 96.0112 49.9288 96.0597 50.088C96.1081 50.2472 96.1246 50.4145 96.108 50.5801Z" fill="#407BFF"/>
<path d="M100.251 46.206L100.566 48.285L101.436 48.822L101.532 46.041L100.251 46.206Z" fill="#FFC3BD"/>
<path d="M108.9 34.8C110.223 35.034 112.077 38.826 112.077 38.826L108.744 41.826C108.744 41.826 106.092 38.937 106.233 37.215C106.356 35.772 107.22 34.5 108.9 34.8Z" fill="#263238"/>
<path d="M122.184 99.465C122.219 99.465 122.253 99.4589 122.286 99.447C122.604 99.342 122.811 98.757 122.907 98.418C122.909 98.4078 122.908 98.3973 122.905 98.3874C122.902 98.3775 122.896 98.3684 122.889 98.361C122.88 98.356 122.871 98.3534 122.861 98.3534C122.851 98.3534 122.841 98.356 122.832 98.361C122.736 98.412 121.89 98.865 121.863 99.198C121.859 99.2343 121.866 99.2709 121.882 99.3037C121.898 99.3365 121.922 99.3643 121.953 99.384C122.019 99.4355 122.1 99.4639 122.184 99.465ZM122.784 98.511C122.637 98.979 122.448 99.288 122.268 99.348C122.227 99.3606 122.184 99.3623 122.142 99.3528C122.101 99.3433 122.062 99.323 122.031 99.294C122.015 99.2848 122.002 99.2711 121.993 99.2546C121.985 99.2381 121.981 99.2195 121.983 99.201C121.983 99 122.478 98.673 122.769 98.511H122.784Z" fill="#407BFF"/>
<path d="M122.052 98.6431C122.34 98.6418 122.624 98.5751 122.883 98.4481C122.89 98.4431 122.896 98.4364 122.901 98.4286C122.905 98.4207 122.907 98.412 122.907 98.4031C122.907 98.3938 122.905 98.3845 122.9 98.3765C122.895 98.3686 122.888 98.3621 122.88 98.3581C122.853 98.3401 122.184 97.9741 121.824 98.1001C121.778 98.1136 121.737 98.1378 121.702 98.1707C121.668 98.2035 121.642 98.2441 121.626 98.2891C121.604 98.3311 121.596 98.3796 121.605 98.4265C121.613 98.4734 121.638 98.5159 121.674 98.5471C121.786 98.6203 121.919 98.654 122.052 98.6431ZM122.739 98.4031C122.454 98.5231 121.899 98.5981 121.743 98.4661C121.716 98.4451 121.689 98.4091 121.725 98.3281C121.736 98.2982 121.754 98.2711 121.777 98.2488C121.799 98.2265 121.827 98.2095 121.857 98.1991C122.1 98.1001 122.55 98.3101 122.739 98.4001V98.4031Z" fill="#407BFF"/>
<path d="M104.619 106.14C104.909 106.133 105.198 106.096 105.48 106.029C105.491 106.028 105.502 106.022 105.509 106.014C105.517 106.006 105.521 105.995 105.522 105.984C105.523 105.973 105.521 105.962 105.516 105.952C105.51 105.943 105.502 105.935 105.492 105.93C105.363 105.87 104.214 105.33 103.926 105.534C103.9 105.552 103.879 105.577 103.866 105.606C103.853 105.635 103.848 105.667 103.851 105.699C103.852 105.758 103.866 105.815 103.893 105.868C103.92 105.92 103.959 105.965 104.007 105.999C104.192 106.107 104.405 106.157 104.619 106.14ZM105.3 105.96C104.961 106.023 104.331 106.107 104.07 105.909C104.036 105.884 104.008 105.852 103.988 105.814C103.968 105.777 103.957 105.735 103.956 105.693C103.954 105.679 103.955 105.665 103.96 105.653C103.966 105.64 103.975 105.629 103.986 105.621C104.145 105.513 104.823 105.75 105.3 105.96Z" fill="#407BFF"/>
<path d="M105.468 106.032C105.48 106.035 105.492 106.035 105.504 106.032C105.512 106.025 105.517 106.017 105.52 106.007C105.522 105.998 105.522 105.987 105.519 105.978C105.519 105.93 105.249 104.799 104.619 104.871C104.463 104.889 104.418 104.967 104.412 105.03C104.373 105.33 105.096 105.897 105.441 106.038L105.468 106.032ZM104.682 104.961C105.081 104.961 105.312 105.618 105.39 105.882C105.015 105.687 104.49 105.216 104.523 105.03C104.523 105.03 104.523 104.976 104.64 104.964L104.682 104.961Z" fill="#407BFF"/>
</g>
<defs>
<clipPath id="clip0">
<rect width="150" height="111.783" fill="white"/>
</clipPath>
</defs>
</svg>
