<svg width="111" height="112" viewBox="0 0 111 112" fill="none" xmlns="http://www.w3.org/2000/svg">
<g clip-path="url(#clip0)">
<path d="M105.03 76.559C94.7249 101.225 67.2754 115.043 43.473 111.315C39.5993 110.709 28.9803 108.902 19.5785 100.379C1.47813 83.9708 -2.39359 51.4819 12.2076 28.5841C22.8334 11.9196 41.882 2.47293 59.9816 2.94538C63.8804 3.04731 78.8219 3.67444 91.9526 14.6815C93.8815 16.2979 98.1362 20.1399 101.969 26.233C110.971 40.5456 111.745 60.4845 105.03 76.559Z" fill="url(#paint0_linear)"/>
<path d="M0.611573 71.9569C2.3709 64.4328 8.12442 58.5268 15.4486 56.7201C20.484 55.4783 25.3152 56.145 29.3983 58.1591C30.7547 58.8266 32.3624 58.0711 32.7375 56.5767C36.3471 42.2033 49.0513 31.5847 64.1704 31.5847C82.0984 31.5847 96.6318 46.5149 96.6318 64.9317C96.6318 65.4205 96.6218 66.0884 96.6138 66.7304C96.6772 68.1077 97.2625 68.6925 98.1362 68.8392C105.161 69.5886 110.68 75.5359 110.985 82.8728C111.337 91.297 104.662 98.2766 96.4542 98.2766H20.5315C7.53439 98.2766 -2.64219 85.8706 0.611573 71.9569Z" fill="url(#paint1_linear)"/>
<path opacity="0.21" d="M6.49207 74.7764C8.0627 68.0586 13.1999 62.7852 19.7393 61.1724C24.2353 60.0632 28.5491 60.6584 32.195 62.4551C33.4042 63.051 34.8412 62.3751 35.1763 61.0421C38.3993 48.2088 49.7424 38.7278 63.2417 38.7278C79.2488 38.7278 92.2252 52.0584 92.2252 68.5022C92.2252 68.9387 92.2168 69.5351 92.2092 70.107C92.2659 71.3369 92.7885 71.8589 93.5688 71.9901C99.8401 72.6608 104.769 77.972 105.042 84.5228C105.357 92.0449 99.3969 98.2767 92.0684 98.2767H24.2776C12.6733 98.2767 3.58699 87.1996 6.49207 74.7764Z" fill="#91B3FA"/>
<path d="M15.3071 107.29C15.3086 107.586 15.4272 107.871 15.6369 108.08C15.8467 108.29 16.1307 108.408 16.427 108.409H76.9862C77.2825 108.408 77.5665 108.29 77.7763 108.08C77.986 107.871 78.1046 107.586 78.106 107.29L78.6099 72.4212C78.6099 71.8049 77.885 70.601 76.5562 70.6917L17.3713 69.1572C16.989 69.1472 16.6088 69.215 16.2535 69.3567C15.8983 69.4983 15.5754 69.7108 15.3046 69.9812C15.0338 70.2517 14.8207 70.5744 14.6781 70.9299C14.5356 71.2853 14.4666 71.6661 14.4754 72.0491L15.3071 107.29Z" fill="url(#paint2_linear)"/>
<path d="M16.413 106.214C16.4139 106.495 16.5259 106.765 16.7247 106.964C16.9235 107.163 17.1928 107.275 17.4738 107.276H75.5256C75.8064 107.275 76.0754 107.163 76.2739 106.964C76.4724 106.765 76.5843 106.495 76.5852 106.214L77.0607 74.5606C77.0045 72.6556 75.3377 71.9709 74.3276 72.0112L17.6042 70.4868C17.3356 70.4797 17.0683 70.5274 16.8186 70.627C16.5689 70.7267 16.342 70.8761 16.1517 71.0663C15.9614 71.2564 15.8117 71.4833 15.7117 71.7333C15.6116 71.9832 15.5633 72.2509 15.5696 72.5201L16.413 106.214Z" fill="#7D97F4"/>
<path d="M75.9584 91.1763C75.9377 91.1761 75.9174 91.1718 75.8984 91.1636C75.8795 91.1554 75.8624 91.1435 75.8481 91.1286C75.8338 91.1137 75.8226 91.0962 75.8151 91.0769C75.8077 91.0576 75.8042 91.0371 75.8047 91.0164L75.8423 88.4495C75.8429 88.4087 75.8595 88.3697 75.8885 88.341C75.9176 88.3123 75.9567 88.2961 75.9975 88.296C76.0181 88.2962 76.0385 88.3005 76.0574 88.3087C76.0763 88.3169 76.0934 88.3288 76.1077 88.3437C76.122 88.3586 76.1332 88.3762 76.1407 88.3954C76.1481 88.4147 76.1516 88.4353 76.1511 88.4559L76.1136 91.0232C76.1129 91.064 76.0963 91.103 76.0673 91.1316C76.0382 91.1602 75.9991 91.1763 75.9584 91.1763Z" fill="white"/>
<path d="M76.0496 84.8857C76.0084 84.8851 75.9691 84.8681 75.9404 84.8385C75.9117 84.8089 75.8959 84.7691 75.8964 84.7279L76.0404 74.8951C76.038 74.3111 75.8609 73.8446 75.5146 73.5125C74.8683 72.8917 73.8419 72.9237 73.7992 72.9257L55.6689 72.4385C55.6485 72.4379 55.6285 72.4333 55.6099 72.425C55.5913 72.4166 55.5745 72.4047 55.5605 72.3898C55.5465 72.375 55.5355 72.3575 55.5282 72.3384C55.521 72.3193 55.5175 72.299 55.5181 72.2786C55.5177 72.2579 55.5217 72.2373 55.5297 72.2182C55.5377 72.1991 55.5495 72.1818 55.5646 72.1676C55.5796 72.1533 55.5974 72.1424 55.6169 72.1354C55.6364 72.1284 55.6571 72.1256 55.6777 72.1271L73.7972 72.6143C73.9097 72.6075 75.0024 72.5888 75.73 73.2875C76.1398 73.6804 76.3488 74.2216 76.352 74.8963L76.2076 84.7315C76.2074 84.752 76.2032 84.7723 76.1952 84.7912C76.1871 84.8102 76.1754 84.8273 76.1607 84.8416C76.146 84.856 76.1286 84.8673 76.1096 84.8748C76.0905 84.8824 76.0701 84.8861 76.0496 84.8857Z" fill="white"/>
<path d="M10.6195 111.305L81.5651 111.305C81.6896 111.305 81.7905 111.204 81.7905 111.079V108.467C81.7905 108.342 81.6896 108.241 81.5651 108.241L10.6195 108.241C10.4951 108.241 10.3941 108.342 10.3941 108.467V111.079C10.3941 111.204 10.4951 111.305 10.6195 111.305Z" fill="url(#paint3_linear)"/>
<path d="M41.5988 105.732H19.2469C19.051 105.732 18.8569 105.693 18.6759 105.618C18.4948 105.543 18.3303 105.432 18.1918 105.294C18.0532 105.155 17.9433 104.99 17.8683 104.808C17.7934 104.627 17.7548 104.433 17.7549 104.236V75.0043C17.7548 74.8032 17.7953 74.6041 17.8739 74.419C17.9525 74.2339 18.0675 74.0666 18.2122 73.9271C18.3568 73.7876 18.528 73.6788 18.7156 73.6071C18.9033 73.5355 19.1034 73.5026 19.304 73.5102L41.6558 74.3676C42.0416 74.3821 42.4067 74.5458 42.6745 74.8243C42.9423 75.1029 43.092 75.4746 43.092 75.8613V104.236C43.092 104.433 43.0534 104.627 42.9783 104.809C42.9033 104.99 42.7933 105.155 42.6546 105.294C42.516 105.433 42.3513 105.543 42.1702 105.618C41.989 105.693 41.7948 105.732 41.5988 105.732Z" fill="#91B3FA"/>
<path opacity="0.51" d="M37.1535 84.9777H22.3476C22.2302 84.9777 22.135 85.073 22.135 85.1907V86.736C22.135 86.8536 22.2302 86.949 22.3476 86.949H37.1535C37.2709 86.949 37.3662 86.8536 37.3662 86.736V85.1907C37.3662 85.073 37.2709 84.9777 37.1535 84.9777Z" fill="white"/>
<path opacity="0.51" d="M37.1833 88.1257H22.3774C22.26 88.1257 22.1648 88.2211 22.1648 88.3388V89.884C22.1648 90.0017 22.26 90.0971 22.3774 90.0971H37.1833C37.3007 90.0971 37.3959 90.0017 37.3959 89.884V88.3388C37.3959 88.2211 37.3007 88.1257 37.1833 88.1257Z" fill="white"/>
<path opacity="0.51" d="M37.2724 91.3401H22.4665C22.3491 91.3401 22.2539 91.4355 22.2539 91.5531V93.0984C22.2539 93.216 22.3491 93.3114 22.4665 93.3114H37.2724C37.3899 93.3114 37.4851 93.216 37.4851 93.0984V91.5531C37.4851 91.4355 37.3899 91.3401 37.2724 91.3401Z" fill="white"/>
<path opacity="0.51" d="M37.3024 94.4883H22.4966C22.3791 94.4883 22.2839 94.5837 22.2839 94.7013V96.2466C22.2839 96.3642 22.3791 96.4596 22.4966 96.4596H37.3024C37.4199 96.4596 37.5151 96.3642 37.5151 96.2466V94.7013C37.5151 94.5837 37.4199 94.4883 37.3024 94.4883Z" fill="white"/>
<path opacity="0.51" d="M69.6232 84.9752H48.1506C48.0332 84.9752 47.938 85.0706 47.938 85.1883V86.7335C47.938 86.8512 48.0332 86.9466 48.1506 86.9466H69.6232C69.7406 86.9466 69.8358 86.8512 69.8358 86.7335V85.1883C69.8358 85.0706 69.7406 84.9752 69.6232 84.9752Z" fill="white"/>
<path opacity="0.51" d="M69.6908 88.1257H48.2183C48.1008 88.1257 48.0056 88.2211 48.0056 88.3388V89.884C48.0056 90.0017 48.1008 90.0971 48.2183 90.0971H69.6908C69.8083 90.0971 69.9034 90.0017 69.9034 89.884V88.3388C69.9034 88.2211 69.8083 88.1257 69.6908 88.1257Z" fill="white"/>
<path opacity="0.51" d="M60.7686 91.3401H48.2183C48.1008 91.3401 48.0056 91.4355 48.0056 91.5531V93.0984C48.0056 93.216 48.1008 93.3114 48.2183 93.3114H60.7686C60.886 93.3114 60.9812 93.216 60.9812 93.0984V91.5531C60.9812 91.4355 60.886 91.3401 60.7686 91.3401Z" fill="white"/>
<g opacity="0.51">
<path opacity="0.51" d="M59.5619 77.628H59.2283C59.1488 77.628 59.0725 77.5963 59.0162 77.5399C58.9599 77.4836 58.9283 77.4071 58.9283 77.3274V76.1838C58.9283 75.9875 58.8505 75.7992 58.7119 75.6604C58.5734 75.5216 58.3854 75.4436 58.1895 75.4436H56.1226C55.9266 75.4436 55.7387 75.5216 55.6001 75.6604C55.4616 75.7992 55.3837 75.9875 55.3837 76.1838V77.3262C55.3837 77.4059 55.3521 77.4824 55.2959 77.5387C55.2396 77.5951 55.1633 77.6268 55.0837 77.6268H54.7502C54.6706 77.6268 54.5943 77.5951 54.5381 77.5387C54.4818 77.4824 54.4502 77.4059 54.4502 77.3262V76.1838C54.4502 75.9638 54.4935 75.7459 54.5775 75.5427C54.6616 75.3394 54.7847 75.1547 54.94 74.9992C55.0953 74.8436 55.2797 74.7202 55.4826 74.6361C55.6855 74.5519 55.903 74.5086 56.1226 74.5087H58.1895C58.4091 74.5086 58.6265 74.5519 58.8294 74.6361C59.0323 74.7202 59.2167 74.8436 59.372 74.9992C59.5273 75.1547 59.6505 75.3394 59.7346 75.5427C59.8186 75.7459 59.8619 75.9638 59.8619 76.1838V77.3262C59.862 77.3658 59.8544 77.405 59.8394 77.4416C59.8244 77.4782 59.8023 77.5115 59.7744 77.5395C59.7465 77.5675 59.7134 77.5898 59.6769 77.605C59.6405 77.6201 59.6014 77.628 59.5619 77.628Z" fill="white"/>
<path opacity="0.51" d="M59.9759 77.8973H54.3377C54.1718 77.8974 54.0126 77.9636 53.8953 78.0812C53.778 78.1988 53.7122 78.3582 53.7122 78.5245V82.8588C53.7122 83.025 53.7781 83.1844 53.8954 83.302C54.0127 83.4195 54.1718 83.4855 54.3377 83.4855H59.9759C60.1418 83.4855 60.3009 83.4195 60.4182 83.302C60.5356 83.1844 60.6015 83.025 60.6015 82.8588V78.5245C60.6015 78.3582 60.5356 78.1988 60.4183 78.0812C60.301 77.9636 60.1419 77.8974 59.9759 77.8973ZM57.9637 82.0878C57.9718 82.1219 57.9721 82.1575 57.9646 82.1918C57.957 82.226 57.9419 82.2582 57.9202 82.2857C57.8985 82.3133 57.8709 82.3356 57.8394 82.3509C57.8079 82.3663 57.7733 82.3743 57.7383 82.3744H56.5754C56.5403 82.3743 56.5058 82.3663 56.4743 82.3509C56.4427 82.3356 56.4151 82.3133 56.3934 82.2857C56.3718 82.2582 56.3566 82.226 56.349 82.1918C56.3415 82.1575 56.3418 82.1219 56.35 82.0878L56.6212 80.9562C56.4248 80.8388 56.2722 80.66 56.1869 80.4472C56.1016 80.2345 56.0884 79.9996 56.1492 79.7786C56.21 79.5576 56.3415 79.3628 56.5235 79.2239C56.7055 79.085 56.928 79.0097 57.1568 79.0097C57.3856 79.0097 57.6081 79.085 57.7901 79.2239C57.9721 79.3628 58.1036 79.5576 58.1644 79.7786C58.2253 79.9996 58.212 80.2345 58.1267 80.4472C58.0415 80.66 57.8889 80.8388 57.6924 80.9562L57.9637 82.0878Z" fill="white"/>
</g>
<path d="M75.9756 27.0125C75.9529 27.0126 75.9305 27.0068 75.9106 26.9957C75.8795 26.9783 75.8566 26.9493 75.8469 26.9149C75.8372 26.8806 75.8414 26.8438 75.8588 26.8127C75.9449 26.6568 76.0287 26.4998 76.1101 26.3418C76.1264 26.31 76.1547 26.286 76.1887 26.2751C76.2227 26.2642 76.2596 26.2673 76.2914 26.2836C76.3231 26.3 76.3471 26.3284 76.358 26.3624C76.3688 26.3965 76.3658 26.4335 76.3494 26.4653C76.267 26.6252 76.1819 26.7851 76.0941 26.945C76.0822 26.9658 76.065 26.9831 76.0441 26.995C76.0233 27.0069 75.9996 27.0129 75.9756 27.0125Z" fill="#91B3FA"/>
<path d="M60.2642 36.2777C60.1845 36.2777 60.1047 36.2777 60.0249 36.2777C59.9905 36.2758 59.9582 36.2608 59.9346 36.2358C59.9109 36.2108 59.8978 36.1776 59.8978 36.1432C59.8978 36.1087 59.9109 36.0756 59.9346 36.0506C59.9582 36.0255 59.9905 36.0106 60.0249 36.0087C60.3724 36.0135 60.7234 36.0087 61.0701 35.9919C61.1055 35.9908 61.14 36.0036 61.1661 36.0275C61.1923 36.0515 61.2081 36.0848 61.2101 36.1202C61.2118 36.1559 61.1992 36.1907 61.1752 36.2171C61.1512 36.2435 61.1177 36.2592 61.0821 36.2609C60.814 36.2717 60.5371 36.2777 60.2642 36.2777ZM58.3202 36.1734H58.3058C57.9548 36.1334 57.6013 36.0862 57.2546 36.0283C57.2209 36.0209 57.1913 36.0008 57.1719 35.9722C57.1525 35.9436 57.1449 35.9086 57.1506 35.8744C57.1563 35.8403 57.1749 35.8097 57.2025 35.7889C57.2301 35.7681 57.2646 35.7588 57.2989 35.7629C57.6404 35.82 57.9891 35.8684 58.3362 35.9056C58.3703 35.9093 58.4018 35.926 58.424 35.9523C58.4463 35.9785 58.4576 36.0123 58.4558 36.0467C58.454 36.081 58.439 36.1134 58.4141 36.1371C58.3892 36.1608 58.3562 36.1741 58.3218 36.1742L58.3202 36.1734ZM62.7844 36.101C62.7507 36.1005 62.7184 36.0873 62.694 36.064C62.6696 36.0408 62.6547 36.0092 62.6524 35.9756C62.6501 35.9419 62.6605 35.9086 62.6815 35.8822C62.7026 35.8559 62.7327 35.8384 62.766 35.8332C63.1095 35.7848 63.4562 35.7253 63.7965 35.6569C63.8142 35.6524 63.8326 35.6515 63.8506 35.6544C63.8686 35.6572 63.8859 35.6637 63.9013 35.6735C63.9168 35.6832 63.9301 35.696 63.9404 35.711C63.9508 35.7261 63.958 35.7431 63.9616 35.761C63.9651 35.779 63.965 35.7974 63.9613 35.8153C63.9575 35.8332 63.9501 35.8501 63.9396 35.8651C63.9291 35.88 63.9156 35.8927 63.9001 35.9022C63.8845 35.9118 63.8672 35.9181 63.8491 35.9207C63.504 35.9903 63.1522 36.0506 62.8035 36.0998L62.7844 36.101ZM55.6034 35.6661C55.5917 35.6661 55.58 35.6645 55.5687 35.6613C55.2284 35.5706 54.8865 35.4683 54.5522 35.3572C54.52 35.3447 54.4937 35.3203 54.479 35.289C54.4642 35.2577 54.462 35.2219 54.4729 35.189C54.4838 35.1562 54.5069 35.1288 54.5374 35.1125C54.5679 35.0963 54.6035 35.0924 54.6368 35.1017C54.9659 35.2109 55.3026 35.312 55.6381 35.4015C55.6695 35.4101 55.6966 35.4298 55.7146 35.4569C55.7325 35.484 55.7401 35.5167 55.7359 35.549C55.7316 35.5812 55.7159 35.6109 55.6916 35.6324C55.6672 35.654 55.6359 35.6659 55.6034 35.6661ZM65.4808 35.5062C65.4486 35.5063 65.4174 35.4948 65.393 35.4738C65.3686 35.4528 65.3525 35.4237 65.3476 35.3918C65.3428 35.3599 65.3496 35.3273 65.3667 35.3C65.3838 35.2726 65.4101 35.2524 65.4409 35.2428C65.7736 35.1421 66.1071 35.0298 66.4319 34.9099C66.4486 34.903 66.4665 34.8996 66.4846 34.8999C66.5026 34.9001 66.5204 34.904 66.5369 34.9113C66.5535 34.9186 66.5684 34.9291 66.5807 34.9423C66.5931 34.9555 66.6027 34.971 66.6089 34.988C66.6152 35.0049 66.618 35.023 66.6171 35.0411C66.6162 35.0591 66.6117 35.0768 66.6039 35.0931C66.596 35.1094 66.585 35.1239 66.5714 35.1359C66.5578 35.1478 66.542 35.1568 66.5248 35.1625C66.1949 35.2844 65.8566 35.3979 65.5187 35.5007C65.5068 35.5037 65.4946 35.505 65.4824 35.5047L65.4808 35.5062ZM52.9991 34.748C52.9806 34.748 52.9623 34.7442 52.9453 34.7368C52.6221 34.5941 52.3002 34.4402 51.9878 34.2796C51.972 34.2716 51.9578 34.2605 51.9463 34.2471C51.9347 34.2336 51.9259 34.218 51.9204 34.2011C51.9148 34.1842 51.9127 34.1664 51.9141 34.1486C51.9155 34.1309 51.9204 34.1136 51.9284 34.0978C51.9365 34.082 51.9477 34.0679 51.9612 34.0564C51.9747 34.0449 51.9904 34.0362 52.0073 34.0308C52.0242 34.0254 52.042 34.0234 52.0597 34.025C52.0774 34.0265 52.0946 34.0315 52.1103 34.0397C52.4183 34.1996 52.7354 34.3495 53.0534 34.4898C53.0815 34.5023 53.1045 34.5241 53.1185 34.5516C53.1326 34.5791 53.1367 34.6105 53.1304 34.6407C53.124 34.6709 53.1075 34.698 53.0836 34.7174C53.0598 34.7369 53.0299 34.7475 52.9991 34.7476V34.748ZM68.056 34.4998C68.0256 34.4997 67.9962 34.4892 67.9725 34.4702C67.9488 34.4512 67.9322 34.4247 67.9255 34.3951C67.9187 34.3654 67.9222 34.3343 67.9353 34.3069C67.9484 34.2795 67.9704 34.2573 67.9977 34.244C68.3101 34.0933 68.6225 33.931 68.9261 33.7615C68.9415 33.7523 68.9587 33.7463 68.9765 33.7438C68.9943 33.7413 69.0125 33.7425 69.0299 33.7472C69.0472 33.7519 69.0635 33.76 69.0777 33.7711C69.0919 33.7822 69.1037 33.7961 69.1124 33.8119C69.1212 33.8276 69.1266 33.845 69.1286 33.8629C69.1305 33.8809 69.1288 33.899 69.1236 33.9163C69.1183 33.9335 69.1097 33.9496 69.0982 33.9634C69.0867 33.9773 69.0725 33.9887 69.0565 33.997C68.7485 34.1688 68.4314 34.3335 68.1142 34.4866C68.0961 34.4954 68.0761 34.4999 68.056 34.4998ZM50.5664 33.4398C50.5407 33.4398 50.5156 33.4323 50.4942 33.4182C50.1974 33.2279 49.903 33.0261 49.6165 32.8186C49.5877 32.7974 49.5684 32.7656 49.563 32.7302C49.5576 32.6948 49.5664 32.6587 49.5876 32.6298C49.6088 32.6009 49.6405 32.5816 49.6759 32.5762C49.7112 32.5707 49.7473 32.5796 49.7761 32.6008C50.0553 32.8054 50.3466 33.0041 50.6386 33.1919C50.6629 33.2077 50.6815 33.2309 50.6916 33.2582C50.7017 33.2854 50.7028 33.3151 50.6946 33.343C50.6864 33.3709 50.6695 33.3953 50.6463 33.4128C50.6232 33.4302 50.595 33.4397 50.566 33.4398H50.5664ZM70.4444 33.1088C70.4158 33.1087 70.388 33.0995 70.3649 33.0825C70.3419 33.0654 70.3249 33.0415 70.3164 33.0141C70.3079 32.9867 70.3084 32.9574 70.3177 32.9303C70.327 32.9031 70.3447 32.8797 70.3682 32.8634C70.6539 32.6659 70.9375 32.4573 71.2112 32.2434C71.225 32.2316 71.241 32.2227 71.2584 32.2173C71.2757 32.2119 71.294 32.21 71.3121 32.2118C71.3301 32.2137 71.3476 32.2191 71.3635 32.2279C71.3794 32.2367 71.3934 32.2487 71.4046 32.263C71.4157 32.2774 71.4239 32.2938 71.4285 32.3114C71.4332 32.329 71.4342 32.3474 71.4316 32.3654C71.4289 32.3834 71.4227 32.4007 71.4132 32.4162C71.4037 32.4317 71.3912 32.4452 71.3763 32.4557C71.0971 32.6727 70.8106 32.8846 70.5206 33.0852C70.4982 33.1007 70.4716 33.1089 70.4444 33.1088ZM48.3646 31.771C48.3319 31.771 48.3003 31.7591 48.2757 31.7374C48.0128 31.504 47.7523 31.2578 47.5021 31.01C47.4896 30.9975 47.4797 30.9827 47.4729 30.9664C47.4661 30.9502 47.4626 30.9327 47.4625 30.915C47.4625 30.8974 47.4659 30.8799 47.4726 30.8636C47.4793 30.8473 47.4891 30.8324 47.5015 30.8199C47.5139 30.8074 47.5287 30.7974 47.545 30.7906C47.5612 30.7838 47.5786 30.7803 47.5963 30.7802C47.6139 30.7802 47.6313 30.7836 47.6476 30.7903C47.6639 30.797 47.6787 30.8069 47.6912 30.8193C47.9382 31.0647 48.1947 31.3061 48.4536 31.5356C48.474 31.5537 48.4884 31.5776 48.4949 31.6041C48.5014 31.6306 48.4997 31.6585 48.4901 31.684C48.4804 31.7095 48.4633 31.7315 48.4409 31.747C48.4185 31.7626 48.3919 31.7709 48.3646 31.771ZM72.5931 31.3673C72.5662 31.3673 72.5399 31.3591 72.5177 31.344C72.4954 31.3288 72.4782 31.3073 72.4683 31.2823C72.4584 31.2572 72.4562 31.2298 72.462 31.2035C72.4678 31.1771 72.4814 31.1532 72.501 31.1347C72.7539 30.8948 73.0024 30.6466 73.2402 30.3944C73.265 30.3701 73.2983 30.3563 73.333 30.356C73.3677 30.3557 73.4012 30.3688 73.4265 30.3927C73.4517 30.4165 73.4668 30.4493 73.4685 30.484C73.4702 30.5188 73.4585 30.5528 73.4357 30.5791C73.1963 30.8353 72.9418 31.0879 72.6853 31.3305C72.6604 31.3541 72.6274 31.3673 72.5931 31.3673ZM46.4413 29.7845C46.4216 29.7844 46.4021 29.78 46.3843 29.7716C46.3664 29.7632 46.3506 29.7509 46.338 29.7357C46.113 29.4651 45.8924 29.1837 45.683 28.8995C45.6632 28.8707 45.6554 28.8354 45.6612 28.8009C45.6669 28.7664 45.6859 28.7356 45.7139 28.7148C45.742 28.6941 45.777 28.6851 45.8116 28.6897C45.8461 28.6943 45.8775 28.7122 45.8992 28.7396C46.1054 29.0194 46.3225 29.2968 46.5443 29.5638C46.5607 29.5834 46.5712 29.6073 46.5745 29.6327C46.5778 29.658 46.5738 29.6838 46.563 29.707C46.5522 29.7302 46.535 29.7498 46.5135 29.7635C46.4919 29.7772 46.4669 29.7845 46.4413 29.7845ZM74.4522 29.3208C74.427 29.3208 74.4023 29.3137 74.381 29.3004C74.3596 29.287 74.3424 29.2679 74.3314 29.2453C74.3203 29.2226 74.3158 29.1973 74.3184 29.1722C74.321 29.1471 74.3306 29.1233 74.3461 29.1034C74.5603 28.828 74.7677 28.5438 74.964 28.2588C74.9849 28.2313 75.0156 28.2129 75.0497 28.2074C75.0838 28.2019 75.1186 28.2097 75.1471 28.2293C75.1755 28.2489 75.1954 28.2787 75.2025 28.3125C75.2097 28.3463 75.2036 28.3816 75.1854 28.4111C74.986 28.7009 74.7753 28.9894 74.5583 29.2688C74.5457 29.285 74.5296 29.298 74.5112 29.307C74.4928 29.316 74.4726 29.3207 74.4522 29.3208ZM44.8408 27.5285C44.8176 27.5285 44.7947 27.5225 44.7745 27.511C44.7543 27.4995 44.7374 27.483 44.7255 27.463C44.5432 27.1592 44.3684 26.8474 44.2069 26.5356C44.1987 26.5199 44.1938 26.5027 44.1922 26.485C44.1907 26.4674 44.1927 26.4496 44.1981 26.4326C44.2089 26.3985 44.2328 26.3701 44.2645 26.3536C44.2963 26.3371 44.3332 26.3339 44.3673 26.3447C44.4014 26.3556 44.4298 26.3795 44.4462 26.4113C44.6058 26.7179 44.7782 27.0253 44.9577 27.3247C44.9699 27.3451 44.9764 27.3684 44.9767 27.3921C44.977 27.4159 44.971 27.4393 44.9594 27.4601C44.9477 27.4808 44.9308 27.498 44.9103 27.51C44.8898 27.5221 44.8665 27.5284 44.8428 27.5285H44.8408ZM43.6041 25.0527C43.5773 25.0526 43.5512 25.0445 43.5291 25.0295C43.5069 25.0145 43.4897 24.9932 43.4796 24.9684C43.3468 24.6406 43.2223 24.3057 43.1098 23.9723C43.1034 23.9554 43.1005 23.9374 43.1012 23.9193C43.1019 23.9012 43.1062 23.8835 43.1139 23.8671C43.1217 23.8507 43.1326 23.8361 43.1461 23.8241C43.1595 23.812 43.1753 23.8028 43.1924 23.797C43.2095 23.7912 43.2276 23.7889 43.2456 23.7903C43.2636 23.7917 43.2812 23.7966 43.2972 23.8049C43.3133 23.8132 43.3275 23.8247 43.339 23.8386C43.3505 23.8525 43.3591 23.8687 43.3643 23.886C43.4752 24.2142 43.5977 24.5443 43.7285 24.8673C43.7352 24.8836 43.7387 24.9012 43.7386 24.9189C43.7385 24.9366 43.7349 24.9541 43.7281 24.9704C43.7212 24.9867 43.7112 25.0015 43.6986 25.0139C43.686 25.0263 43.6711 25.0361 43.6547 25.0427C43.6393 25.0491 43.6228 25.0525 43.6061 25.0527H43.6041Z" fill="#91B3FA"/>
<path d="M42.7666 22.4083C42.7364 22.4083 42.707 22.3981 42.6833 22.3793C42.6596 22.3605 42.643 22.3342 42.6361 22.3047C42.5946 22.1283 42.5559 21.9518 42.52 21.7751C42.5145 21.7408 42.5224 21.7056 42.5422 21.677C42.5619 21.6484 42.592 21.6285 42.626 21.6216C42.66 21.6147 42.6954 21.6212 42.7247 21.6398C42.7541 21.6585 42.7751 21.6878 42.7833 21.7216C42.8187 21.8958 42.8567 22.069 42.8974 22.2412C42.905 22.2757 42.8987 22.3117 42.88 22.3416C42.8613 22.3715 42.8316 22.3929 42.7973 22.4011C42.7873 22.4045 42.777 22.4069 42.7666 22.4083Z" fill="#91B3FA"/>
<path d="M45.0433 8.68598C45.0193 8.68587 44.9958 8.67935 44.9752 8.66708C44.9546 8.65482 44.9376 8.63726 44.9261 8.61623C44.9145 8.5952 44.9088 8.57145 44.9095 8.54746C44.9102 8.52346 44.9172 8.50008 44.93 8.47974C45.0257 8.32705 45.124 8.17556 45.2248 8.02528C45.2451 7.99683 45.2758 7.97745 45.3102 7.97125C45.3446 7.96504 45.38 7.9725 45.409 7.99205C45.438 8.01159 45.4583 8.04168 45.4655 8.07594C45.4728 8.1102 45.4664 8.14593 45.4478 8.17556C45.3483 8.32345 45.2514 8.47267 45.157 8.62323C45.1448 8.64245 45.128 8.65829 45.1082 8.66926C45.0883 8.68024 45.066 8.68599 45.0433 8.68598Z" fill="#91B3FA"/>
<path d="M77.5038 13.1939C77.4747 13.1939 77.4464 13.1844 77.4231 13.167C77.3998 13.1496 77.3828 13.1251 77.3745 13.0971C77.272 12.7462 77.1571 12.3944 77.033 12.0503C77.027 12.0337 77.0244 12.0161 77.0252 11.9984C77.026 11.9808 77.0303 11.9635 77.0378 11.9475C77.0453 11.9315 77.0559 11.9172 77.0689 11.9053C77.082 11.8934 77.0972 11.8842 77.1138 11.8782C77.1304 11.8722 77.148 11.8696 77.1656 11.8704C77.1832 11.8713 77.2004 11.8755 77.2164 11.8831C77.2323 11.8906 77.2467 11.9012 77.2585 11.9142C77.2704 11.9273 77.2796 11.9426 77.2855 11.9592C77.4116 12.3077 77.5281 12.665 77.6326 13.0212C77.6376 13.0382 77.6391 13.056 77.6372 13.0735C77.6353 13.0911 77.63 13.1082 77.6215 13.1237C77.613 13.1392 77.6015 13.1529 77.5878 13.164C77.574 13.175 77.5582 13.1833 77.5413 13.1883C77.5291 13.1921 77.5165 13.194 77.5038 13.1939ZM76.4629 10.4759C76.4379 10.4756 76.4134 10.4684 76.3923 10.455C76.3711 10.4416 76.3542 10.4225 76.3432 10.3999C76.1837 10.0698 76.0145 9.74081 75.8366 9.42264C75.8202 9.39156 75.8167 9.3553 75.8266 9.32162C75.8366 9.28793 75.8593 9.25947 75.8899 9.24232C75.9205 9.22516 75.9566 9.22066 75.9904 9.22978C76.0243 9.2389 76.0533 9.26092 76.0712 9.29114C76.2515 9.6141 76.4246 9.94785 76.5854 10.2832C76.593 10.2991 76.5975 10.3164 76.5985 10.3341C76.5994 10.3517 76.5969 10.3694 76.5911 10.3861C76.5852 10.4027 76.5761 10.4181 76.5643 10.4312C76.5525 10.4444 76.5383 10.4551 76.5224 10.4627C76.504 10.4723 76.4836 10.4773 76.4629 10.4775V10.4759ZM74.996 7.96492C74.9744 7.96497 74.9531 7.95976 74.9339 7.94973C74.9147 7.93971 74.8982 7.92517 74.8859 7.90736C74.6769 7.60838 74.4559 7.3114 74.2285 7.02521C74.2084 6.99716 74.1998 6.96245 74.2045 6.92825C74.2092 6.89405 74.2269 6.86297 74.2538 6.84142C74.2807 6.81988 74.3149 6.80952 74.3492 6.81248C74.3836 6.81544 74.4154 6.8315 74.4383 6.85734C74.6693 7.14832 74.8939 7.4497 75.1061 7.75308C75.1202 7.77326 75.1285 7.79692 75.1301 7.82149C75.1317 7.84606 75.1265 7.8706 75.1152 7.89243C75.1038 7.91427 75.0867 7.93257 75.0657 7.94535C75.0447 7.95813 75.0206 7.9649 74.996 7.96492ZM46.4139 6.79019C46.3884 6.79025 46.3634 6.78302 46.3419 6.76935C46.3203 6.75568 46.3031 6.73614 46.2923 6.71302C46.2814 6.6899 46.2774 6.66415 46.2806 6.63881C46.2839 6.61347 46.2943 6.58958 46.3106 6.56995C46.5463 6.28536 46.7949 6.00357 47.049 5.73057C47.0609 5.71689 47.0754 5.70574 47.0916 5.69781C47.1079 5.68988 47.1256 5.68531 47.1437 5.68439C47.1617 5.68347 47.1798 5.68621 47.1968 5.69246C47.2138 5.6987 47.2293 5.70831 47.2425 5.72072C47.2557 5.73312 47.2663 5.74807 47.2736 5.76466C47.2808 5.78125 47.2847 5.79915 47.2849 5.81727C47.2852 5.83539 47.2817 5.85338 47.2748 5.87014C47.268 5.88691 47.2578 5.90211 47.2449 5.91483C46.9944 6.18224 46.7494 6.46003 46.5172 6.74022C46.5049 6.75599 46.4893 6.7688 46.4714 6.77772C46.4535 6.78664 46.4339 6.79145 46.4139 6.79179V6.79019ZM73.1453 5.72257C73.1274 5.72273 73.1096 5.71927 73.093 5.7124C73.0764 5.70553 73.0614 5.6954 73.0488 5.6826C72.7959 5.4212 72.5302 5.16299 72.2601 4.91677C72.2336 4.89271 72.2178 4.8591 72.2161 4.82334C72.2144 4.78759 72.2269 4.75261 72.2509 4.72611C72.2749 4.69961 72.3085 4.68375 72.3442 4.68203C72.3798 4.6803 72.4147 4.69285 72.4412 4.71692C72.7157 4.96753 72.985 5.22894 73.2415 5.49434C73.26 5.51326 73.2724 5.53723 73.2774 5.56323C73.2823 5.58923 73.2794 5.61611 73.2692 5.6405C73.2589 5.66488 73.2417 5.68568 73.2196 5.70028C73.1976 5.71489 73.1717 5.72264 73.1453 5.72257ZM48.4417 4.70772C48.4144 4.70767 48.3878 4.6993 48.3653 4.68371C48.3429 4.66812 48.3257 4.64606 48.3161 4.62046C48.3065 4.59486 48.3049 4.56693 48.3115 4.5404C48.3181 4.51386 48.3327 4.48997 48.3532 4.4719C48.6324 4.22728 48.9228 3.98866 49.2157 3.76202C49.2439 3.74018 49.2797 3.73049 49.3151 3.73506C49.3504 3.73963 49.3826 3.7581 49.4044 3.7864C49.4262 3.81471 49.4358 3.85053 49.4313 3.88598C49.4267 3.92144 49.4083 3.95363 49.38 3.97546C49.0912 4.1981 48.8055 4.43353 48.5299 4.67455C48.5058 4.6966 48.4744 4.70898 48.4417 4.70932V4.70772ZM70.9627 3.80519C70.934 3.805 70.9061 3.79577 70.8829 3.77881C70.5905 3.56057 70.2869 3.34913 69.9817 3.15007C69.967 3.14044 69.9542 3.12799 69.9442 3.11343C69.9343 3.09886 69.9273 3.08247 69.9236 3.0652C69.92 3.04792 69.9198 3.03009 69.923 3.01273C69.9262 2.99537 69.9328 2.97881 69.9424 2.96401C69.952 2.94921 69.9645 2.93645 69.979 2.92646C69.9935 2.91647 70.0099 2.90945 70.0271 2.90579C70.0444 2.90214 70.0622 2.90192 70.0795 2.90515C70.0968 2.90839 70.1134 2.91501 70.1281 2.92464C70.4381 3.12689 70.7461 3.34153 71.0433 3.56417C71.0659 3.58107 71.0826 3.60465 71.0911 3.63158C71.0996 3.65851 71.0994 3.68742 71.0905 3.71424C71.0817 3.74106 71.0647 3.76443 71.0419 3.78103C71.0191 3.79764 70.9917 3.80665 70.9635 3.80679L70.9627 3.80519ZM50.7763 2.975C50.7471 2.97498 50.7187 2.96544 50.6954 2.94781C50.6721 2.93019 50.6552 2.90544 50.6471 2.87731C50.6391 2.84918 50.6405 2.8192 50.651 2.7919C50.6614 2.7646 50.6805 2.74146 50.7053 2.72599C51.0193 2.53013 51.3436 2.34107 51.6703 2.1664C51.7017 2.14944 51.7384 2.14564 51.7725 2.15583C51.8067 2.16603 51.8353 2.18938 51.8523 2.22076C51.8692 2.25214 51.873 2.28897 51.8628 2.32315C51.8526 2.35733 51.8293 2.38606 51.798 2.40303C51.4765 2.5769 51.1565 2.76276 50.8473 2.95622C50.8258 2.96957 50.8009 2.97663 50.7755 2.9766L50.7763 2.975ZM68.4981 2.26793C68.4767 2.26797 68.4556 2.26276 68.4366 2.25274C68.1127 2.08566 67.7792 1.92618 67.4453 1.77909C67.4291 1.772 67.4145 1.7618 67.4023 1.74907C67.3901 1.73633 67.3806 1.72132 67.3742 1.70487C67.3677 1.68843 67.3646 1.67088 67.365 1.65324C67.3653 1.63559 67.3692 1.61818 67.3762 1.60202C67.3833 1.58585 67.3935 1.57124 67.4062 1.55901C67.4189 1.54679 67.4339 1.53719 67.4503 1.53077C67.4667 1.52435 67.4842 1.52123 67.5019 1.52159C67.5195 1.52195 67.5368 1.52578 67.553 1.53287C67.8921 1.68196 68.2312 1.84384 68.5595 2.01251C68.5862 2.0264 68.6074 2.04885 68.6199 2.07626C68.6323 2.10366 68.6352 2.13446 68.6282 2.16373C68.6211 2.19299 68.6044 2.21904 68.5808 2.23771C68.5573 2.25638 68.5281 2.2666 68.4981 2.26673V2.26793ZM53.3579 1.64399C53.3267 1.64425 53.2964 1.63363 53.2722 1.61395C53.248 1.59427 53.2314 1.56676 53.2253 1.53615C53.2192 1.50554 53.2239 1.47374 53.2386 1.44622C53.2533 1.41871 53.2772 1.39719 53.306 1.38538C53.6471 1.24308 53.9982 1.10958 54.3492 0.98847C54.3829 0.976809 54.4198 0.979017 54.4518 0.994609C54.4838 1.0102 54.5083 1.0379 54.52 1.07161C54.5316 1.10532 54.5294 1.14228 54.5139 1.17436C54.4983 1.20645 54.4706 1.23102 54.437 1.24268C54.0911 1.36259 53.7452 1.4937 53.4093 1.63399C53.393 1.64061 53.3755 1.644 53.3579 1.64399ZM65.82 1.14875C65.8064 1.14862 65.793 1.14647 65.7801 1.14236C65.4334 1.02964 65.0784 0.926516 64.7249 0.835383C64.7078 0.830974 64.6917 0.823232 64.6776 0.812601C64.6635 0.801969 64.6516 0.788654 64.6426 0.773418C64.6336 0.758182 64.6277 0.741322 64.6252 0.723802C64.6228 0.706281 64.6237 0.688442 64.6281 0.671304C64.6325 0.654166 64.6403 0.638065 64.6509 0.623919C64.6615 0.609772 64.6748 0.597859 64.69 0.588858C64.7052 0.579858 64.722 0.573946 64.7395 0.571461C64.757 0.568976 64.7748 0.569967 64.7919 0.574376C65.151 0.667107 65.51 0.774228 65.8631 0.886545C65.8934 0.896283 65.9193 0.916547 65.9361 0.943699C65.9529 0.970851 65.9595 1.00311 65.9547 1.03469C65.9499 1.06627 65.934 1.0951 65.9099 1.11601C65.8858 1.13691 65.8551 1.14852 65.8232 1.14875H65.82ZM56.1209 0.749047C56.0878 0.749466 56.0556 0.73755 56.0307 0.715604C56.0058 0.693657 55.9899 0.663238 55.9861 0.630227C55.9823 0.597217 55.9908 0.563959 56.01 0.536884C56.0293 0.509809 56.0578 0.490839 56.0902 0.483643C56.4493 0.398506 56.8191 0.323761 57.1833 0.261007C57.2184 0.254965 57.2544 0.26313 57.2835 0.283706C57.3125 0.304282 57.3323 0.335584 57.3383 0.370726C57.3443 0.405868 57.3362 0.441971 57.3156 0.471092C57.2951 0.500214 57.2639 0.519969 57.2288 0.526012C56.8697 0.587566 56.5075 0.661512 56.1516 0.74545C56.1416 0.747805 56.1313 0.749011 56.1209 0.749047ZM62.9951 0.479646C62.9883 0.48024 62.9815 0.48024 62.9747 0.479646C62.6157 0.424087 62.2471 0.37932 61.8836 0.346144C61.8661 0.344543 61.849 0.339495 61.8334 0.331286C61.8178 0.323078 61.804 0.311871 61.7927 0.298305C61.7814 0.284739 61.7729 0.26908 61.7677 0.252222C61.7624 0.235364 61.7606 0.217636 61.7622 0.200052C61.7638 0.182468 61.7688 0.165372 61.777 0.149739C61.7852 0.134106 61.7964 0.120242 61.8099 0.108941C61.8234 0.0976387 61.8391 0.0891196 61.8559 0.0838695C61.8727 0.0786194 61.8904 0.0767412 61.908 0.0783422C62.2766 0.111917 62.6492 0.158283 63.015 0.213842C63.0489 0.218376 63.0798 0.235724 63.1014 0.262333C63.1229 0.288941 63.1335 0.322798 63.131 0.356972C63.1284 0.391145 63.1129 0.423049 63.0877 0.446152C63.0624 0.469256 63.0293 0.48181 62.9951 0.481245V0.479646ZM58.9921 0.312569C58.9566 0.313841 58.922 0.300912 58.8959 0.276625C58.8699 0.252338 58.8545 0.218684 58.8533 0.183065C58.852 0.147446 58.8649 0.112781 58.8892 0.086695C58.9134 0.0606092 58.947 0.0452396 58.9825 0.0439675C59.3516 0.0179867 59.7266 0.00399705 60.0972 0C60.1315 0.00187619 60.1638 0.0168647 60.1875 0.0418826C60.2111 0.0669005 60.2243 0.100046 60.2243 0.134501C60.2243 0.168956 60.2111 0.202101 60.1875 0.227119C60.1638 0.252137 60.1315 0.267125 60.0972 0.269001C59.7317 0.272199 59.3623 0.286588 58.9993 0.312169L58.9921 0.312569Z" fill="#91B3FA"/>
<path d="M78.0144 15.4849C77.9824 15.4849 77.9514 15.4735 77.927 15.4526C77.9026 15.4317 77.8865 15.4028 77.8816 15.371C77.855 15.1952 77.8251 15.0197 77.7918 14.8446C77.7853 14.8095 77.7929 14.7733 77.8131 14.7438C77.8332 14.7144 77.8641 14.6941 77.8991 14.6875C77.9341 14.6813 77.9701 14.6891 77.9995 14.7092C78.0288 14.7293 78.049 14.7601 78.0559 14.795C78.0892 14.973 78.1196 15.1512 78.1473 15.3295C78.1527 15.3647 78.1439 15.4007 78.1229 15.4296C78.1019 15.4584 78.0704 15.4777 78.0352 15.4833C78.0283 15.4843 78.0214 15.4848 78.0144 15.4849Z" fill="#91B3FA"/>
<path d="M74.0581 17.7365C74.0616 17.6917 74.0511 17.6469 74.028 17.6084C74.0049 17.5698 73.9704 17.5395 73.9293 17.5215L71.5213 16.4734C71.3332 15.2423 70.9461 14.05 70.3751 12.9437L71.7036 10.6773C71.7264 10.6386 71.7365 10.5937 71.7326 10.5489C71.7286 10.5041 71.7108 10.4617 71.6817 10.4275L69.6351 8.02928C69.6059 7.99509 69.5667 7.9709 69.5231 7.96008C69.4794 7.94926 69.4335 7.95235 69.3917 7.96893L66.9514 8.93302C65.949 8.19639 64.8334 7.62843 63.6486 7.25146L62.988 4.70614C62.9764 4.66286 62.9518 4.62423 62.9174 4.59559C62.883 4.56695 62.8406 4.54971 62.7961 4.54626L59.6572 4.30124C59.6125 4.29761 59.5677 4.30812 59.5292 4.33127C59.4907 4.35442 59.4604 4.38907 59.4426 4.43034L58.3966 6.84256C57.1678 7.03131 55.9778 7.41931 54.8735 7.99131L52.6115 6.6599C52.5728 6.63726 52.528 6.62725 52.4833 6.63126C52.4386 6.63527 52.3963 6.6531 52.3622 6.68228L49.9686 8.73276C49.9344 8.76206 49.9103 8.8013 49.8995 8.84501C49.8887 8.88872 49.8918 8.93472 49.9083 8.97658L50.8706 11.4216C50.1353 12.4259 49.5685 13.5436 49.1922 14.7307L46.6514 15.3922C46.6081 15.4038 46.5695 15.4286 46.5409 15.4631C46.5123 15.4976 46.4952 15.5402 46.4918 15.5849L46.2472 18.7298C46.2437 18.7746 46.2543 18.8194 46.2774 18.8579C46.3005 18.8965 46.335 18.9268 46.3761 18.9448L48.7837 19.9928C48.9717 21.2241 49.359 22.4163 49.9302 23.5226L48.6014 25.789C48.5787 25.8278 48.5686 25.8727 48.5726 25.9175C48.5766 25.9622 48.5945 26.0047 48.6237 26.0388L50.6703 28.437C50.6995 28.4712 50.7386 28.4954 50.7821 28.5062C50.8257 28.517 50.8715 28.5139 50.9132 28.4974L53.354 27.5333C54.3563 28.2701 55.4719 28.838 56.6568 29.2148L57.317 31.7602C57.3285 31.8035 57.3531 31.8421 57.3875 31.8708C57.4219 31.8994 57.4643 31.9166 57.5089 31.92L60.6482 32.1651C60.6929 32.1686 60.7376 32.158 60.7761 32.1349C60.8145 32.1117 60.8449 32.0772 60.8628 32.036L61.9088 29.6237C63.1377 29.4353 64.3277 29.0473 65.4319 28.475L67.6938 29.8064C67.7326 29.829 67.7774 29.8391 67.8221 29.835C67.8668 29.831 67.9091 29.8132 67.9432 29.784L70.3368 27.7335C70.3709 27.7043 70.3951 27.6651 70.4059 27.6215C70.4167 27.5779 70.4136 27.5319 70.3971 27.4901L69.4348 25.0447C70.1701 24.0404 70.737 22.9227 71.1132 21.7356L73.6536 21.0741C73.6968 21.0624 73.7354 21.0377 73.764 21.0032C73.7926 20.9686 73.8098 20.9261 73.8132 20.8814L74.0581 17.7365Z" fill="#91B3FA"/>
<path opacity="0.7" d="M60.1463 21.2368C59.372 21.2361 58.6278 20.9358 58.0691 20.3986C57.5104 19.8614 57.1804 19.1287 57.1479 18.3536C57.1154 17.5784 57.383 16.8207 57.8948 16.2384C58.4066 15.6562 59.1231 15.2945 59.8947 15.2288C60.6663 15.1631 61.4333 15.3986 62.0358 15.886C62.6383 16.3733 63.0297 17.075 63.1282 17.8446C63.2267 18.6141 63.0248 19.392 62.5645 20.016C62.1043 20.6399 61.4213 21.0617 60.6582 21.1932C60.4891 21.2221 60.3179 21.2367 60.1463 21.2368ZM60.1583 15.6329C60.0098 15.6331 59.8615 15.6458 59.7151 15.6709C59.1238 15.7726 58.5861 16.0765 58.1934 16.5309C57.8007 16.9853 57.5775 17.5621 57.5616 18.1629C57.5458 18.7637 57.7383 19.3515 58.1065 19.826C58.4747 20.3005 58.9957 20.6325 59.5807 20.7653C60.1658 20.8982 60.7788 20.8237 61.3151 20.5545C61.8515 20.2853 62.2782 19.8382 62.5224 19.2892C62.7666 18.7402 62.8133 18.1234 62.6545 17.5438C62.4957 16.9642 62.1413 16.4577 61.6516 16.1106C61.216 15.8002 60.6948 15.6333 60.1603 15.6329H60.1583Z" fill="white"/>
<path opacity="0.7" d="M60.0979 26.048C59.8929 26.048 59.6868 26.04 59.4796 26.024C57.5241 25.8711 55.6979 24.9858 54.3648 23.5444C53.0316 22.103 52.2894 20.2113 52.2859 18.2461C52.2859 18.0402 52.2939 17.8335 52.3098 17.6262C52.4297 16.0854 53.0029 14.6148 53.957 13.4003C54.911 12.1859 56.2031 11.2822 57.6698 10.8035C59.1364 10.3248 60.7119 10.2926 62.1968 10.7109C63.6817 11.1293 65.0095 11.9795 66.0122 13.1539C66.3731 13.5763 66.6882 14.0358 66.9521 14.5249L66.5979 14.7167C65.8398 13.3077 64.6468 12.1823 63.1973 11.5091C61.7478 10.836 60.1197 10.6511 58.5565 10.9821C56.9934 11.3132 55.5792 12.1424 54.5256 13.3457C53.472 14.5491 52.8356 16.0619 52.7116 17.6578C52.6964 17.8544 52.6888 18.0503 52.6888 18.2453C52.6923 20.0023 53.3186 21.7009 54.4561 23.0382C55.5936 24.3754 57.1682 25.2643 58.8991 25.5463C60.63 25.8283 62.4046 25.485 63.9063 24.5777C65.408 23.6705 66.5393 22.2582 67.0981 20.5928L67.4803 20.7211C66.9602 22.2705 65.9686 23.6177 64.6448 24.5732C63.3209 25.5287 61.7315 26.0444 60.0999 26.048H60.0979Z" fill="white"/>
<path d="M91.1248 31.4297C91.1012 31.4296 91.078 31.4232 91.0576 31.4113C91.0372 31.3993 91.0202 31.3822 91.0086 31.3616C90.9969 31.341 90.9908 31.3176 90.991 31.2939C90.9911 31.2703 90.9976 31.247 91.0096 31.2266C91.0997 31.0739 91.1859 30.918 91.2657 30.7629C91.2738 30.7472 91.2849 30.7332 91.2984 30.7218C91.3119 30.7103 91.3275 30.7016 91.3443 30.6962C91.3611 30.6908 91.3789 30.6888 91.3965 30.6903C91.4141 30.6917 91.4313 30.6967 91.447 30.7048C91.4627 30.7129 91.4767 30.724 91.4881 30.7375C91.4995 30.7511 91.5082 30.7667 91.5136 30.7836C91.5189 30.8004 91.521 30.8182 91.5195 30.8359C91.518 30.8535 91.5131 30.8707 91.505 30.8865C91.4228 31.0463 91.3339 31.2062 91.2409 31.3637C91.2291 31.3839 91.2121 31.4007 91.1917 31.4122C91.1713 31.4238 91.1483 31.4298 91.1248 31.4297Z" fill="#91B3FA"/>
<path d="M82.4567 35.9335H82.446C82.0808 35.9046 81.7175 35.8546 81.3581 35.7836C81.3237 35.776 81.2937 35.7553 81.2744 35.7258C81.2551 35.6963 81.2482 35.6604 81.255 35.6258C81.2619 35.5913 81.282 35.5608 81.311 35.5409C81.34 35.521 81.3757 35.5133 81.4103 35.5194C81.7595 35.5884 82.1123 35.6371 82.4671 35.6653C82.501 35.6689 82.5323 35.6853 82.5546 35.7111C82.577 35.7369 82.5886 35.7703 82.5873 35.8044C82.586 35.8386 82.5718 35.871 82.5475 35.895C82.5233 35.919 82.4908 35.9329 82.4567 35.9339V35.9335ZM84.2121 35.9051C84.1777 35.9051 84.1446 35.892 84.1196 35.8683C84.0946 35.8446 84.0796 35.8122 84.0777 35.7778C84.0758 35.7434 84.0872 35.7096 84.1094 35.6833C84.1317 35.657 84.1631 35.6403 84.1973 35.6365C84.5509 35.5968 84.9019 35.5367 85.2485 35.4562C85.2832 35.4481 85.3196 35.4541 85.3499 35.473C85.3801 35.4918 85.4016 35.5218 85.4097 35.5566C85.4178 35.5913 85.4118 35.6278 85.393 35.6581C85.3742 35.6884 85.3442 35.7099 85.3096 35.718C84.9527 35.801 84.5913 35.8632 84.2272 35.9043L84.2121 35.9051ZM79.6993 35.2816C79.6819 35.2815 79.6648 35.2782 79.6486 35.272C79.3093 35.1336 78.9784 34.9754 78.6576 34.7983C78.6422 34.7898 78.6286 34.7783 78.6176 34.7645C78.6066 34.7507 78.5984 34.7349 78.5935 34.7179C78.5886 34.701 78.5871 34.6832 78.5891 34.6656C78.5911 34.6481 78.5964 34.6311 78.605 34.6157C78.6135 34.6002 78.6249 34.5866 78.6387 34.5756C78.6525 34.5645 78.6683 34.5563 78.6852 34.5514C78.7021 34.5465 78.7199 34.545 78.7374 34.547C78.7549 34.549 78.7718 34.5544 78.7873 34.5629C79.0989 34.7348 79.4204 34.8883 79.7499 35.0226C79.7789 35.0342 79.803 35.0556 79.8179 35.0831C79.8328 35.1105 79.8377 35.1424 79.8317 35.1731C79.8257 35.2038 79.8092 35.2315 79.785 35.2513C79.7608 35.2711 79.7305 35.2818 79.6993 35.2816ZM86.9448 35.1617C86.9141 35.1616 86.8844 35.151 86.8606 35.1316C86.8367 35.1122 86.8202 35.0852 86.8138 35.0552C86.8073 35.0251 86.8114 34.9937 86.8252 34.9663C86.839 34.9388 86.8618 34.9169 86.8898 34.9042C87.2148 34.7588 87.5309 34.5943 87.8365 34.4114C87.867 34.3944 87.9029 34.39 87.9366 34.3991C87.9703 34.4081 87.9992 34.43 88.0171 34.46C88.035 34.49 88.0406 34.5258 88.0327 34.5598C88.0247 34.5939 88.0039 34.6235 87.9745 34.6424C87.6596 34.8305 87.3341 35 86.9995 35.1501C86.9826 35.1573 86.9644 35.161 86.946 35.1609L86.9448 35.1617ZM77.2749 33.8214C77.2434 33.8214 77.213 33.8104 77.1887 33.7903C76.9076 33.5551 76.6404 33.3036 76.3884 33.0372C76.3754 33.0246 76.3651 33.0094 76.3581 32.9926C76.3511 32.9759 76.3476 32.9579 76.3477 32.9397C76.3478 32.9216 76.3516 32.9036 76.3588 32.887C76.366 32.8703 76.3765 32.8553 76.3897 32.8428C76.4029 32.8303 76.4184 32.8206 76.4354 32.8143C76.4524 32.808 76.4705 32.8052 76.4886 32.8061C76.5067 32.8069 76.5244 32.8115 76.5408 32.8194C76.5571 32.8273 76.5716 32.8385 76.5835 32.8522C76.8284 33.1108 77.088 33.3551 77.3611 33.5836C77.3822 33.6014 77.3973 33.6252 77.4044 33.6519C77.4116 33.6785 77.4103 33.7068 77.4009 33.7327C77.3915 33.7587 77.3744 33.7811 77.3519 33.797C77.3293 33.8128 77.3024 33.8214 77.2749 33.8214ZM89.3229 33.6184C89.2957 33.6185 89.2691 33.6103 89.2466 33.5949C89.2241 33.5795 89.2069 33.5576 89.1971 33.5322C89.1874 33.5067 89.1856 33.4788 89.192 33.4523C89.1985 33.4258 89.2128 33.4019 89.2332 33.3838L89.313 33.3122C89.5498 33.0959 89.7752 32.8673 89.9884 32.6275C90.0126 32.6035 90.0451 32.5897 90.0792 32.5889C90.1133 32.588 90.1464 32.6002 90.1718 32.623C90.1973 32.6458 90.2131 32.6774 90.216 32.7114C90.219 32.7455 90.2089 32.7793 90.1878 32.8062C89.9686 33.0532 89.7366 33.2885 89.4929 33.5113L89.4131 33.5844C89.3883 33.6065 89.3561 33.6186 89.3229 33.6184ZM75.3999 31.6934C75.3773 31.6935 75.3551 31.6879 75.3352 31.677C75.3154 31.6662 75.2987 31.6505 75.2866 31.6315C75.089 31.3225 74.9097 31.0021 74.7496 30.6722C74.7362 30.6403 74.7355 30.6046 74.7477 30.5723C74.7598 30.54 74.7839 30.5136 74.8149 30.4985C74.846 30.4835 74.8816 30.481 74.9144 30.4915C74.9472 30.502 74.9748 30.5248 74.9913 30.555C75.1468 30.8757 75.3209 31.1869 75.5128 31.4872C75.5258 31.5075 75.5332 31.5309 75.534 31.555C75.5349 31.5792 75.5293 31.6031 75.5177 31.6243C75.5062 31.6455 75.4891 31.6632 75.4684 31.6755C75.4476 31.6878 75.424 31.6942 75.3999 31.6942V31.6934Z" fill="#91B3FA"/>
<path d="M74.2592 29.0917C74.2295 29.0916 74.2007 29.0818 74.1772 29.0636C74.1536 29.0455 74.1368 29.0201 74.1291 28.9914C74.0832 28.8187 74.0433 28.6376 74.0034 28.459C73.9979 28.4246 74.0058 28.3894 74.0256 28.3608C74.0453 28.3322 74.0754 28.3124 74.1094 28.3054C74.1435 28.2985 74.1788 28.305 74.2082 28.3237C74.2375 28.3423 74.2585 28.3716 74.2668 28.4054C74.3019 28.5777 74.3426 28.7511 74.3865 28.9214C74.391 28.9385 74.3922 28.9563 74.3899 28.9738C74.3875 28.9913 74.3818 29.0082 74.3729 29.0234C74.3641 29.0387 74.3523 29.0521 74.3382 29.0628C74.3242 29.0734 74.3082 29.0812 74.2911 29.0857C74.2808 29.089 74.27 29.0911 74.2592 29.0917Z" fill="#91B3FA"/>
<path d="M75.3655 21.7887C75.3402 21.7888 75.3155 21.7816 75.2941 21.7679C75.2792 21.7586 75.2662 21.7463 75.256 21.7319C75.2458 21.7175 75.2385 21.7012 75.2346 21.684C75.2306 21.6668 75.2301 21.6489 75.2331 21.6315C75.2361 21.6141 75.2424 21.5974 75.2518 21.5825C75.3484 21.429 75.4513 21.2767 75.5558 21.1292C75.566 21.1149 75.579 21.1027 75.5939 21.0933C75.6089 21.084 75.6255 21.0777 75.6429 21.0748C75.6603 21.0719 75.678 21.0725 75.6952 21.0765C75.7123 21.0805 75.7285 21.0878 75.7429 21.0981C75.7572 21.1083 75.7694 21.1213 75.7787 21.1363C75.788 21.1513 75.7943 21.1679 75.7972 21.1853C75.8001 21.2027 75.7995 21.2205 75.7955 21.2377C75.7915 21.2549 75.7842 21.2712 75.774 21.2855C75.6723 21.4286 75.5745 21.5769 75.4792 21.7252C75.4672 21.7446 75.4505 21.7606 75.4306 21.7717C75.4107 21.7828 75.3883 21.7887 75.3655 21.7887Z" fill="#91B3FA"/>
<path d="M91.6801 23.0974C91.6537 23.0975 91.6279 23.0897 91.6059 23.0751C91.5839 23.0606 91.5667 23.0398 91.5564 23.0155C91.4196 22.6927 91.2642 22.3781 91.0909 22.0734C91.0754 22.0425 91.0723 22.0069 91.0822 21.9738C91.0922 21.9407 91.1145 21.9128 91.1444 21.8957C91.1744 21.8786 91.2098 21.8737 91.2432 21.882C91.2767 21.8903 91.3057 21.9111 91.3243 21.9403C91.5026 22.254 91.6624 22.5779 91.803 22.9104C91.8169 22.9432 91.8173 22.9803 91.804 23.0134C91.7907 23.0465 91.7648 23.073 91.732 23.087C91.7155 23.0938 91.6979 23.0974 91.6801 23.0974ZM90.2148 20.7236C90.1954 20.7236 90.1762 20.7194 90.1586 20.7113C90.1409 20.7031 90.1253 20.6912 90.1127 20.6764C90.0441 20.5965 89.9739 20.5165 89.902 20.4366C89.7381 20.2563 89.5653 20.0812 89.3878 19.915C89.3742 19.9031 89.3631 19.8886 89.3551 19.8723C89.3472 19.856 89.3426 19.8383 89.3417 19.8203C89.3408 19.8022 89.3435 19.7841 89.3497 19.7671C89.3559 19.7501 89.3654 19.7345 89.3778 19.7213C89.3901 19.708 89.405 19.6974 89.4215 19.6901C89.438 19.6828 89.4558 19.6789 89.4739 19.6786C89.492 19.6783 89.5099 19.6817 89.5267 19.6885C89.5434 19.6953 89.5586 19.7055 89.5713 19.7183C89.7536 19.8894 89.9304 20.0701 90.1003 20.2551C90.1741 20.3351 90.2467 20.4182 90.3169 20.5013C90.3337 20.5209 90.3445 20.5448 90.348 20.5703C90.3516 20.5958 90.3478 20.6217 90.337 20.6451C90.3262 20.6685 90.309 20.6883 90.2873 20.7021C90.2657 20.716 90.2405 20.7233 90.2148 20.7232V20.7236ZM76.7961 20.0333C76.7693 20.0332 76.7431 20.0252 76.7209 20.0101C76.6987 19.9951 76.6815 19.9737 76.6716 19.9488C76.6616 19.9239 76.6592 19.8965 76.6649 19.8703C76.6705 19.844 76.6838 19.8201 76.7032 19.8015C76.7577 19.7495 76.8127 19.6981 76.8683 19.6472C77.0782 19.4553 77.2992 19.2706 77.525 19.0992C77.5535 19.0798 77.5882 19.0722 77.6222 19.0778C77.6561 19.0834 77.6866 19.1018 77.7074 19.1292C77.7282 19.1567 77.7377 19.1911 77.734 19.2253C77.7303 19.2596 77.7136 19.2911 77.6873 19.3134C77.4679 19.4801 77.2533 19.6596 77.049 19.8458C76.9948 19.8954 76.9413 19.9457 76.8895 19.9961C76.8643 20.0202 76.8309 20.0335 76.7961 20.0333ZM88.1104 18.8921C88.0851 18.8921 88.0604 18.8849 88.039 18.8713C87.7432 18.6842 87.4368 18.5143 87.1214 18.3625C87.0911 18.346 87.0683 18.3185 87.0577 18.2856C87.0471 18.2528 87.0494 18.2171 87.0644 18.1859C87.0793 18.1547 87.1055 18.1305 87.1378 18.1182C87.17 18.1059 87.2057 18.1065 87.2375 18.1199C87.5623 18.276 87.8778 18.451 88.1822 18.6439C88.207 18.6594 88.226 18.6825 88.2364 18.7099C88.2469 18.7372 88.2481 18.7671 88.24 18.7952C88.2318 18.8233 88.2148 18.848 88.1914 18.8654C88.168 18.8829 88.1396 18.8923 88.1104 18.8921ZM79.0764 18.4265C79.046 18.4267 79.0165 18.4166 78.9925 18.3978C78.9686 18.379 78.9518 18.3526 78.9449 18.3229C78.9379 18.2933 78.9412 18.2621 78.9543 18.2346C78.9673 18.2071 78.9893 18.1848 79.0166 18.1715C79.3395 18.011 79.6713 17.8693 80.0104 17.747C80.0439 17.7348 80.0809 17.7365 80.1132 17.7517C80.1454 17.7669 80.1704 17.7943 80.1825 17.8279C80.1946 17.8615 80.1929 17.8986 80.1778 17.9309C80.1626 17.9633 80.1353 17.9882 80.1017 18.0004C79.7723 18.1192 79.4499 18.2569 79.1363 18.4129C79.1177 18.422 79.0972 18.4266 79.0764 18.4265ZM85.56 17.7753C85.5483 17.7753 85.5366 17.7737 85.5253 17.7706C85.1869 17.6807 84.8436 17.6104 84.4972 17.5599C84.4798 17.5574 84.463 17.5514 84.4478 17.5423C84.4327 17.5333 84.4195 17.5213 84.4089 17.5071C84.3984 17.4929 84.3908 17.4768 84.3865 17.4597C84.3822 17.4425 84.3813 17.4247 84.3839 17.4072C84.3862 17.3897 84.392 17.3727 84.4009 17.3574C84.4099 17.3422 84.4218 17.3288 84.436 17.3182C84.4501 17.3077 84.4663 17.3 84.4835 17.2958C84.5006 17.2916 84.5185 17.2909 84.5359 17.2937C84.8925 17.3457 85.2459 17.418 85.5943 17.5103C85.6259 17.5186 85.6535 17.5382 85.6717 17.5654C85.69 17.5926 85.6978 17.6255 85.6936 17.658C85.6894 17.6905 85.6735 17.7203 85.6489 17.7419C85.6243 17.7635 85.5927 17.7754 85.56 17.7753ZM81.7302 17.5783C81.6967 17.5778 81.6646 17.5649 81.6401 17.5419C81.6157 17.519 81.6007 17.4877 81.598 17.4542C81.5954 17.4208 81.6053 17.3875 81.6258 17.361C81.6464 17.3345 81.676 17.3166 81.709 17.3109C82.0657 17.2545 82.4254 17.2186 82.7862 17.2034C82.821 17.2031 82.8546 17.2165 82.8798 17.2406C82.905 17.2646 82.9199 17.2976 82.9214 17.3325C82.9228 17.3673 82.9107 17.4014 82.8876 17.4275C82.8644 17.4536 82.8321 17.4697 82.7973 17.4724C82.4475 17.4873 82.0988 17.5221 81.7529 17.5767C81.7456 17.5782 81.7381 17.579 81.7306 17.5791L81.7302 17.5783Z" fill="#91B3FA"/>
<path d="M92.302 25.2814C92.27 25.2813 92.239 25.2698 92.2147 25.2489C92.1903 25.2281 92.1742 25.1992 92.1692 25.1675C92.1424 24.9936 92.1097 24.8181 92.0726 24.6479C92.0651 24.6129 92.0717 24.5764 92.0911 24.5464C92.1104 24.5164 92.1409 24.4953 92.1757 24.4878C92.2106 24.4802 92.2471 24.4869 92.277 24.5063C92.307 24.5256 92.3281 24.5562 92.3356 24.5911C92.3735 24.7682 92.407 24.9488 92.4349 25.1275C92.4403 25.1628 92.4316 25.1988 92.4106 25.2276C92.3895 25.2565 92.358 25.2758 92.3228 25.2814C92.3159 25.2818 92.309 25.2818 92.302 25.2814Z" fill="#91B3FA"/>
<path d="M90.27 26.3725C90.2718 26.3494 90.2664 26.3264 90.2545 26.3066C90.2427 26.2867 90.2249 26.2711 90.2038 26.2618L88.9671 25.7238C88.8703 25.0913 88.6714 24.4788 88.3782 23.9103L89.0604 22.7464C89.0722 22.7265 89.0774 22.7034 89.0754 22.6804C89.0734 22.6574 89.0642 22.6356 89.0493 22.6181L87.9981 21.3866C87.9831 21.369 87.963 21.3566 87.9406 21.351C87.9182 21.3454 87.8946 21.347 87.8732 21.3554L86.6193 21.8506C86.1045 21.4721 85.5314 21.1803 84.9226 20.9869L84.5835 19.6794C84.5778 19.6571 84.5652 19.6371 84.5475 19.6222C84.5298 19.6074 84.508 19.5985 84.485 19.5967L82.8725 19.4708C82.8495 19.469 82.8265 19.4744 82.8068 19.4863C82.7871 19.4982 82.7715 19.516 82.7624 19.5372L82.225 20.7762C81.5938 20.8732 80.9826 21.0725 80.4154 21.3662L79.2533 20.6823C79.2334 20.6707 79.2104 20.6655 79.1874 20.6676C79.1645 20.6697 79.1427 20.6789 79.1252 20.6939L77.8961 21.7471C77.8786 21.7622 77.8662 21.7823 77.8607 21.8047C77.8551 21.8271 77.8566 21.8507 77.865 21.8722L78.3593 23.1285C77.9817 23.6443 77.6905 24.2184 77.4971 24.828L76.1922 25.1682C76.1699 25.174 76.1499 25.1866 76.1351 25.2043C76.1203 25.222 76.1114 25.2439 76.1096 25.2669L75.984 26.8825C75.9822 26.9055 75.9876 26.9285 75.9995 26.9483C76.0114 26.968 76.0291 26.9836 76.0502 26.9928L77.2869 27.5312C77.3837 28.1636 77.5826 28.776 77.8757 29.3443L77.1951 30.5086C77.1834 30.5285 77.1782 30.5516 77.1802 30.5746C77.1822 30.5976 77.1913 30.6194 77.2063 30.6369L78.2579 31.8684C78.2729 31.886 78.2929 31.8984 78.3152 31.904C78.3375 31.9096 78.361 31.908 78.3824 31.8996L79.6363 31.4044C80.1512 31.7828 80.7243 32.0745 81.333 32.2681L81.6721 33.5756C81.6778 33.5979 81.6904 33.6179 81.7081 33.6328C81.7258 33.6476 81.7476 33.6565 81.7706 33.6583L83.3831 33.7842C83.4061 33.7859 83.4291 33.7804 83.4488 33.7685C83.4686 33.7567 83.4842 33.739 83.4936 33.7179L84.0306 32.4788C84.6618 32.3819 85.273 32.1825 85.8402 31.8884L87.0023 32.5723C87.0221 32.5841 87.0452 32.5893 87.0681 32.5873C87.0911 32.5853 87.1128 32.5761 87.1304 32.5611L88.3595 31.5075C88.377 31.4925 88.3894 31.4724 88.395 31.4499C88.4006 31.4275 88.399 31.4039 88.3906 31.3824L87.8963 30.1265C88.2739 29.6105 88.5651 29.0364 88.7584 28.4266L90.0634 28.0868C90.0857 28.0811 90.1057 28.0684 90.1205 28.0507C90.1353 28.033 90.1442 28.0111 90.1459 27.9881L90.27 26.3725Z" fill="#91B3FA"/>
<path opacity="0.7" d="M83.1232 28.2688C82.6997 28.2688 82.2925 28.1049 81.9866 27.8114C81.6807 27.5178 81.4999 27.1172 81.4817 26.6932C81.4636 26.2692 81.6096 25.8546 81.8893 25.5359C82.169 25.2172 82.5608 25.0191 82.9828 24.9828C83.4048 24.9466 83.8245 25.0751 84.1542 25.3414C84.484 25.6078 84.6983 25.9914 84.7524 26.4123C84.8066 26.8332 84.6964 27.2588 84.4449 27.6002C84.1933 27.9417 83.8199 28.1726 83.4025 28.2448C83.3103 28.2606 83.2168 28.2687 83.1232 28.2688ZM83.1284 25.3909C82.8338 25.3906 82.5488 25.496 82.3249 25.6879C82.1011 25.8798 81.9531 26.1456 81.9077 26.4372C81.8624 26.7289 81.9227 27.0272 82.0776 27.2782C82.2326 27.5292 82.4722 27.7164 82.7529 27.806C83.0336 27.8955 83.3371 27.8815 83.6084 27.7665C83.8797 27.6515 84.101 27.443 84.2323 27.1787C84.3636 26.9145 84.3963 26.6119 84.3244 26.3257C84.2524 26.0394 84.0807 25.7884 83.8401 25.6179C83.6322 25.47 83.3834 25.3906 83.1284 25.3909Z" fill="white"/>
<path opacity="0.7" d="M83.0991 30.7401C82.991 30.7401 82.8821 30.7361 82.7736 30.7273C82.1007 30.6749 81.451 30.457 80.8822 30.0929C80.3134 29.7288 79.8429 29.2298 79.5126 28.64C79.1823 28.0502 79.0022 27.3879 78.9884 26.7118C78.9746 26.0356 79.1274 25.3665 79.4334 24.7637C79.7393 24.1608 80.1889 23.6429 80.7424 23.2558C81.2959 22.8686 81.9361 22.6242 82.6063 22.5443C83.2766 22.4643 83.9562 22.5511 84.5849 22.7972C85.2136 23.0432 85.7721 23.4408 86.2108 23.9547C86.2224 23.9679 86.2336 23.9815 86.2451 23.9947C86.4042 24.1861 86.5458 24.3914 86.668 24.6083V24.6107L86.6732 24.6202L86.6828 24.637C86.6843 24.6402 86.686 24.6433 86.688 24.6462L86.7035 24.6758L86.3493 24.8677C86.2239 24.6354 86.0743 24.4171 85.9029 24.2165C85.3716 23.5947 84.6498 23.1664 83.8502 22.9986C83.0505 22.8308 82.2179 22.9328 81.4822 23.2888C80.7465 23.6448 80.1491 24.2348 79.7831 24.9666C79.4171 25.6985 79.3031 26.5311 79.459 27.3347C79.6148 28.1383 80.0317 28.8676 80.6446 29.4089C81.2574 29.9502 82.0319 30.273 82.8471 30.3271C83.6623 30.3812 84.4725 30.1634 85.1513 29.7078C85.83 29.2521 86.3392 28.5843 86.5994 27.8083L86.9816 27.9366C86.7078 28.7516 86.1861 29.4603 85.4898 29.9631C84.7934 30.4659 83.9575 30.7376 83.0991 30.7401Z" fill="white"/>
<path d="M56.9454 45.177C57.1092 45.0234 57.3035 44.9062 57.5156 44.8331C57.7277 44.7599 57.9528 44.7325 58.1762 44.7525C63.0105 45.1882 72.0298 42.8551 77.9238 36.8124C78.3331 36.3927 79.0807 36.6301 79.5486 36.981C86.104 41.8902 96.9708 42.9067 100.743 43.1145C101.121 43.1358 101.479 43.2913 101.753 43.5531C102.027 43.8149 102.198 44.1659 102.237 44.5431C105.668 77.7402 84.0946 89.7697 79.6205 91.8934C79.3792 92.0075 79.1133 92.0591 78.847 92.0437C78.5808 92.0283 78.3226 91.9462 78.0961 91.805C55.7953 77.8881 56.7504 59.7886 56.4416 46.3797C56.4365 46.155 56.4787 45.9318 56.5655 45.7245C56.6523 45.5173 56.7818 45.3307 56.9454 45.177Z" fill="#52D1BD"/>
<path opacity="0.61" d="M79.0174 89.4819C78.9161 89.4819 78.8168 89.4529 78.7314 89.3983C70.1825 83.9224 64.6088 77.3768 61.6966 69.3863C59.0947 62.2496 58.9674 54.9825 58.8549 48.5709L58.8397 47.7163C58.8381 47.6463 58.8506 47.5766 58.8764 47.5115C58.9023 47.4464 58.941 47.3872 58.9901 47.3374C59.0394 47.2866 59.0984 47.2463 59.1636 47.2188C59.2288 47.1913 59.2988 47.1773 59.3695 47.1775C64.6639 47.1775 72.6108 44.8352 78.439 39.6027C78.526 39.5245 78.6365 39.4775 78.7531 39.469C78.8697 39.4606 78.9858 39.4911 79.0832 39.5559C85.4875 43.8132 94.6224 45.0531 99.4979 45.4132C99.6227 45.4221 99.7403 45.4753 99.8296 45.5632C99.9189 45.6511 99.9739 45.768 99.985 45.8929C101.118 58.8461 98.4291 69.7992 91.9926 78.4484C87.185 84.908 81.4849 88.274 79.2568 89.4211C79.1829 89.4601 79.1009 89.4809 79.0174 89.4819ZM79.159 89.2304L79.2085 89.3272L79.159 89.2304C81.3732 88.0901 87.0393 84.7446 91.8195 78.3213C98.2233 69.7161 100.898 58.8129 99.77 45.9148C99.7639 45.841 99.7316 45.7717 99.679 45.7196C99.6264 45.6675 99.5569 45.6359 99.4831 45.6307C94.5865 45.2709 85.4097 44.0226 78.9644 39.7378C78.9069 39.6997 78.8385 39.6817 78.7698 39.6867C78.701 39.6917 78.6359 39.7194 78.5846 39.7654C72.7137 45.0363 64.7062 47.3958 59.3747 47.3958C59.3321 47.395 59.2898 47.403 59.2504 47.4191C59.211 47.4353 59.1752 47.4593 59.1453 47.4897C59.1165 47.519 59.0939 47.5538 59.0787 47.5921C59.0636 47.6303 59.0563 47.6712 59.0572 47.7123L59.0723 48.5669C59.1844 54.9622 59.3117 62.2092 61.9008 69.3116C64.7971 77.2557 70.3408 83.7661 78.8487 89.2169C78.8948 89.2459 78.9476 89.2625 79.0021 89.2649C79.0565 89.2673 79.1106 89.2554 79.159 89.2304Z" fill="white"/>
<path d="M86.8123 57.7085H85.8042C85.6851 57.7086 85.5672 57.6851 85.4571 57.6395C85.3471 57.5938 85.2471 57.5269 85.1629 57.4425C85.0787 57.3582 85.0119 57.258 84.9663 57.1477C84.9208 57.0375 84.8974 56.9193 84.8974 56.8V53.347C84.8974 52.7533 84.662 52.184 84.2431 51.7642C83.8241 51.3444 83.2559 51.1086 82.6634 51.1086H76.4151C75.8226 51.1086 75.2544 51.3444 74.8354 51.7642C74.4165 52.184 74.1811 52.7533 74.1811 53.347V56.8C74.1811 57.041 74.0855 57.272 73.9155 57.4424C73.7454 57.6128 73.5148 57.7085 73.2743 57.7085H72.2662C72.1471 57.7086 72.0291 57.6851 71.9191 57.6395C71.809 57.5938 71.7091 57.5269 71.6249 57.4425C71.5406 57.3582 71.4738 57.258 71.4283 57.1477C71.3827 57.0375 71.3593 56.9193 71.3594 56.8V53.347C71.3594 52.0035 71.892 50.7151 72.8402 49.7651C73.7883 48.8152 75.0743 48.2815 76.4151 48.2815H82.6634C84.0042 48.2815 85.2902 48.8152 86.2383 49.7651C87.1865 50.7151 87.7191 52.0035 87.7191 53.347V56.8C87.7191 57.041 87.6236 57.272 87.4535 57.4424C87.2835 57.6128 87.0528 57.7085 86.8123 57.7085Z" fill="white"/>
<path d="M88.062 58.5238H71.0156C70.514 58.5238 70.0329 58.7235 69.6782 59.0788C69.3235 59.4342 69.1243 59.9162 69.1243 60.4188V73.5263C69.1243 74.0289 69.3235 74.5109 69.6782 74.8663C70.0329 75.2217 70.514 75.4213 71.0156 75.4213H88.062C88.5636 75.4213 89.0447 75.2217 89.3994 74.8663C89.7541 74.5109 89.9534 74.0289 89.9534 73.5263V60.4188C89.9534 59.9162 89.7541 59.4342 89.3994 59.0788C89.0447 58.7235 88.5636 58.5238 88.062 58.5238ZM81.9777 71.1924C82.0025 71.2956 82.0037 71.4031 81.981 71.5067C81.9584 71.6104 81.9125 71.7076 81.847 71.7909C81.7814 71.8743 81.6978 71.9416 81.6025 71.9879C81.5072 72.0342 81.4027 72.0583 81.2967 72.0582H77.7813C77.6753 72.0582 77.5708 72.0341 77.4755 71.9877C77.3802 71.9414 77.2966 71.874 77.231 71.7906C77.1654 71.7073 77.1195 71.6101 77.0968 71.5064C77.0741 71.4028 77.0752 71.2953 77.0999 71.192L77.9201 67.7714C77.4252 67.4758 77.0204 67.0502 76.7496 66.5407C76.4788 66.0312 76.3523 65.4571 76.3838 64.8807C76.4676 63.2923 77.7526 61.9916 79.336 61.8933C80.0435 61.8479 80.7458 62.0422 81.3298 62.4451C81.9138 62.848 82.3455 63.4359 82.5556 64.1144C82.7658 64.7928 82.742 65.5224 82.4882 66.1857C82.2344 66.849 81.7653 67.4075 81.1563 67.7714L81.9777 71.1924Z" fill="white"/>
<path d="M14.1974 54.24C14.1974 54.24 15.5782 54.3131 15.7473 57.1578C15.7473 57.1578 12.5458 60.0333 8.22171 60.7176C7.89698 60.7692 8.67531 58.4973 8.7926 58.1895C9.34912 56.7254 11.1033 55.7825 14.1974 54.24Z" fill="url(#paint4_linear)"/>
<path d="M29.7461 50.8928H26.8338C26.8338 50.8928 17.8916 40.9981 12.0268 39.9996C12.0268 39.9996 7.94443 45.221 12.2442 54.977C12.5901 55.7616 13.5575 56.1102 14.2788 55.6485C14.4886 55.5175 14.6515 55.3231 14.744 55.0933L14.3973 46.7654C14.3973 46.7654 22.025 53.4493 23.3507 54.7392C24.6764 56.029 31.4157 55.2392 29.7461 50.8928Z" fill="#7D97F4"/>
<path d="M1.5795 71.667C2.80026 70.595 4.7455 69.3923 7.55404 69.0474L8.50351 69.6293C8.50351 69.6293 7.89792 70.5247 6.79166 71.468C5.77476 72.0595 4.20453 72.861 2.90319 73.0348C1.63575 73.2055 1.45104 72.4393 1.5795 71.667Z" fill="url(#paint5_linear)"/>
<path d="M8.79274 58.1893C9.54475 58.4331 9.87547 59.5007 11.7848 58.7949C13.1785 58.28 14.4984 57.5833 15.7104 56.7228C15.7259 56.8607 15.7391 57.0046 15.7503 57.1577C15.7503 57.1577 12.3748 60.3745 8.05071 61.0592C7.97635 61.0702 7.9004 61.0615 7.83043 61.034C7.76046 61.0064 7.69891 60.961 7.6519 60.9022C7.6049 60.8434 7.57407 60.7734 7.5625 60.6989C7.55093 60.6245 7.55901 60.5483 7.58595 60.478C7.89571 59.6696 8.30085 58.9013 8.79274 58.1893Z" fill="#91B3FA"/>
<path d="M0.659571 72.5825C0.946378 72.258 1.25366 71.9522 1.57953 71.6671C1.45107 72.4394 1.63737 73.2056 2.90321 73.0369C4.20456 72.8631 5.77558 72.0617 6.79169 71.4701C5.51508 72.5589 3.57822 73.7148 1.13072 73.6469C0.587363 73.6317 0.300525 72.9914 0.659571 72.5825Z" fill="#91B3FA"/>
<path d="M29.6412 53.0048L15.9975 53.1527C15.9975 53.1527 8.20577 59.6111 6.79272 69.4607C6.79272 69.4607 6.55815 70.1854 7.96641 70.3093C7.96641 70.3093 12.6771 67.2267 15.7485 61.7767C19.5149 55.0944 26.9759 58.1022 26.9759 58.1022C30.5604 58.8948 33.4136 58.5999 35.5013 55.381L29.6412 53.0048Z" fill="#7D97F4"/>
<path d="M29.3173 41.9929C29.3173 41.9929 27.8484 49.3679 20.6523 52.2853L18.0923 51.9831L17.4883 52.948L23.4927 53.1399C23.4927 53.1399 28.6255 51.1014 31.3451 45.5531C31.4364 45.3696 32.9325 42.2715 29.3173 41.9929Z" fill="url(#paint6_linear)"/>
<path d="M28.5301 52.8842C28.5301 52.8842 30.1997 48.3355 30.5588 43.9156C30.5588 43.9156 29.3368 42.8636 28.5728 42.4095C28.4531 42.3387 28.3645 42.2254 28.3246 42.092C28.2846 41.9586 28.2964 41.8151 28.3574 41.69C28.9195 40.5265 32.3141 35.9507 32.5694 35.8871C33.9521 35.5414 39.6223 32.8402 43.6157 38.3129C45.3311 40.6616 43.2758 47.8918 35.5 55.3803C32.9983 55.788 30.6593 55.0657 28.5301 52.8842Z" fill="#263238"/>
<path d="M34.9658 44.9121C34.9658 44.9121 30.3258 50.4172 24.3939 51.2218C24.3939 51.2218 22.8608 49.8229 21.721 50.3213C20.5813 50.8197 19.0178 53.0285 19.0178 53.0285H26.6336C26.6336 53.0285 33.8365 52.7743 37.4357 48.3983C37.1461 46.8671 36.2788 45.9521 34.9658 44.9121Z" fill="url(#paint7_linear)"/>
<path d="M37.6731 32.0259L38.6884 35.4186C38.7115 35.4942 38.7099 35.5752 38.6839 35.6499C38.658 35.7245 38.6089 35.789 38.5439 35.8339C38.0548 36.1696 36.7774 36.8367 35.0249 36.1884C34.9264 36.1514 34.8405 36.087 34.7773 36.0029C34.7141 35.9187 34.6761 35.8182 34.6678 35.7131L34.4285 32.7553L37.6731 32.0259Z" fill="url(#paint8_linear)"/>
<path d="M31.7278 29.2779C31.7278 29.2779 32.2273 32.7954 33.5757 33.8746C34.9241 34.9538 37.5511 34.142 38.4388 31.4903L36.6707 26.9589L31.7278 29.2779Z" fill="url(#paint9_linear)"/>
<path d="M36.8698 29.8928C36.8458 29.9007 36.8204 29.9032 36.7953 29.9003C36.7702 29.8973 36.7461 29.8889 36.7246 29.8756C36.7031 29.8623 36.6847 29.8445 36.6708 29.8233C36.6569 29.8022 36.6478 29.7783 36.644 29.7533C36.595 29.4287 36.4737 28.786 36.2275 28.3483C36.2275 28.3483 36.3564 27.8871 35.0638 28.5841C33.7713 29.2812 31.8296 30.3029 30.6867 29.6953C29.5724 29.101 28.4434 26.1092 31.3888 26.6632C31.4149 26.6682 31.4418 26.6672 31.4675 26.6602C31.4931 26.6533 31.5168 26.6405 31.5368 26.6229C31.5567 26.6053 31.5724 26.5833 31.5826 26.5587C31.5927 26.5341 31.5971 26.5075 31.5954 26.4809C31.5591 25.9893 31.6078 24.8581 32.7524 24.4948C33.8223 24.155 34.408 24.639 34.6497 24.9312C34.6662 24.9514 34.6871 24.9675 34.7107 24.9785C34.7343 24.9894 34.76 24.9949 34.786 24.9944C34.812 24.994 34.8376 24.9877 34.8608 24.976C34.8841 24.9643 34.9044 24.9475 34.9202 24.9268C35.2394 24.5075 36.111 23.615 37.3936 24.181C38.4492 24.647 38.6132 25.3002 38.596 25.7043C38.5945 25.7342 38.6007 25.764 38.6141 25.7908C38.6275 25.8176 38.6476 25.8405 38.6724 25.8572C38.6973 25.8738 38.726 25.8838 38.7558 25.886C38.7857 25.8882 38.8156 25.8826 38.8426 25.8697C39.1661 25.7206 39.686 25.6431 40.1838 26.2694C40.8724 27.134 39.8886 27.8835 39.5934 28.0801C39.5693 28.0957 39.5495 28.117 39.5356 28.1421C39.5217 28.1672 39.5141 28.1953 39.5136 28.224C39.5112 28.6733 39.441 30.6342 38.4604 31.7414C38.4405 31.7633 38.4155 31.7797 38.3876 31.7893C38.3597 31.7989 38.3299 31.8013 38.3008 31.7963C38.2718 31.7913 38.2444 31.779 38.2214 31.7606C38.1983 31.7422 38.1802 31.7183 38.1688 31.691L37.4136 29.888C37.3966 29.8476 37.3652 29.8151 37.3254 29.7968C37.2857 29.7785 37.2406 29.7758 37.199 29.7892L36.8698 29.8928Z" fill="url(#paint10_linear)"/>
<path d="M36.8538 30.2577C36.8538 30.2577 37.3149 28.3754 38.0155 28.9866C38.716 29.5977 37.8328 30.9424 37.0305 31.199L36.8538 30.2577Z" fill="url(#paint11_linear)"/>
<path d="M19.3996 53.4558L15.9795 42.0274C15.9114 41.7998 15.7756 41.5984 15.5903 41.4501C15.4049 41.3018 15.1789 41.2135 14.9423 41.1972L10.3241 40.8807C10.2159 40.8733 10.1076 40.8929 10.0089 40.9378C9.91011 40.9827 9.82403 41.0515 9.75835 41.1379C9.69266 41.2244 9.64943 41.3258 9.63252 41.4331C9.61562 41.5405 9.62556 41.6503 9.66148 41.7528L13.4841 52.6668C13.5443 52.8391 13.6524 52.9906 13.7955 53.1036C13.9387 53.2165 14.1111 53.2861 14.2924 53.3043L18.8403 53.81L19.3996 53.4558Z" fill="url(#paint12_linear)"/>
<path d="M13.0915 45.9009C13.3468 46.4173 13.7881 46.7199 14.0765 46.5764C14.3649 46.4329 14.3921 45.8969 14.1367 45.3821C13.8814 44.8672 13.4406 44.5631 13.1517 44.7061C12.8629 44.8492 12.8362 45.3845 13.0915 45.9009Z" fill="#91B3FA"/>
<path d="M18.8403 53.81H18.8627L28.5521 53.3207C28.6091 53.3178 28.6649 53.3037 28.7164 53.2792C28.7679 53.2547 28.8141 53.2203 28.8523 53.1779C28.8906 53.1355 28.9201 53.086 28.9392 53.0322C28.9584 52.9784 28.9667 52.9213 28.9638 52.8642C28.961 52.8072 28.9469 52.7512 28.9224 52.6996C28.898 52.648 28.8636 52.6017 28.8213 52.5634C28.779 52.5251 28.7296 52.4956 28.6759 52.4764C28.6222 52.4572 28.5652 52.4488 28.5083 52.4517L18.8188 52.9426C18.7051 52.9474 18.5978 52.9968 18.5201 53.08C18.4424 53.1633 18.4004 53.2739 18.4032 53.3879C18.406 53.5019 18.4534 53.6102 18.5352 53.6895C18.617 53.7688 18.7265 53.8128 18.8403 53.812V53.81Z" fill="url(#paint13_linear)"/>
<path d="M30.5588 43.9827C30.541 43.9827 30.5239 43.9756 30.5114 43.963C30.4988 43.9504 30.4917 43.9333 30.4917 43.9155C30.485 41.8662 31.2721 39.1542 31.28 39.1271C31.2825 39.1186 31.2866 39.1107 31.2921 39.1038C31.2976 39.0969 31.3045 39.0912 31.3122 39.0869C31.3199 39.0827 31.3284 39.08 31.3371 39.079C31.3459 39.0781 31.3548 39.0788 31.3632 39.0813C31.3717 39.0838 31.3796 39.0879 31.3865 39.0934C31.3933 39.0989 31.399 39.1057 31.4033 39.1135C31.4075 39.1212 31.4102 39.1297 31.4112 39.1385C31.4121 39.1473 31.4114 39.1562 31.4089 39.1646C31.4009 39.1918 30.6194 41.8858 30.6262 43.9151C30.6262 43.933 30.6191 43.9501 30.6066 43.9627C30.594 43.9754 30.577 43.9826 30.5592 43.9827H30.5588Z" fill="url(#paint14_linear)"/>
<path d="M34.966 44.9796C34.9534 44.9796 34.941 44.9761 34.9302 44.9694C34.9195 44.9627 34.9109 44.9531 34.9054 44.9416C34.8999 44.9302 34.8977 44.9175 34.8991 44.9049C34.9005 44.8923 34.9055 44.8803 34.9134 44.8704C34.9345 44.8437 37.0405 42.1612 37.7614 40.331C37.7646 40.3227 37.7694 40.3151 37.7755 40.3087C37.7816 40.3023 37.789 40.2971 37.7971 40.2936C37.8053 40.2901 37.814 40.2882 37.8229 40.2881C37.8318 40.288 37.8406 40.2897 37.8488 40.293C37.8654 40.2996 37.8787 40.3125 37.8858 40.3289C37.8929 40.3453 37.8932 40.3639 37.8867 40.3806C37.1582 42.2288 35.0402 44.9268 35.0187 44.954C35.0124 44.962 35.0045 44.9684 34.9953 44.9729C34.9862 44.9773 34.9762 44.9796 34.966 44.9796Z" fill="url(#paint15_linear)"/>
<path d="M37.9515 49.104L37.5681 48.5612C37.5579 48.5466 37.5538 48.5285 37.5569 48.5109C37.56 48.4933 37.5699 48.4776 37.5845 48.4673C37.5916 48.4622 37.5997 48.4585 37.6083 48.4565C37.6169 48.4545 37.6258 48.4543 37.6345 48.4558C37.6431 48.4573 37.6514 48.4605 37.6589 48.4652C37.6663 48.4699 37.6728 48.4761 37.6778 48.4833L37.997 48.9373C40.9854 47.6247 42.8357 44.0426 42.8541 44.0062C42.8621 43.9903 42.8762 43.9783 42.8932 43.9728C42.9101 43.9673 42.9285 43.9687 42.9444 43.9768C42.9603 43.9849 42.9723 43.999 42.9778 44.016C42.9833 44.033 42.9818 44.0515 42.9737 44.0674C42.955 44.1045 41.0632 47.7686 38.0002 49.0824L37.9515 49.104Z" fill="url(#paint16_linear)"/>
</g>
<defs>
<linearGradient id="paint0_linear" x1="118.966" y1="112.933" x2="38.5984" y2="42.7462" gradientUnits="userSpaceOnUse">
<stop stop-color="#DAE3FE"/>
<stop offset="1" stop-color="#E9EFFD"/>
</linearGradient>
<linearGradient id="paint1_linear" x1="8.93108" y1="7.98335" x2="95.0658" y2="141.385" gradientUnits="userSpaceOnUse">
<stop stop-color="#4F52FF"/>
<stop offset="1" stop-color="#4042E2"/>
</linearGradient>
<linearGradient id="paint2_linear" x1="52.2379" y1="105.73" x2="37.8857" y2="62.756" gradientUnits="userSpaceOnUse">
<stop stop-color="#09005D"/>
<stop offset="1" stop-color="#1A0F91"/>
</linearGradient>
<linearGradient id="paint3_linear" x1="17641.5" y1="8015.46" x2="21285" y2="28668.7" gradientUnits="userSpaceOnUse">
<stop stop-color="#09005D"/>
<stop offset="1" stop-color="#1A0F91"/>
</linearGradient>
<linearGradient id="paint4_linear" x1="-9298.91" y1="9283.83" x2="-10095.8" y2="10260.8" gradientUnits="userSpaceOnUse">
<stop stop-color="#09005D"/>
<stop offset="1" stop-color="#1A0F91"/>
</linearGradient>
<linearGradient id="paint5_linear" x1="-9656.24" y1="7103.44" x2="-10625.7" y2="8337.71" gradientUnits="userSpaceOnUse">
<stop stop-color="#09005D"/>
<stop offset="1" stop-color="#1A0F91"/>
</linearGradient>
<linearGradient id="paint6_linear" x1="21.4585" y1="44.3608" x2="27.8999" y2="52.0066" gradientUnits="userSpaceOnUse">
<stop stop-color="#FEBBBA"/>
<stop offset="1" stop-color="#FF928E"/>
</linearGradient>
<linearGradient id="paint7_linear" x1="15215.4" y1="10467.7" x2="16816.5" y2="5497.19" gradientUnits="userSpaceOnUse">
<stop stop-color="#FEBBBA"/>
<stop offset="1" stop-color="#FF928E"/>
</linearGradient>
<linearGradient id="paint8_linear" x1="2720.24" y1="4108.47" x2="2774.75" y2="3635.39" gradientUnits="userSpaceOnUse">
<stop stop-color="#FEBBBA"/>
<stop offset="1" stop-color="#FF928E"/>
</linearGradient>
<linearGradient id="paint9_linear" x1="4671.43" y1="6121.49" x2="4254.53" y2="4871.09" gradientUnits="userSpaceOnUse">
<stop stop-color="#FEBBBA"/>
<stop offset="1" stop-color="#FF928E"/>
</linearGradient>
<linearGradient id="paint10_linear" x1="-6997.16" y1="3996.92" x2="-7272.22" y2="6191.6" gradientUnits="userSpaceOnUse">
<stop stop-color="#09005D"/>
<stop offset="1" stop-color="#1A0F91"/>
</linearGradient>
<linearGradient id="paint11_linear" x1="939.311" y1="1995.36" x2="763.544" y2="1643.64" gradientUnits="userSpaceOnUse">
<stop stop-color="#FEBBBA"/>
<stop offset="1" stop-color="#FF928E"/>
</linearGradient>
<linearGradient id="paint12_linear" x1="-10353.9" y1="15357.3" x2="-12749.2" y2="15357.3" gradientUnits="userSpaceOnUse">
<stop stop-color="#09005D"/>
<stop offset="1" stop-color="#1A0F91"/>
</linearGradient>
<linearGradient id="paint13_linear" x1="-11513.7" y1="1810.07" x2="-11111" y2="2666.7" gradientUnits="userSpaceOnUse">
<stop stop-color="#09005D"/>
<stop offset="1" stop-color="#1A0F91"/>
</linearGradient>
<linearGradient id="paint14_linear" x1="32.6831" y1="14.6623" x2="29.65" y2="61.2859" gradientUnits="userSpaceOnUse">
<stop stop-color="#E1473D"/>
<stop offset="1" stop-color="#E9605A"/>
</linearGradient>
<linearGradient id="paint15_linear" x1="2899.35" y1="1803.3" x2="2345.7" y2="7242.43" gradientUnits="userSpaceOnUse">
<stop stop-color="#E1473D"/>
<stop offset="1" stop-color="#E9605A"/>
</linearGradient>
<linearGradient id="paint16_linear" x1="5786.87" y1="2007.67" x2="5418.65" y2="7999.58" gradientUnits="userSpaceOnUse">
<stop stop-color="#E1473D"/>
<stop offset="1" stop-color="#E9605A"/>
</linearGradient>
<clipPath id="clip0">
<rect width="111" height="111.917" fill="white"/>
</clipPath>
</defs>
</svg>
