<svg width="17" height="17" viewBox="0 0 17 17" fill="none" xmlns="http://www.w3.org/2000/svg">
<path d="M8.49998 0.100098C3.86108 0.100098 0.0999756 3.8612 0.0999756 8.5001C0.0999756 10.3397 0.692176 12.0428 1.69808 13.4267L0.543076 16.4633L3.87578 15.5141C5.20088 16.3898 6.79058 16.9001 8.49998 16.9001C13.1389 16.9001 16.9 13.139 16.9 8.5001C16.9 3.8612 13.1389 0.100098 8.49998 0.100098ZM12.9646 11.9798L12.07 12.8744C11.1292 13.8152 8.63438 12.7799 6.42308 10.5686C4.20968 8.3552 3.22058 5.8604 4.11518 4.9196L5.00978 4.025C5.33948 3.6953 5.90438 3.6953 6.28028 4.025L7.59908 5.3438C8.06948 5.8142 7.88048 6.6143 7.26938 6.8012C6.84518 6.944 6.56378 7.4144 6.70448 7.8386C6.93968 8.8256 8.21018 10.0499 9.15308 10.2851C9.57518 10.3796 10.0477 10.1444 10.1884 9.7202C10.3753 9.1091 11.1775 8.9201 11.6479 9.3905L12.9646 10.7093C13.2943 11.039 13.2943 11.6039 12.9646 11.9798Z" fill="#4CAF50"/>
</svg>
